<svg xmlns="http://www.w3.org/2000/svg" viewBox="0 0 300 300">
  <defs>
    <style>

      path#circle   { fill: #e3e0db }
      path#gear     { fill: #02b6f7 }
      path#computer { fill: #02b6f7 }

      #gear-clip-holder,
      path#gear {
        animation-name: gear-spin;
        animation-duration: 10s;
        animation-iteration-count: infinite;
        animation-timing-function: linear;
        transform-origin: 150.701px 219.222px;
      }

      @keyframes gear-spin {
        0%   { transform: rotate(0deg); }
        100% { transform: rotate(360deg); }
      }

    </style>

    <clipPath id="gear-clip-holder">
      <path id="gear-clip-shape" d="M402-39V458H-97V-39H402ZM166.5,262.5a30,30,0,0,0,4.1-1.8L188,273.3l16.7-16.6L192,239a28.69,28.69,0,0,0,1.5-3.7l21-3.5V208.1l-21-3.5a39,39,0,0,0-2-4.7l12.9-18.1-16.7-16.7-18.4,13.2c-1-.4-2-0.9-3-1.2l-3.4-20.4H139.3l-3.3,20a46.23,46.23,0,0,0-4.7,1.9l-18-12.9L96.6,182.4l12.8,17.8a33.83,33.83,0,0,0-1.8,4.4L87,208v23.6l20.8,3.4a28.7,28.7,0,0,0,1.5,3.7L96.7,256.2l16.7,16.7,17.2-12.3a37.11,37.11,0,0,0,5.5,2.2l3.4,21H163Z" />
    </clipPath>

  </defs>

  <path id="circle" d="M150,300A150,150,0,0,1,150,0c82.8,0,150,67.1,150,149.9A150,150,0,0,1,150.1,300ZM150,5.65A144.35,144.35,0,1,0,294.35,150h0v-.1A144.409,144.409,0,0,0,150,5.65Z" />
  <path id="computer" clip-path="url(#gear-clip-holder)" d="M226.9,89.9h-107V84.5h107v5.4h0ZM74.7,83.8a3.3,3.3,0,1,1-3.3,3.3,3.2,3.2,0,0,1,3.3-3.3h0Zm10.6,0a3.3,3.3,0,0,1,0,6.6A3.27,3.27,0,0,1,82,87.1a3.33,3.33,0,0,1,3.3-3.3h0Zm10.5,0a3.3,3.3,0,1,1-3.3,3.3,3.2,3.2,0,0,1,3.3-3.3h0Zm-9.7,85.5h22.2v4.4H86.1v-4.4Zm32.4,0h68.9v4.4H118.5v-4.4ZM86.1,140.6h44.7V145H86.1v-4.4Zm74.9,0h25.8V145H161v-4.4Zm-23.3,0h14.7V145H137.8l-0.1-4.4h0Zm56.1,0h14.7V145H193.8v-4.4h0ZM86.1,155h28.2v4.4H86.1V155Zm59,0h28.2v4.4H145.1V155Zm-23.2,0h14.9v4.4H121.9V155ZM86.1,196.8h22.2v4.4H86.1v-4.4Zm32.4,0h22.2v4.4H118.5v-4.4ZM86.1,182.4h28.2v4.4H86.1v-4.4Zm59,0h28.2v4.4H145.1v-4.4Zm-23.2,0h14.9v4.4H121.9v-4.4ZM86.1,126.3h34.4v4.4H86.1v-4.4Zm69.4,0h34.4v4.4H155.5v-4.4h0Zm-28.5,0h21.6v4.4H127.1l-0.1-4.4h0ZM58.9,71.1V228.9H241.1V71.1H58.9ZM236.7,98.7H110.4V75.6H236.6V98.7h0.1ZM106,75.6V98.7H63.3V75.6H106ZM213.5,224.4H63.3V103H236.6V224.4H213.5ZM72.4,214.8H228V112.4H72.4V214.8Zm4.5-98H223.6v93.6H76.9V116.8Z" />
  <path id="gear" d="M160.2,280.6H142.3L139,260.3a44.29,44.29,0,0,1-8.7-3.6l-16.4,11.9L101,255.9l12.1-16.8a42.6,42.6,0,0,1-2.8-7l-20-3.3V210.9l20-3.3a48.89,48.89,0,0,1,3-7.5L101,182.8l12.7-12.7,17.4,12.3a43.09,43.09,0,0,1,8-3.2l3.2-19.3h17.9l3.2,19.6a43.85,43.85,0,0,1,6.3,2.6l17.8-12.7,12.6,12.7-12.5,17.4a43.72,43.72,0,0,1,3.4,8l20.2,3.2v18.1L191,232.1a42.6,42.6,0,0,1-2.8,7l12.3,17-12.7,12.7-16.7-12a39,39,0,0,1-7.3,3.1ZM146,276.2h10.4l3.2-19.7,1.4-.4a41.13,41.13,0,0,0,8.9-3.8l1.2-.7L187,263.1l7.4-7.3-11.6-16.2,0.7-1.2a33.29,33.29,0,0,0,3.6-8.7l0.4-1.4,19.2-3.2V214.7l-19.3-3.2L187,210a37.62,37.62,0,0,0-4-9.5l-0.8-1.2,12-16.7-7.4-7.4-16.9,12.1-1-.7a32.65,32.65,0,0,0-8-3.2l-1.4-.4-3.2-18.6H146l-3,18.4-1.4.4a37,37,0,0,0-9.5,3.8l-1.2.7-16.5-11.8-7.4,7.4,11.8,16.4-0.7,1.2a34.36,34.36,0,0,0-3.8,9.3l-0.4,1.4-19,3.1V225l19,3.1,0.4,1.4a37.88,37.88,0,0,0,3.5,8.6l0.7,1.2-11.6,16.2,7.4,7.3,15.8-11.3,1.3,0.7a37.86,37.86,0,0,0,10.2,4.2l1.4,0.4Zm4.7-34.6a22.4,22.4,0,1,1,22.4-22.4h0a22.36,22.36,0,0,1-22.4,22.4h0Zm0-40.4a18,18,0,1,0,18,18h0a18,18,0,0,0-18-18h0Z" />

</svg>