<svg xmlns="http://www.w3.org/2000/svg" viewBox="0 0 175 175">
  <path style="fill: #00a0da" d="M40.489,57.69A17.653,17.653,0,1,1,58.141,40.038,17.672,17.672,0,0,1,40.489,57.69Zm0-27.3a9.653,9.653,0,1,0,9.652,9.653A9.663,9.663,0,0,0,40.489,30.385ZM87.5,57.69a17.653,17.653,0,1,1,17.652-17.652A17.672,17.672,0,0,1,87.5,57.69Zm0-27.3a9.653,9.653,0,1,0,9.652,9.653A9.663,9.663,0,0,0,87.5,30.385Zm47.012,27.3a17.653,17.653,0,1,1,17.651-17.652A17.673,17.673,0,0,1,134.512,57.69Zm0-27.3a9.653,9.653,0,1,0,9.651,9.653A9.664,9.664,0,0,0,134.512,30.385ZM40.489,106.6A17.652,17.652,0,1,1,58.141,88.95,17.672,17.672,0,0,1,40.489,106.6Zm0-27.3a9.652,9.652,0,1,0,9.652,9.652A9.663,9.663,0,0,0,40.489,79.3ZM87.5,106.6A17.652,17.652,0,1,1,105.152,88.95,17.672,17.672,0,0,1,87.5,106.6Zm0-27.3a9.652,9.652,0,1,0,9.652,9.652A9.663,9.663,0,0,0,87.5,79.3Zm47.012,27.3A17.652,17.652,0,1,1,152.163,88.95,17.673,17.673,0,0,1,134.512,106.6Zm0-27.3a9.652,9.652,0,1,0,9.651,9.652A9.663,9.663,0,0,0,134.512,79.3ZM40.489,155.514a17.652,17.652,0,1,1,17.652-17.652A17.672,17.672,0,0,1,40.489,155.514Zm0-27.3a9.652,9.652,0,1,0,9.652,9.652A9.663,9.663,0,0,0,40.489,128.21Zm47.011,27.3a17.652,17.652,0,1,1,17.652-17.652A17.672,17.672,0,0,1,87.5,155.514Zm0-27.3a9.652,9.652,0,1,0,9.652,9.652A9.663,9.663,0,0,0,87.5,128.21Zm47.012,27.3a17.652,17.652,0,1,1,17.651-17.652A17.672,17.672,0,0,1,134.512,155.514Zm0-27.3a9.652,9.652,0,1,0,9.651,9.652A9.663,9.663,0,0,0,134.512,128.21Z"/>
</svg>
