<?xml version="1.0" encoding="utf-8"?>
<!-- Generator: Adobe Illustrator 26.0.2, SVG Export Plug-In . SVG Version: 6.00 Build 0)  -->
<svg version="1.1" id="Layer_1" xmlns="http://www.w3.org/2000/svg" xmlns:xlink="http://www.w3.org/1999/xlink" x="0px" y="0px"
	 viewBox="0 0 172 30" style="enable-background:new 0 0 172 30;" xml:space="preserve">
<style type="text/css">
	.st0{fill-rule:evenodd;clip-rule:evenodd;fill:#E3E0DB;}
</style>
<desc>Created with Sketch.</desc>
<g id="Page-1">
	<g id="Price-to-Performance-V3" transform="translate(-215.000000, -35.000000)">
		<g id="Header" transform="translate(215.000000, 30.000000)">
			<g id="logo" transform="translate(0.000000, 5.000000)">
				<g id="Layer_1_00000153706552958480404790000012666698259538267792_">
					<g id="XMLID_749_">
						<g id="XMLID_981_">
							<g id="XMLID_982_">
								<g id="XMLID_44_">
									<g id="XMLID_48_">
										<path id="XMLID_49_" class="st0" d="M14.6,29.1v-5.6c5.9,0,10.5-5.8,8.3-12.1c-0.8-2.3-2.7-4.1-5-5
											C11.7,4.2,5.8,8.8,5.8,14.7l0,0H0.2c0-9.4,9.1-16.8,19-13.7c4.3,1.3,7.8,4.8,9.1,9.1C31.5,20,24.1,29.1,14.6,29.1
											L14.6,29.1z"/>
									</g>
									<polygon id="XMLID_47_" class="st0" points="14.6,23.5 9.1,23.5 9.1,18 9.1,18 14.6,18 14.6,18 									"/>
									<polygon id="XMLID_46_" class="st0" points="9.1,27.8 4.8,27.8 4.8,27.8 4.8,23.5 9.1,23.5 									"/>
									<path id="XMLID_45_" class="st0" d="M4.8,23.5H1.2l0,0V20l0,0h3.6l0,0L4.8,23.5L4.8,23.5z"/>
								</g>
							</g>
						</g>
						<g id="XMLID_751_" transform="translate(40.230717, 6.495126)">
							<path id="XMLID_978_" class="st0" d="M11.4,2.2C9.8,1,7.7,0.4,5.3,0.4H0.1V17h5.2c2.4,0,4.5-0.6,6.1-1.8
								c0.9-0.6,1.6-1.5,2.1-2.7c0.5-1.1,0.8-2.4,0.8-3.9S14,5.8,13.5,4.8C13,3.6,12.3,2.7,11.4,2.2L11.4,2.2z M3.1,3.2h1.7
								c1.8,0,3.3,0.3,4.5,1.1c1.3,0.8,1.9,2.2,1.9,4.3c0,2.2-0.7,3.7-1.9,4.5l0,0c-1.1,0.7-2.6,1.1-4.4,1.1H3.2L3.1,3.2L3.1,3.2z"
								/>
							<path id="XMLID_977_" class="st0" d="M17.9,0.2c-0.5,0-0.9,0.2-1.3,0.5c-0.3,0.3-0.6,0.8-0.6,1.3s0.2,0.9,0.5,1.3
								c0.3,0.3,0.8,0.5,1.3,0.5c0.5,0,0.9-0.2,1.3-0.5c0.3-0.3,0.5-0.8,0.5-1.3s-0.2-0.9-0.5-1.3C18.9,0.4,18.4,0.2,17.9,0.2
								L17.9,0.2z"/>
							<rect id="XMLID_976_" x="16.4" y="5.3" class="st0" width="3" height="11.7"/>
							<path id="XMLID_973_" class="st0" d="M30.1,6.3c-0.9-0.8-1.9-1.2-3-1.2c-1.6,0-3,0.5-4,1.7c-1.1,1.1-1.6,2.5-1.6,4.2
								c0,1.6,0.5,3,1.5,4.2c1,1.1,2.4,1.6,4,1.6c1.1,0,2.1-0.3,2.9-0.9v0.3c0,1-0.3,1.7-0.8,2.2c-0.5,0.5-1.2,0.8-2.1,0.8
								c-1.4,0-2.2-0.5-3.3-1.9l-2,1.9l0.1,0.1c0.4,0.6,1.1,1.2,2,1.7c0.9,0.5,2,0.9,3.3,0.9c1.8,0,3.2-0.5,4.2-1.6s1.6-2.5,1.6-4.2
								V5.3h-2.9V6.3L30.1,6.3z M29.3,13.2c-0.5,0.6-1.2,0.9-2,0.9c-0.9,0-1.5-0.3-2-0.9c-0.5-0.6-0.8-1.3-0.8-2.3s0.2-1.7,0.8-2.3
								c0.5-0.6,1.2-0.9,2-0.9c0.9,0,1.5,0.3,2,0.9c0.5,0.6,0.8,1.4,0.8,2.3C30.1,11.8,29.8,12.6,29.3,13.2L29.3,13.2z"/>
							<rect id="XMLID_972_" x="35.5" y="5.3" class="st0" width="3" height="11.7"/>
							<path id="XMLID_971_" class="st0" d="M37,0.2c-0.5,0-0.9,0.2-1.3,0.5c-0.3,0.3-0.6,0.8-0.6,1.3s0.2,0.9,0.5,1.3
								C36,3.6,36.5,3.8,37,3.8s0.9-0.2,1.3-0.5c0.3-0.3,0.5-0.8,0.5-1.3s-0.2-0.9-0.5-1.3C37.9,0.4,37.5,0.2,37,0.2L37,0.2z"/>
							<path id="XMLID_970_" class="st0" d="M44.9,2.2H42v3.1h-1.7V8H42v4.8c0,1.5,0.3,2.6,0.9,3.2c0.6,0.6,1.7,1,3.2,1
								c0.5,0,1,0,1.4,0h0.1v-2.7l-1,0.1c-0.7,0-1.2-0.1-1.4-0.4c-0.2-0.2-0.3-0.8-0.3-1.5V8h2.8V5.3h-2.8V2.2L44.9,2.2z"/>
							<rect id="XMLID_969_" x="61.5" y="0.4" class="st0" width="3" height="16.5"/>
							<path id="XMLID_968_" class="st0" d="M94.2,12.8c-0.5,0.6-1.1,1.1-1.5,1.4l0,0c-0.4,0.3-0.9,0.4-1.5,0.4
								c-0.9,0-1.6-0.3-2.1-1c-0.6-0.6-0.9-1.5-0.9-2.5s0.3-1.8,0.8-2.5c0.6-0.6,1.3-1,2.1-1c1,0,2,0.6,2.8,1.6l2-1.8l0,0
								c-1.3-1.6-2.9-2.4-4.8-2.4c-1.6,0-3,0.6-4.2,1.7s-1.7,2.6-1.7,4.3s0.6,3.2,1.7,4.3c1.1,1.2,2.5,1.7,4.2,1.7
								c2.1,0,3.9-0.9,5-2.6L94.2,12.8L94.2,12.8z"/>
							<path id="XMLID_964_" class="st0" d="M106.3,6.9c-0.4-0.6-1-1.1-1.7-1.4c-0.7-0.3-1.5-0.5-2.4-0.5c-1.7,0-3,0.6-4,1.8
								c-1,1.2-1.5,2.7-1.5,4.4c0,1.8,0.6,3.2,1.6,4.3c1.1,1.1,2.5,1.7,4.3,1.7c2,0,3.6-0.8,4.8-2.4l0.1-0.1l-1.9-1.8l0,0
								c-0.2,0.2-0.4,0.4-0.7,0.7c-0.3,0.3-0.6,0.5-0.9,0.6c-0.4,0.2-0.9,0.3-1.5,0.3c-0.8,0-1.5-0.2-2-0.7c-0.5-0.4-0.8-1-0.8-1.8
								h7.8l0-1.1c0-0.8-0.1-1.5-0.3-2.2C107,8.1,106.7,7.5,106.3,6.9L106.3,6.9z M99.9,9.7c0.1-0.5,0.4-1,0.8-1.4
								c0.4-0.4,0.9-0.6,1.5-0.6c0.7,0,1.3,0.2,1.7,0.6c0.3,0.4,0.6,0.8,0.6,1.4L99.9,9.7L99.9,9.7z"/>
							<path id="XMLID_959_" class="st0" d="M117.6,6.2L117.6,6.2c-0.9-0.8-2.1-1.1-3.7-1.1c-1,0-1.9,0.2-2.7,0.6
								c-0.8,0.4-1.5,1-2,1.9l0,0l1.9,1.8c0.8-1.2,1.7-1.7,2.8-1.7c0.6,0,1.1,0.2,1.5,0.5c0.4,0.3,0.6,0.7,0.6,1.3v0.6
								c-0.7-0.2-1.4-0.3-2.2-0.3c-1.5,0-2.6,0.3-3.5,1c-0.9,0.7-1.3,1.7-1.3,2.9c0,1.1,0.4,2,1.1,2.6c0.8,0.6,1.7,1,2.9,1
								s2.2-0.4,3.1-1.2v1h2.9V9.5C118.9,8,118.5,6.9,117.6,6.2L117.6,6.2z M112.4,12.5c0.3-0.2,0.8-0.3,1.4-0.3
								c0.7,0,1.5,0.1,2.2,0.4v1.1c-0.7,0.6-1.5,0.9-2.5,0.9c-0.5,0-0.9-0.1-1.2-0.3c-0.3-0.2-0.4-0.5-0.4-0.9S112,12.7,112.4,12.5
								L112.4,12.5z"/>
							<path id="XMLID_957_" class="st0" d="M130.3,6.4c-0.8-0.9-2-1.4-3.4-1.4c-1.2,0-2.1,0.3-2.8,1V5.3h-2.9V17h3v-6.4
								c0-0.9,0.2-1.6,0.6-2.1c0.4-0.5,1-0.8,1.8-0.8c0.7,0,1.2,0.2,1.5,0.6c0.4,0.4,0.6,1.1,0.6,1.8v6.7h3v-6.7
								C131.5,8.6,131.1,7.3,130.3,6.4L130.3,6.4z"/>
							<path id="XMLID_954_" class="st0" d="M57.8,6.2L57.8,6.2c-0.9-0.8-2.1-1.1-3.7-1.1c-1,0-1.9,0.2-2.7,0.6
								c-0.8,0.4-1.5,1-2,1.9l0,0l1.9,1.8c0.8-1.2,1.7-1.7,2.8-1.7c0.6,0,1.1,0.2,1.5,0.5c0.4,0.3,0.6,0.7,0.6,1.3v0.6
								c-0.7-0.2-1.4-0.3-2.2-0.3c-1.5,0-2.6,0.3-3.5,1c-0.9,0.7-1.3,1.7-1.3,2.9c0,1.1,0.4,2,1.1,2.6c0.8,0.6,1.7,1,2.9,1
								s2.2-0.4,3.1-1.2v1h2.9V9.5C59.1,8,58.7,6.9,57.8,6.2L57.8,6.2z M52.5,12.5c0.3-0.2,0.8-0.3,1.4-0.3c0.7,0,1.5,0.1,2.2,0.4
								v1.1c-0.7,0.6-1.5,0.9-2.5,0.9c-0.5,0-0.9-0.1-1.2-0.3c-0.3-0.2-0.4-0.5-0.4-0.9S52.2,12.7,52.5,12.5L52.5,12.5z"/>
							<path id="XMLID_752_" class="st0" d="M75.1,17.2c-4.7,0-8.6-3.8-8.6-8.5s3.9-8.5,8.6-8.5s8.6,3.8,8.6,8.5
								S79.8,17.2,75.1,17.2L75.1,17.2z M75.1,3.1c-3.1,0-5.5,2.5-5.5,5.5s2.5,5.5,5.5,5.5c3.1,0,5.5-2.5,5.5-5.5S78.2,3.1,75.1,3.1
								L75.1,3.1z"/>
						</g>
					</g>
				</g>
			</g>
		</g>
	</g>
</g>
</svg>
