<svg xmlns="http://www.w3.org/2000/svg" viewBox="0 0 175 175">
  <path style="fill: #00a0da" d="M137.2,48.769,106.385,17.957a8,8,0,0,0-5.657-2.343H43.46a8,8,0,0,0-8,8V151.386a8,8,0,0,0,8,8h88.08a8,8,0,0,0,8-8V54.426A8,8,0,0,0,137.2,48.769ZM127.414,50.3h-26.1V24.2ZM43.46,151.386V23.614H93.316V54.3a4,4,0,0,0,4,4h33.25a4.008,4.008,0,0,0,.974-.133v93.219Zm72.583-61.769h-57.5a4,4,0,1,1,0-8h57.5a4,4,0,0,1,0,8Zm0-15.784h-57.5a4,4,0,0,1,0-8h57.5a4,4,0,0,1,0,8ZM82,58.05H58.543a4,4,0,1,1,0-8H82a4,4,0,0,1,0,8Zm34.048,47.35h-57.5a4,4,0,0,1,0-8h57.5a4,4,0,0,1,0,8Zm0,15.783h-57.5a4,4,0,1,1,0-8h57.5a4,4,0,0,1,0,8Zm0,15.783h-57.5a4,4,0,0,1,0-8h57.5a4,4,0,0,1,0,8Z"/>
</svg>