<svg xmlns="http://www.w3.org/2000/svg" viewBox="0 0 175 175">
  <path style="fill: #212526" d="M144.76,33.12A12,12,0,0,0,134.15,27H37.74A12.19,12.19,0,0,0,25.37,38.83v97.23c.12,5.18,2.64,10.33,7.57,11.92h55.3V101.27H78.29V85.36h9.95V82.19c0-9.49,2.56-19,8.89-25C102.56,52,109.8,49,116.28,49a37.67,37.67,0,0,1,11.46,1.51l-.91,15.71a22.64,22.64,0,0,0-8-1.36c-9.19,0-12.21,7.69-12.21,16.73v3.77h19l-3,15.91H106.78V148h28.91l.54-.15.5-.13a15.68,15.68,0,0,0,1.65-.5,12.27,12.27,0,0,0,8-11.5v-96A12.36,12.36,0,0,0,144.76,33.12Z"/>
</svg>