<svg xmlns="http://www.w3.org/2000/svg" viewBox="0 0 154.492 154.492">
  <path style="fill: #02b6f7" d="M83.194,10.37,86.729,31.1l.474,2.782,2.691.852a45.458,45.458,0,0,1,8.35,3.6l2.57,1.431,2.387-1.719,15.284-11.011,9.174,9.238-11.207,15.69-1.63,2.281,1.267,2.5a47.023,47.023,0,0,1,2.768,6.7l.867,2.668,2.766.466,21.19,3.568-.051,13.1-20.713,3.418-2.88.475-.812,2.8a46.841,46.841,0,0,1-3.439,8.59l-1.318,2.531,1.67,2.315,11.674,16.181-9.318,9.384-16.1-11.663-2.358-1.708-2.561,1.387a44.758,44.758,0,0,1-7.3,3.149l-2.678.883-.444,2.785L83.811,144.12H70.82l-3.235-19.866-.468-2.883-2.8-.817a40.6,40.6,0,0,1-7.67-3.12l-2.52-1.339-2.329,1.65L35.026,129.63l-9.193-9.258,11.7-16.352,1.684-2.353-1.379-2.544a47.545,47.545,0,0,1-3.818-9.274L33.2,87.041l-2.889-.463-19.391-3.1-.1-13.308,19.839-3.249,2.782-.456.872-2.681a45.544,45.544,0,0,1,3.132-7.36l1.342-2.534-1.66-2.335L25.662,35.449l9.176-9.24L50.779,37.715l2.342,1.691,2.547-1.361a52.137,52.137,0,0,1,7.924-3.42l2.63-.884L66.682,31,70.143,10.37Zm3.914-4.628H66.234l-4.109,24.5A56.526,56.526,0,0,0,53.5,33.967L34.348,20.142,19.637,34.956,33.361,54.238a50.057,50.057,0,0,0-3.451,8.111L6.16,66.238l.164,21.186,23.261,3.725a52.007,52.007,0,0,0,4.191,10.179L19.8,120.859l14.71,14.813,19.973-14.151A45.124,45.124,0,0,0,63.029,125l3.862,23.751H87.765L91.628,124.5a49.367,49.367,0,0,0,8.053-3.476l19.313,13.986,14.874-14.979L119.9,100.668a51.353,51.353,0,0,0,3.78-9.435l24.572-4.055.082-20.938-25.065-4.22a51.447,51.447,0,0,0-3.041-7.366L133.7,35.785l-14.71-14.813L100.5,34.3a49.85,49.85,0,0,0-9.2-3.973Zm-9.862,51.45a19.669,19.669,0,0,1,14.046,5.862,20.193,20.193,0,0,1,0,28.382,19.759,19.759,0,0,1-27.943.149c-.05-.049-.1-.1-.149-.149a20.191,20.191,0,0,1,0-28.382,19.663,19.663,0,0,1,14.046-5.862m0-4.628a24.345,24.345,0,0,0-17.33,7.229,24.8,24.8,0,0,0,0,34.9,24.387,24.387,0,0,0,34.488.172c.058-.057.115-.114.172-.172a24.8,24.8,0,0,0,0-34.9A24.345,24.345,0,0,0,77.246,52.564Z"/>
</svg>
