<svg xmlns="http://www.w3.org/2000/svg" viewBox="0 0 175 175">
  <path style="fill: #00a0da" d="M87.5,35.576A15.222,15.222,0,1,0,102.721,50.8,15.238,15.238,0,0,0,87.5,35.576Zm0,28.443A13.222,13.222,0,1,1,100.721,50.8,13.236,13.236,0,0,1,87.5,64.019Zm0-54.266A48.718,48.718,0,0,0,38.838,58.416c0,56.563,42.456,102.964,44.264,104.912a6.018,6.018,0,0,0,4.4,1.919h.063a6.015,6.015,0,0,0,4.422-2.014c1.8-2.029,44.177-50.326,44.177-104.817A48.718,48.718,0,0,0,87.5,9.753Zm-.043,144.869C78.768,144.271,47.838,104.2,47.838,58.416a39.662,39.662,0,1,1,79.324,0C127.162,102.582,96.092,143.975,87.457,154.622Z"/>
</svg>