<svg xmlns="http://www.w3.org/2000/svg" viewBox="0 0 175 175">
  <path style="fill: #212526" d="M87.5,14.206A75.157,75.157,0,0,0,63.746,160.665c3.758.689,5.129-1.631,5.129-3.622,0-1.784-.065-6.51-.1-12.782-20.9,4.542-25.315-10.074-25.315-10.074-3.418-8.681-8.344-10.992-8.344-10.992-6.823-4.663.516-4.569.516-4.569,7.542.532,11.511,7.745,11.511,7.745,6.7,11.484,17.588,8.168,21.871,6.244.682-4.856,2.624-8.168,4.771-10.046-16.688-1.9-34.231-8.344-34.231-37.142a29.047,29.047,0,0,1,7.735-20.165c-.773-1.9-3.352-9.542.737-19.889,0,0,6.31-2.02,20.666,7.7a71.242,71.242,0,0,1,37.627,0c14.347-9.724,20.646-7.7,20.646-7.7,4.1,10.347,1.52,17.987.747,19.889a28.994,28.994,0,0,1,7.725,20.165c0,28.87-17.57,35.222-34.312,37.083,2.7,2.32,5.1,6.907,5.1,13.917,0,10.046-.092,18.152-.092,20.616,0,2.009,1.353,4.347,5.167,3.613A75.161,75.161,0,0,0,87.5,14.206Z"/>
</svg>
