<svg xmlns="http://www.w3.org/2000/svg" viewBox="0 0 175 175">
  <path style="fill: #212526" d="M87.5,25.017A64.071,64.071,0,0,0,67.25,149.873c3.2.588,4.372-1.39,4.372-3.088,0-1.521-.055-5.55-.086-10.9-17.821,3.872-21.581-8.588-21.581-8.588-2.913-7.4-7.113-9.371-7.113-9.371-5.817-3.975.44-3.9.44-3.9,6.429.453,9.813,6.6,9.813,6.6,5.715,9.79,14.994,6.963,18.644,5.323.583-4.14,2.237-6.964,4.068-8.565-14.226-1.617-29.182-7.113-29.182-31.663a24.763,24.763,0,0,1,6.594-17.191c-.658-1.621-2.857-8.135.628-16.955,0,0,5.379-1.723,17.618,6.568a60.71,60.71,0,0,1,32.078,0c12.23-8.291,17.6-6.568,17.6-6.568,3.5,8.82,1.3,15.334.637,16.955a24.72,24.72,0,0,1,6.585,17.191c0,24.611-14.978,30.027-29.251,31.613,2.3,1.978,4.35,5.888,4.35,11.864,0,8.565-.079,15.475-.079,17.575,0,1.713,1.154,3.706,4.405,3.081A64.075,64.075,0,0,0,87.5,25.017Z"/>
</svg>
