<svg xmlns="http://www.w3.org/2000/svg" viewBox="0 0 175 175">
  <path style="fill: #00a0da" d="M87.742,37.726c46.078,0,56.272,18.879,56.272,22.933A7.339,7.339,0,0,1,136.675,68H38.81a7.339,7.339,0,0,1-7.34-7.339c0-4.054,10.2-22.933,56.272-22.933M74.3,71.23a4.885,4.885,0,0,1,3.2,1.191l10.011,8.652,10.008-8.651a4.893,4.893,0,0,1,6.4,0l10.011,8.652,10.01-8.652a4.893,4.893,0,0,1,6.4,0l13.209,11.417a4.894,4.894,0,0,1-6.4,7.4l-10.008-8.652-10.01,8.652a4.893,4.893,0,0,1-6.4,0l-10.011-8.652L90.708,91.243a4.893,4.893,0,0,1-6.4,0L74.3,82.591,64.284,91.243a4.892,4.892,0,0,1-6.4,0L47.87,82.59,37.855,91.244a4.893,4.893,0,1,1-6.4-7.406L44.671,72.421a4.892,4.892,0,0,1,6.4,0l10.015,8.653L71.1,72.421a4.883,4.883,0,0,1,3.2-1.191m62.379,24.65a7.34,7.34,0,0,1,0,14.68H38.81a7.34,7.34,0,0,1,0-14.68h97.865m3.123,23.278c4.054,0,4.217,3.286,4.217,7.34s-3.286,10.776-7.34,10.776H38.81c-4.054,0-7.34-6.723-7.34-10.776s-.114-7.34,3.94-7.34H139.8M87.742,29.726c-21.174,0-37.887,3.76-49.675,11.175-10.774,6.777-14.6,14.879-14.6,19.758a15.346,15.346,0,0,0,7.4,13.118l-4.639,4.008A12.909,12.909,0,0,0,24.9,95.971c.081.094.164.187.248.278A15.315,15.315,0,0,0,27.7,113.791a11.026,11.026,0,0,0-3.2,4.511,21.18,21.18,0,0,0-1.033,7.876v.32c0,7.84,5.836,18.776,15.34,18.776h97.865c4.666,0,9.05-2.812,12.028-7.716a22.415,22.415,0,0,0,3.312-11.06,21.015,21.015,0,0,0-1.192-8.238,11.326,11.326,0,0,0-3.143-4.364,15.319,15.319,0,0,0,2.476-17.99,12.908,12.908,0,0,0-1.38-18.119l-4.443-3.841a15.347,15.347,0,0,0,7.681-13.287c0-4.879-3.822-12.981-14.6-19.758-11.787-7.415-28.5-11.175-49.675-11.175Z"/>
</svg>
