<svg xmlns="http://www.w3.org/2000/svg" viewBox="0 0 175 175">
  <path style="fill: #00a0da" d="M87.742,31.88c46.078,0,56.272,18.879,56.272,22.933a7.339,7.339,0,0,1-7.339,7.34H38.81a7.34,7.34,0,0,1-7.34-7.34c0-4.054,10.2-22.933,56.272-22.933M74.3,68.5a4.885,4.885,0,0,1,3.2,1.191l10.011,8.652L97.515,69.69a4.892,4.892,0,0,1,6.4,0l10.012,8.652,10.01-8.652a4.893,4.893,0,0,1,6.4,0l13.209,11.417a4.894,4.894,0,0,1-6.4,7.4l-10.008-8.652-10.01,8.652a4.893,4.893,0,0,1-6.4,0l-10.011-8.652L90.708,88.511a4.893,4.893,0,0,1-6.4,0L74.3,79.859,64.284,88.511a4.893,4.893,0,0,1-6.4,0L47.87,79.858,37.855,88.511a4.893,4.893,0,1,1-6.4-7.405L44.671,69.689a4.892,4.892,0,0,1,6.4,0l10.015,8.653L71.1,69.689A4.883,4.883,0,0,1,74.3,68.5m62.379,29.647a7.34,7.34,0,0,1,0,14.68H38.81a7.34,7.34,0,0,1,0-14.68h97.865M139.8,125c4.054,0,4.217,3.286,4.217,7.34s-3.286,10.777-7.34,10.777H38.81c-4.054,0-7.34-6.723-7.34-10.777S31.356,125,35.409,125H139.8M87.742,23.88c-21.174,0-37.887,3.76-49.675,11.175-10.774,6.777-14.6,14.879-14.6,19.758a15.365,15.365,0,0,0,9.68,14.258l-6.924,5.982a12.895,12.895,0,0,0,1.05,20.329,15.321,15.321,0,0,0,2.837,22.733,10.85,10.85,0,0,0-5.61,6.033,21.178,21.178,0,0,0-1.033,7.876v.319c0,7.841,5.836,18.777,15.34,18.777h97.865c4.666,0,9.05-2.813,12.028-7.716a22.416,22.416,0,0,0,3.312-11.061,21.02,21.02,0,0,0-1.192-8.238,11.138,11.138,0,0,0-5.556-5.918,15.323,15.323,0,0,0,2.752-23.017,12.9,12.9,0,0,0,.757-20.115L142,69.2a15.367,15.367,0,0,0,10.012-14.386c0-4.879-3.823-12.981-14.6-19.758C125.63,27.64,108.917,23.88,87.742,23.88Z"/>
</svg>
