<svg xmlns="http://www.w3.org/2000/svg" viewBox="0 0 236.353 166.264">
  <defs>
    <style>

      g#cloud,
      #right-pupil,
      #right-wink {
        animation-delay: 2s;
        animation-duration: 8s;
        animation-iteration-count: 1;
      }

      g#cloud {
        animation-name: happy-bounce;
        transform-origin: center center;
        animation-timing-function: ease-in-out;
      }
      g#cloud * {
        fill: #00a0da;
      }
      @keyframes happy-bounce {
        0%   { transform: rotate(0deg) translateX(0px) }
        10%  { transform: rotate(-6deg) translateX(-6px) }
        15%  { transform: rotate(7deg) translateX(7px) }
        20%  { transform: rotate(-7deg) translateX(-7px) }
        25%  { transform: rotate(8deg) translateX(8px) }
        30%  { transform: rotate(-8deg) translateX(-8px) }
        35%  { transform: rotate(12deg) translateX(12px) }
        40%  { transform: rotate(-13deg) translateX(-13px) }
        45%  { transform: rotate(13deg) translateX(15px) }
        50%  { transform: rotate(-12deg) translateX(-12px) }
        55%  { transform: rotate(9deg) translateX(9px) }
        60%  { transform: rotate(-7deg) translateX(-7px) }
        65%  { transform: rotate(5deg) translateX(5px) }
        70%  { transform: rotate(0deg) translateX(0px) }
        81%  { transform: rotate(0deg) translateX(0px) }
        83%  { transform: rotate(9deg) translateX(9px) }
        88%  { transform: rotate(0deg) translateX(0px) }
        100% { transform: rotate(0deg) translateX(0px) }
      }

      #right-wink {
        animation-name: show-right-wink;
        animation-timing-function: linear;
        opacity: 0;
      }

      @keyframes show-right-wink {
        0%   { opacity: 0; }
        82%  { opacity: 0; }
        83%  { opacity: 1; }
        84%  { opacity: 1; }
        86%  { opacity: 0; }
        100% { opacity: 0; }
      }

      #right-pupil {
        animation-name: hide-right-pupil;
        animation-timing-function: linear;
      }

      @keyframes hide-right-pupil {
        0%   { opacity: 1; }
        82%  { opacity: 1; }
        83%  { opacity: 0; }
        84%  { opacity: 0; }
        86%  { opacity: 1; }
        100% { opacity: 1; }
      }

    </style>
  </defs>
  <g id="cloud">
    <path id="fluff" d="M181,145.364H55.357A32.318,32.318,0,0,1,40.2,84.484,20.269,20.269,0,0,1,59.726,58.7a18.218,18.218,0,0,1,2.114.128,49.061,49.061,0,0,1,92.593-12.87,29.543,29.543,0,0,1,37.757,36.72A32.338,32.338,0,0,1,181,145.364ZM59.726,64.957A14.02,14.02,0,0,0,46.4,83.4l.559,1.69a3.128,3.128,0,0,1-1.571,3.779l-1.6.8a26.067,26.067,0,0,0,11.566,49.446H181a26.087,26.087,0,0,0,8.209-50.852l-1.976-.662a3.125,3.125,0,0,1-1.962-3.986l.681-1.972a23.3,23.3,0,0,0-30.243-29.494l-1.8.677a3.124,3.124,0,0,1-3.942-1.624l-.8-1.751A42.809,42.809,0,0,0,67.857,60.8l-.306,2.049a3.126,3.126,0,0,1-3.572,2.628l-2.054-.319A14.172,14.172,0,0,0,59.726,64.957Z"/>
    <path id="left-eye-lip" d="M118.176,113.9c-10.907,0-20.475-4.82-23.81-11.994a3.127,3.127,0,0,1,5.671-2.637c2.293,4.933,9.752,8.378,18.139,8.378s15.846-3.445,18.14-8.378a3.127,3.127,0,1,1,5.67,2.637C138.65,109.082,129.082,113.9,118.176,113.9Zm-12.17-35.933a4.233,4.233,0,1,0,4.233,4.233A4.233,4.233,0,0,0,106.006,77.969Z"/>
    <circle id="right-pupil" cx="130.347" cy="82.202" r="4.233"/>
    <path id="right-wink" d="M136.586,90.864a2.5,2.5,0,0,1-1.219-.318l-10.1-5.654a2.5,2.5,0,0,1-.028-4.346l10.5-6.058a2.5,2.5,0,1,1,2.5,4.33l-6.691,3.86,6.259,3.5a2.5,2.5,0,0,1-1.224,4.682Z"/>
  </g>
</svg>
