<svg xmlns="http://www.w3.org/2000/svg" viewBox="0 0 154.492 154.492">
  <defs>
    <style>
      path#balloon {
        fill: #02b6f7;
      }
      path#heart-right,
      path#heart-left {
        fill: #fc6d35;
        animation-direction: alternate;
        animation-duration: 1s;
        animation-iteration-count: infinite;
        animation-fill-mode: both;
        transform-origin: 78px 70px;
        animation-name: heart-pulse;
      }
      path#heart-right {
        animation-delay: 1s;
      }
      @keyframes heart-pulse {
        to   { transform: scale(1.2) }
      }
    </style>
  </defs>
  <path id="heart-left" d="M72.974,66.464a9.681,9.681,0,0,0-5.131-5.781,9.78,9.78,0,0,0-7.65-.293A8.836,8.836,0,0,0,55.482,64a11.639,11.639,0,0,0-1.2,2.677,11.87,11.87,0,0,0-2.627-1.315,8.835,8.835,0,0,0-5.932.177,9.824,9.824,0,0,0-5.75,5.025,9.661,9.661,0,0,0-.324,7.755,13.9,13.9,0,0,0,3.064,4.911,31.643,31.643,0,0,0,6.1,4.679c4.333,2.7,13.448,6.458,13.833,6.614a1.928,1.928,0,0,0,2.406-.831c.213-.375,5.238-9.248,6.863-14a30.714,30.714,0,0,0,1.789-7.5A14.028,14.028,0,0,0,72.974,66.464Z"/>
  <path id="heart-right" d="M80.785,72.194a30.714,30.714,0,0,0,1.789,7.5c1.625,4.749,6.65,13.622,6.863,14a1.928,1.928,0,0,0,2.406.831c.385-.156,9.5-3.91,13.833-6.614a31.643,31.643,0,0,0,6.1-4.679,13.9,13.9,0,0,0,3.064-4.911,9.661,9.661,0,0,0-.324-7.755,9.824,9.824,0,0,0-5.75-5.025,8.835,8.835,0,0,0-5.932-.177,11.87,11.87,0,0,0-2.627,1.315A11.639,11.639,0,0,0,99.01,64,8.836,8.836,0,0,0,94.3,60.39a9.78,9.78,0,0,0-7.65.293,9.681,9.681,0,0,0-5.131,5.781A14.028,14.028,0,0,0,80.785,72.194Z"/>
  <path id="balloon" d="M77.246,137.746c-38.185,0-69.25-27.14-69.25-60.5s31.065-60.5,69.25-60.5,69.25,27.14,69.25,60.5c0,14.811-6.141,28.963-17.329,40.028a18.925,18.925,0,0,0,14.74,11.034,2.5,2.5,0,0,1,1.128,4.506,24.026,24.026,0,0,1-4.849,2.723,23.69,23.69,0,0,1-27.169-6.489A76.666,76.666,0,0,1,77.246,137.746Zm0-116c-35.428,0-64.25,24.9-64.25,55.5s28.822,55.5,64.25,55.5a71.387,71.387,0,0,0,35.2-9.086,2.5,2.5,0,0,1,3.275.73,18.72,18.72,0,0,0,21.092,7.063,23.9,23.9,0,0,1-12.453-12.7l0-.005c-.157-.382-.291-.768-.423-1.154l-.054-.158a2.5,2.5,0,0,1,.652-2.637C135.472,104.524,141.5,91.188,141.5,77.246,141.5,46.643,112.674,21.746,77.246,21.746Z"/>
</svg>
