<svg xmlns="http://www.w3.org/2000/svg" viewBox="0 0 154.492 154.492">
  <defs>
    <style>
      path#balloon {
        fill: #00a0da;
      }
      path#heart-right,
			path#heart-left {
        fill: #ef4200;
        animation-direction: alternate;
        animation-duration: 1s;
        animation-iteration-count: infinite;
        transform-origin: center;
      }
      path#heart-right {
        animation-name: pulse-right;
      }
      path#heart-left {
        animation-name: pulse-left;
        transform-origin: 77px 83px;
      }
      @keyframes pulse-left {
        to   { transform: scale(0.5) }
      }
      @keyframes pulse-right {
        to   { transform: scale(1.25) }
      }
    </style>
  </defs>
  <path id="heart-left" d="M81.141,63.4a12.439,12.439,0,0,0-6.594-7.429,12.569,12.569,0,0,0-9.831-.377,11.354,11.354,0,0,0-6.055,4.637,14.993,14.993,0,0,0-1.544,3.44,15.261,15.261,0,0,0-3.376-1.69,11.353,11.353,0,0,0-7.623.228,12.629,12.629,0,0,0-7.39,6.458,12.415,12.415,0,0,0-.417,9.966,17.886,17.886,0,0,0,3.938,6.312,40.631,40.631,0,0,0,7.845,6.013c5.569,3.475,17.283,8.3,17.778,8.5a2.476,2.476,0,0,0,3.092-1.068c.274-.482,6.732-11.885,8.82-17.988a39.518,39.518,0,0,0,2.3-9.638A18.022,18.022,0,0,0,81.141,63.4Z"/>
  <path id="heart-right" d="M115.878,76.845a9.2,9.2,0,0,0-5.648-4.462,8.4,8.4,0,0,0-5.637.148,10.091,10.091,0,0,0-1.514.77,10.294,10.294,0,0,0-.854-1.472,8.4,8.4,0,0,0-4.648-3.192,9.253,9.253,0,0,0-7.15.643,9.089,9.089,0,0,0-4.551,5.713,12.768,12.768,0,0,0-.383,5.3,27.843,27.843,0,0,0,1.925,6.537A108.558,108.558,0,0,0,93.74,98.543a2.475,2.475,0,0,0,3.128.958c.341-.154,8.386-3.805,11.976-6.323a27.226,27.226,0,0,0,5.2-4.445,12.892,12.892,0,0,0,2.545-4.648A9.1,9.1,0,0,0,115.878,76.845Z"/>
  <path id="balloon" d="M77.246,137.746c-38.185,0-69.25-27.14-69.25-60.5s31.065-60.5,69.25-60.5,69.25,27.14,69.25,60.5c0,14.811-6.141,28.963-17.329,40.028a18.925,18.925,0,0,0,14.74,11.034,2.5,2.5,0,0,1,1.128,4.506,24.026,24.026,0,0,1-4.849,2.723,23.69,23.69,0,0,1-27.169-6.489A76.666,76.666,0,0,1,77.246,137.746Zm0-116c-35.428,0-64.25,24.9-64.25,55.5s28.822,55.5,64.25,55.5a71.387,71.387,0,0,0,35.2-9.086,2.5,2.5,0,0,1,3.275.73,18.72,18.72,0,0,0,21.092,7.063,23.9,23.9,0,0,1-12.453-12.7l0-.005c-.157-.382-.291-.768-.423-1.154l-.054-.158a2.5,2.5,0,0,1,.652-2.637C135.472,104.524,141.5,91.188,141.5,77.246,141.5,46.643,112.674,21.746,77.246,21.746Z"/>
</svg>
