<svg xmlns="http://www.w3.org/2000/svg" width="175" height="175" viewBox="0 0 175 175">
  <path style="fill: #00a0da" d="M113.017,153.088H38.784A16.633,16.633,0,0,1,22.17,136.475V62.242A16.632,16.632,0,0,1,38.784,45.629H86.205a4.956,4.956,0,1,1,0,9.912H38.784a6.709,6.709,0,0,0-6.7,6.7v74.233a6.709,6.709,0,0,0,6.7,6.7h74.233a6.708,6.708,0,0,0,6.7-6.7V89.053a4.956,4.956,0,1,1,9.912,0v47.422A16.632,16.632,0,0,1,113.017,153.088ZM147.874,21.912H105.129a4.956,4.956,0,0,0-3.5,8.461l18.2,18.2L70.843,97.565a4.956,4.956,0,0,0,7.008,7.009l48.987-48.988L144.37,73.118a4.957,4.957,0,0,0,8.46-3.5V26.868A4.956,4.956,0,0,0,147.874,21.912Z"/>
</svg>
