<svg xmlns="http://www.w3.org/2000/svg" id="jh-logo" viewBox="0 0 1624.781 902">
  <defs>
    <style>
      :root {
        --orange: #fc6d35;
        --blue: #02b6f7;
        --white: #e3e0db;
      }
      circle#earth {
        fill: var(--blue);
      }

      path#outer-stroke {
        fill: var(--white);
      }

      path#letter-j,
      path#letter-h {
        fill: var(--orange);
      }

      symbol#continents path {
        fill: white;
      }

      mask#continental-mask g {
        animation-name: rotate-earth;
        animation-iteration-count: infinite;
        animation-duration: 30s;
        animation-timing-function: linear;
      }

      @keyframes rotate-earth {
        from {
          transform: translateX(0%);
        }
        to {
          transform: translateX(-76.25%);
        }
      }
    </style>
  </defs>

  <symbol id="continents">
    <path d="M0,0V820H1252V0ZM767.78,204l10.49-27.14,26.22-15.52,14.3-7.27,6.2,8.73-13.83,12.6-19.07,6.3-5.24,35.39-7.15,17.94-20-7.76ZM637.62,100.77l10-1.45,5.25-6.3,32.42,2.91-8.11,18.9-23.36-1.94,19.07,34.42-15.73,2.91-9.54,10.67-13.83-2.43L629,133.25l-9.54-19.87ZM566.1,334.92l9.54-1.93,4.29,14.54c1,1.45,13.35,21.81,13.35,21.81l-6.2,12.12-17.16,2.43,4.29-21.33-4.29-8.73-8.59-12.6Zm-12.87,24.73,7.15-6.3,6.2,6.78-1,16.49-14.31-1ZM268.48,75l11.44-1.82L305,38.6l23.24-9.82,37.55,4,13.59,12-21.1,44.36L335,120l-12.88,42.54L305,168l-22.53-5.46,6.44-24,4.65-12.73L279.92,136l-10-9.45-9.66-31.27Zm62.93,178.16-9.3-10.55H304.23l-19.3-12.72-3.22-14.91,7.15-16.72,21.81-2.91,20,5.09,10.37,21.09,17.52,19.27L360,256l17.52,16.72-6.08,17.09L360.73,308,345,296.75l-18.6-6.18-.35-7.27,10.72-12Zm-59-66.54c-1.43-.36-2.5-14.18-2.5-14.18l12.87.73,20-.37,7.87,13.09-20.38,5.09S273.84,186.94,272.41,186.58ZM255.6,153.86l5,21.09-17.52.36L237.72,155Zm0,34.18L266,197.85l-5.72,13.45L252,223.67H241.3l-3.93-29.45Zm-60.07-29.46,29.68.37,7.15,18.9L218.77,188h-10l-25-9.09ZM165.14,204l2.5-13.45,19.67.73,13.58,13.81,13.23,1.82,13.23-10.18,3.58,19.64,5.36,16,8.23,6.91L239.87,252l-12.52-2.55-22.88,5.09L191.6,243.3l-5.72-14.91-15.74,1.46L163,219.3ZM460.85,614.89l-11.8,14.54L443,660.7l-23.25,10.18L397.21,707.6l-12.16,14.55-16.45,16L355,757.78l5.36,12.36-7.86,7.27-.72,15.27,10.37,16-12.87,6.54-21.46-17.81-4.29-28,5.37-22.9,7.15-43.27,7.15-50.18L326.4,636l-11.08-19.27L305,602.53l-.36-13.09L311,576l7.87-6.9-6-10.49-9-3.33-15.74-13.82-14.3-8.72-19.31-2.91L230.22,518.9l-3.58-15.27L203,476.72l15,29.09-9.3,5.09L188,464.36l-11.44-8-12.87-22.54V394.55l-10-21.81-27.17-34.91-23.6-12.36H84.32l-13.71,7.38L35,364l-10-8L48.2,335.2l-6.07-1.73L20,313.11l5.72-16-6.44-20.36,15-5.82-10-15.27,11.44-13.09,20-14.54,39.33,10.18,32.9,9.45,26.46-10.18,10,4.37,30.75,21.08,25.75-6.54,28.6,3.64,14.31-.73-1.43-19.64L261,218.58l10-3.64L282.42,252l8.58,10.9,7.87-23.27L311,249.12l-.72,14.54L306,274.57,295.3,276l-1.44,6.55-4.29,10.91-10,6.54-5.72,9.45-8.58,16,15.73,16,21.46,12.36L306,374.92l12.16.73.72-14.55L326.05,348l-4.29-14.54,1.43-9.45.71-17.45,13.59,2.18,12.16,10.18,9.29,15.27,8.59-12.36,10,24.72,19.31,16.72,2.86,18.91,7.15,5.82-1.43,13.09-17.88-1.46-.71-21.81-8.59,6.54-12.15-1.45-1.43,5.82,5.72,8-5,14.55-15,3.63v10.18l-17.16,5.82-2.15,22.54-19.31,16.73L318.9,492,311,496.36,299.59,476l-11.45-.73-14.3,1.45-12.16,1.46L256,489.81l3.58,21.82,20-2.18,4.29,12.36,12.88,5.09,7.86,16,16.4,5.36,14.35-11.54,14,6.9L374,546.53,385.05,560l16.45.36,8.58,13.45,1.07,6.91,15.38,2.18,15.73,8.36,20,8Zm5.37-334.14-12.16,2.18-7.15,21.45L443.69,324l-7.87,2.18-18.95-15.27-11.08-44-6.44-38.54L394,185.49,379,168l-21.81,1.09-7.87-13.45-2.5-17.09V124l13.94-19.63,32.18-50.18,15-7.63,19.31-5.82,31.11-28,34-.37,21.1,19.27,2.14,19.64L503.41,78.6,507,82.23,535.23,58.6l11.44,1.45,2.15,11.64L537.73,85.14l-17.87,55.27,5,15.63L517,222.58,510.2,247.3l-23.6,12Zm44.58,16.36-2.86-6.3.95-8.24.95-10.18,21.46.48,9.06,5.34-1.43,14.54-12.88,5.82Zm244.58,360.2-8.58,18.9-12.87-8.72,5.72-31,17.16-16L762.53,635Zm351.86,45.57-11,23.75-10,6.3-13.82-1.45-9.06-11.15-12.88-6.79-4.76-9.69-16.21-2.91-20,4.36-12.39,7.27-11.45,3.88-8.1-8.24L981.37,698l-8.1-15.52,2.86-20.84,9.06-4.85,16.68-12.12,14.78-11.63,8.59,1,8.58-7.76h15.25l5.25,14.06,6.67,1.94,9.06-19.39,5.72,9.21,6.68,13.57,13.82,13.09,13.35,19.88Zm-116.33-113-10,9.7s-12.4-.49-14.31-1-6.2-15-6.2-15S964.68,573,966.12,572s15.73-10.18,15.73-10.18l11.92,2.43L990,573Zm41.95,7.27.48-15.51,11.44,12.6,13.35-7.27,25.75,9.21,8.1,16.49,5.25,13.09L1069.1,619l-18.6-10.67Zm185.71-303.71-14.31-9.09-8.22,4,2.86,16.72-19,9.82-21.1,7.63-16.09,7.27-9.3,42.91L1122,381.46l-6.08-6.9.36-25.09,3.22-10.55,19.66-18.18,3.22-8.72-17.88.73-8.58,16.36L1103.43,332l-9.66-4.37-20.38,2.55-24,28,11.8,3.64L1071.6,360l5.36,24.73.72,20.72-9.3-1.09-3.22-22.54-15.73,32.72-11.8,5.09-10.73,7.27-.35,9.82,2.86,20-12.88,1.81L1014.75,444l-6.8-12.72L994,433.09l2.14,17.09,7.15,15.27v12l-9.65,20.36-18.6,7.64-21.81,20,6.8,10.91-6.44,14.91-10.37,1.45-11.8-13.09-5.72,6.55L932.5,560l7.87,10.18-.72,12,10.73,9.09L949,600.71l29.32,6.54.36,7.27-20-1.81-16.45-4-8.58-13.09-14.31-16-5.72-13.09,14.3-1.45-6.79-11.28,1.07-14.18-4.29-12-11.08,2.54-.36-10.54-10-13.46-11.8,3.28-21.1,21.81-4.29,15.27-3.93,8.37-6.08.72-7.87-10.18-7.51-34.18L822,509.81l-10.37-18.18-26.46,2.18,5,9.82-4.3,9.45-13.58,13.09L741.2,538.9l-1.79,8,22.17-6.18-10.37,28.36-26.82,22.17-4.29,17.46L729,625.8,726.18,640l-14.3,9.81-4.3,17.82-7.5,20.72-22.53,22.91-13.23-.37-16.09-6.18-8.94-24.36-5.72-16.72-6.08-20.73,5.36-26.9-15-21.82V579.62L615,569.08l-29.32-1.46-22.89,1.46-15-7.28-15-17.45-4.29-18.18-.36-25.81L543.81,476l19.31-18.91,16.81-2.91L596,446.91l24.67-.36,1.43,13.81,25.39,10.91,8.94-4.73,34,2.91,13.59.37,2.86-9.46,1.43-15.27-14.66-6.91-15.38,3.64-10.72,2.91-8.23-2.91-2.14-16.73-8.94,5.09-1.79,7.28-9.66-3.64-11.44-16.36-20-.36-9.66,9.45-16.8,18.91-16.81,2.18-6.08-12,2.15-16,6.43-2.91,13.59-3.63-1.79-10.91-1.78-13.09L591,384.37,600,372.74l13.59-9.09,2.15-10.55.71-17.45L600,329.83l4.29-21.45L618.9,298.2l12.52-25.81,12.87-23.64,21.82-15.27,23.6.37,13.23,11.27,18.23,16L733,273.48l15.74-13.09,36.83-13.09,3.07,0L784.94,237l6.2-4.36,16.42,14.19,6.58-9.71,10.73-33.45,9.66,9.82,16.09,1.81,8.22-13.45,18.95-6.91,3.58-9.81L900,172l19.67-11.64,27.53-8L965.4,159l8.94,11.27L969,185.49l-16.1,17.82,32.19-2.55,18.59-3.63,21.81,12.72,9.66,18.54,18.59-5.45L1068,208l28.24,13.82,40,20.72,22.17-4.36,26.11,2.91,32.89,24,13.23,17.81Z"/>
  </symbol>
  
  <mask id="continental-mask">
    <g>
      <use id="first-shift" x="880" y="30" href="#continents" />
      <use id="second-shift" x="2120" y="30" href="#continents" />
  </g>
  </mask>
  
  <circle id="earth" mask="url(#continental-mask)" cx="1236.978" cy="444.139" r="345.864"/>

  <path id="outer-stroke" d="M445.592,0q-.646,0-1.285.016l-.713.018-.709.087-6.734.825-.721.089-.709.159L328.883,24.958a47.96,47.96,0,0,0-31.649,23.96l-.588,1.087-.228.421-.477.883-.352.94-.061.162c-.229.532-.449,1.075-.658,1.621-.551,1.31-1.037,2.635-1.444,3.944-.155.5-.3.981-.424,1.462-.122.417-.244.857-.361,1.315l-.008.034-.008.033c-.217.864-.4,1.719-.568,2.6-.186.842-.341,1.657-.472,2.48-.1.667-.191,1.312-.265,1.977-.087.61-.159,1.206-.218,1.814-.047.479-.088,1-.12,1.53-.043.485-.079.972-.106,1.476l0,.043,0,.043-.04.825,0,.106,0,.106-.03.9,0,.1v.1l-.018.877,0,.092v.093l-.006.878v397.38l-236.985,3.54h-.066l-.066,0a58.54,58.54,0,0,0-10.529,1.194,54.328,54.328,0,0,0-10.781,3.449,53.447,53.447,0,0,0-23.01,19.551l-.554.705-.567,1.02-.259.464-.354.635-.272.462-.252.428-.5.862-.384.922-.017.042c-.212.439-.417.889-.615,1.343a46.619,46.619,0,0,0-1.863,4.355c-.146.4-.27.758-.383,1.1q-.163.462-.326.959l-.016.048-.015.048c-.356,1.113-.656,2.194-.913,3.288C1.7,519.847,1.423,521,1.2,522.154c-.1.514-.2,1.063-.284,1.626-.1.57-.2,1.148-.277,1.723-.109.765-.2,1.617-.27,2.509-.112.922-.192,1.8-.244,2.681l0,.073,0,.073-.043.876-.005.092,0,.093-.027.726-.005.117,0,.117-.016.766,0,.087v.087L0,534.614v68.059c0,3.733.054,7.488.167,11.477.026.9.061,1.778.1,2.656l.046,1.1c.082,2.216.181,4.786.327,7.376v.054c.018.438.038.9.065,1.348.051.848.111,1.629.176,2.407l.068.881c.183,2.7.34,4.784.511,6.736.124,1.451.267,2.906.412,4.361l.011.107.1,1.123c.077.854.161,1.756.258,2.648.084.764.175,1.491.27,2.217l.081.643.034.327c.061.617.132,1.284.214,1.943.085.681.176,1.313.268,1.944l.075.513c.253,1.929.55,4.031.883,6.249.228,1.518.449,2.983.687,4.434.391,2.39.81,4.7,1.135,6.459l.131.763c.124.728.262,1.523.415,2.309.085.444.179.889.277,1.333.471,2.37.973,4.667,1.446,6.8l.208.964c.164.773.343,1.6.533,2.419l.1.451.026.121.029.121c.691,2.939,1.435,5.894,2.274,9.032.056.227.126.5.2.772l.034.126c1.232,4.547,2.648,9.263,4.327,14.407.2.687.379,1.262.568,1.835l.01.03.011.031c.169.5.322.935.474,1.345,1.269,3.75,2.463,7.079,3.645,10.173.318.833.653,1.661.992,2.487l.133.327c.226.627.435,1.177.649,1.708s.463,1.118.75,1.756c1.765,4.3,3.589,8.462,5.426,12.377.191.437.381.853.574,1.263.284.594.577,1.177.906,1.8,2.342,4.831,4.561,9.12,6.777,13.106a248.356,248.356,0,0,0,20.5,31.246,226.661,226.661,0,0,0,24.531,26.991,219.507,219.507,0,0,0,28.2,22.311,226.253,226.253,0,0,0,31.346,17.4c3.163,1.445,6.422,2.843,9.676,4.151,3.235,1.3,6.553,2.544,9.861,3.7,3.289,1.147,6.655,2.236,10,3.235,34.855,12.96,62.072,20.744,142.546,33.741a258.665,258.665,0,0,0,29.736,1.7c2.486,0,5.016-.035,7.519-.1a301.019,301.019,0,0,0,37.88-3.516,307.232,307.232,0,0,0,36.871-8.046,280.146,280.146,0,0,0,34.382-12.26,265.8,265.8,0,0,0,60.812-36.648q4.962-3.977,9.782-8.222a47.311,47.311,0,0,0,5.02,1.222l54.6,10.086,54.571,10.081.779.144.791.059,7.035.528.771.057.772-.023a50.941,50.941,0,0,0,6.239-.58L774.373,837.2a49.226,49.226,0,0,0,10.367-2.785,48.17,48.17,0,0,0,9.908-5.277,48.8,48.8,0,0,0,8.187-7.154,51.313,51.313,0,0,0,4.824-6.163l45.6,6.982c.947.144,1.879.257,2.789.339,1.371.124,2.764.186,4.144.186a47.75,47.75,0,0,0,7.245-.559l199.434-30.06a387.894,387.894,0,1,0-.063-697.114L867.47,65.006a47.314,47.314,0,0,0-7.263-.564c-1.425,0-2.862.066-4.27.2-.895.083-1.807.2-2.708.336L807.7,71.969a51.375,51.375,0,0,0-4.867-6.222,49.18,49.18,0,0,0-8.135-7.118,48.139,48.139,0,0,0-9.846-5.274,49.1,49.1,0,0,0-10.452-2.83L661.056,32.892a50.738,50.738,0,0,0-6.351-.585l-.77-.022-.767.059-6.967.534-.783.06-.773.143-27.473,5.092q-.975-1.124-2-2.175A50.347,50.347,0,0,0,596.81,23.99,51.8,51.8,0,0,0,586.524,21.3L500.9,7.975,453.757.64A53.267,53.267,0,0,0,445.592,0Zm1164.5,444.139c0,206.064-167.047,373.111-373.109,373.111a371.517,371.517,0,0,1-167.722-39.756l-204.03,30.752a32.92,32.92,0,0,1-5.036.393c-.939,0-1.888-.042-2.822-.127-.629-.057-1.256-.133-1.887-.229L799.5,799.711c-.085.226-.172.45-.26.674a40.659,40.659,0,0,1-2.968,5.979,36.79,36.79,0,0,1-4.268,5.7,34.141,34.141,0,0,1-5.725,5.006,33.5,33.5,0,0,1-6.886,3.666,34.449,34.449,0,0,1-7.269,1.951L658.784,840.26a36.02,36.02,0,0,1-4.43.412l-7.035-.527-54.571-10.081L538.161,819.98a32.1,32.1,0,0,1-5.346-1.48,31.428,31.428,0,0,1-5.16-2.487l-.09-.055c-5.152,4.873-10.542,9.568-16.076,14a251.077,251.077,0,0,1-57.463,34.631A265.065,265.065,0,0,1,421.455,876.2a292.577,292.577,0,0,1-35.1,7.659,286.62,286.62,0,0,1-36.024,3.347q-3.575.1-7.116.1c-9.487,0-18.971-.17-28.039-1.6-58.528-9.211-97.292-18.558-149.408-36.254-3.1-1.053-6.194-2.243-9.222-3.46-3.045-1.224-6.094-2.532-9.058-3.886a211.354,211.354,0,0,1-29.3-16.262,204.644,204.644,0,0,1-26.309-20.814A212.026,212.026,0,0,1,68.939,779.8a233.624,233.624,0,0,1-19.291-29.4c-2.117-3.807-4.247-7.933-6.508-12.6-.256-.479-.5-.963-.737-1.452-.155-.329-.306-.663-.46-1.02-1.8-3.82-3.587-7.9-5.322-12.142-.22-.484-.432-.972-.624-1.45-.178-.441-.346-.891-.54-1.437l-.272-.672c-.294-.714-.584-1.43-.862-2.157-1.142-2.988-2.294-6.208-3.521-9.841-.127-.338-.252-.688-.394-1.11-.153-.462-.3-.933-.474-1.546-1.634-4.993-3-9.543-4.188-13.92l-.04-.148c-.066-.241-.128-.484-.15-.581-.81-3.023-1.521-5.843-2.2-8.72l-.119-.548c-.178-.767-.346-1.542-.507-2.3l-.218-1.01c-.491-2.217-.974-4.438-1.417-6.676-.082-.368-.162-.737-.236-1.119-.13-.671-.247-1.351-.359-2.01l-.146-.844c-.382-2.074-.755-4.152-1.1-6.254-.227-1.388-.438-2.787-.655-4.235-.307-2.04-.6-4.089-.858-6.075l-.092-.636c-.078-.531-.155-1.064-.226-1.627s-.126-1.1-.177-1.615l-.054-.516-.108-.863c-.082-.631-.162-1.262-.234-1.916-.087-.8-.162-1.613-.234-2.407l-.108-1.164-.017-.172c-.138-1.391-.275-2.782-.4-4.179-.19-2.185-.349-4.388-.493-6.522l-.076-.982c-.057-.691-.111-1.383-.155-2.11-.021-.357-.037-.718-.05-1.065l0-.093c-.138-2.431-.236-4.888-.326-7.322l-.049-1.185c-.035-.8-.069-1.607-.092-2.415-.108-3.856-.16-7.476-.16-11.065V534.751l.007-.815.017-.766.026-.725.044-.877c.042-.714.111-1.395.2-2.107.046-.687.113-1.352.2-1.94.064-.466.137-.9.214-1.294.062-.424.132-.842.212-1.249.216-1.1.462-2.008.65-2.653.183-.822.4-1.631.676-2.485.082-.251.165-.493.249-.723.084-.256.178-.53.287-.829a32.377,32.377,0,0,1,1.419-3.271c.19-.448.41-.937.665-1.449l.005-.013.177-.424.232-.4.366-.619.445-.8.259-.464.251-.321a39.229,39.229,0,0,1,9.66-10.411,38.043,38.043,0,0,1,7.307-4.244,39.505,39.505,0,0,1,7.858-2.51A43.546,43.546,0,0,1,54,492.478l251.458-3.757V76.965l.006-.878.017-.877.03-.9.039-.825c.022-.4.053-.786.09-1.172.021-.419.051-.826.088-1.2.047-.474.1-.928.172-1.372.053-.508.117-1.015.2-1.532.1-.64.222-1.246.362-1.859.092-.523.223-1.18.418-1.958.088-.343.179-.67.271-.976.093-.354.194-.709.308-1.074a28.909,28.909,0,0,1,1.057-2.845c.175-.472.384-1,.634-1.558l.036-.1.164-.437.222-.41.583-1.078a33.215,33.215,0,0,1,4.542-6.436,34.02,34.02,0,0,1,3.621-3.459,32.932,32.932,0,0,1,8.916-5.241,33.6,33.6,0,0,1,4.872-1.49L437.94,15.529l6.733-.825q.457-.012.919-.012a38.465,38.465,0,0,1,5.906.466l47.148,7.335L584.27,35.814a37.184,37.184,0,0,1,7.368,1.928,35.743,35.743,0,0,1,7.02,3.568,36.149,36.149,0,0,1,6,4.947,38.694,38.694,0,0,1,4.667,5.85q.7,1.08,1.337,2.216l36.665-6.8,6.967-.533a36.042,36.042,0,0,1,4.508.415L772.136,65.042a34.475,34.475,0,0,1,7.321,1.98,33.5,33.5,0,0,1,6.848,3.669,34.374,34.374,0,0,1,5.7,4.986,37.084,37.084,0,0,1,4.268,5.686l.083.138.028.045a40.581,40.581,0,0,1,2.874,5.854q.135.342.265.69L855.48,79.5c.606-.094,1.215-.17,1.821-.226.956-.089,1.934-.135,2.906-.135a32.831,32.831,0,0,1,5.035.394l203.934,31.3a371.52,371.52,0,0,1,167.8-39.8C1443.041,71.03,1610.088,238.077,1610.088,444.139Z"/>

  <path id="letter-j" d="M580.628,59.582a13.364,13.364,0,0,1,2.649.688,11.914,11.914,0,0,1,2.343,1.189,12.21,12.21,0,0,1,2.039,1.686,14.321,14.321,0,0,1,1.736,2.179,17.5,17.5,0,0,1,1.389,2.616,20.15,20.15,0,0,1,1,2.956,24.763,24.763,0,0,1,.6,3.3,31.681,31.681,0,0,1,.2,3.644v509.68q0,17.763-1.512,34.611-1.514,16.866-4.549,32.861a305.408,305.408,0,0,1-7.62,31.223A286.184,286.184,0,0,1,568.15,715.9a270.191,270.191,0,0,1-13.663,27.7,244.7,244.7,0,0,1-16.4,25.185,232.833,232.833,0,0,1-41.448,42.959,227.269,227.269,0,0,1-52.052,31.37,240.071,240.071,0,0,1-29.644,10.566,267.229,267.229,0,0,1-32.241,7.031,261.521,261.521,0,0,1-33.024,3.074,222.352,222.352,0,0,1-31.762-1.349,198.145,198.145,0,0,1-30.379-5.927,190.386,190.386,0,0,1-55.659-25.8,184.6,184.6,0,0,1-23.974-19.435A195.546,195.546,0,0,1,186.9,787.5a222.044,222.044,0,0,1-17.9-28.108,249.1,249.1,0,0,1-14.364-31.832,278.794,278.794,0,0,1-10.352-34.928,324.008,324.008,0,0,1-6.249-37.91,386.074,386.074,0,0,1-2.09-40.747V541.392a31.806,31.806,0,0,1,.278-4.3,23.931,23.931,0,0,1,.836-3.834,18.976,18.976,0,0,1,1.4-3.362,16.507,16.507,0,0,1,1.957-2.884,15.512,15.512,0,0,1,2.422-2.33,14.676,14.676,0,0,1,2.835-1.7,15.906,15.906,0,0,1,3.244-1.07,19.609,19.609,0,0,1,3.653-.427l164.123-.326a16.183,16.183,0,0,1,3.243.225,12.894,12.894,0,0,1,2.871.848,11.87,11.87,0,0,1,2.5,1.46,13.06,13.06,0,0,1,2.141,2.059,14.386,14.386,0,0,1,1.7,2.6,17.416,17.416,0,0,1,1.21,3.066,22.859,22.859,0,0,1,.726,3.533,31.394,31.394,0,0,1,.242,3.993v63.72a121.717,121.717,0,0,0,.876,14.948,91.95,91.95,0,0,0,2.629,13.382,72.42,72.42,0,0,0,4.377,11.8,61.311,61.311,0,0,0,6.113,10.192,45.577,45.577,0,0,0,7.55,8.075,37.557,37.557,0,0,0,8.767,5.456,38.389,38.389,0,0,0,9.957,2.86,48.077,48.077,0,0,0,11.118.29,50.993,50.993,0,0,0,11.081-2.148,46.76,46.76,0,0,0,9.968-4.468,50.33,50.33,0,0,0,8.872-6.772,62.144,62.144,0,0,0,7.793-9.062,71.7,71.7,0,0,0,6.337-10.8,77.491,77.491,0,0,0,4.512-12.014,90.8,90.8,0,0,0,2.7-13.24,112.67,112.67,0,0,0,.9-14.491V54.381c0-1.345.05-2.617.162-3.81a23.712,23.712,0,0,1,.535-3.34,14.453,14.453,0,0,1,.981-2.84,9.993,9.993,0,0,1,3.469-4.056A9.111,9.111,0,0,1,442.3,39.23a10.355,10.355,0,0,1,2.612-.47,14.065,14.065,0,0,1,2.932.164L495,46.26Z"/>
  
  <path id="letter-h" d="M863.869,444.139c0-131.536,68.074-247.164,170.906-313.6-.058-.026-.107-.072-.165-.1a7.434,7.434,0,0,0-1.77-.5L861.592,103.3a8.469,8.469,0,0,0-2.085-.08,6.453,6.453,0,0,0-1.853.446,6.3,6.3,0,0,0-1.617.97,7.876,7.876,0,0,0-1.38,1.492,10.709,10.709,0,0,0-1.116,1.975,14.455,14.455,0,0,0-.8,2.384,20.9,20.9,0,0,0-.476,2.8,30.538,30.538,0,0,0-.159,3.209V357.138a12.241,12.241,0,0,1-.236,2.557,5.284,5.284,0,0,1-.711,1.806,2.934,2.934,0,0,1-1.191,1.056,3.54,3.54,0,0,1-1.674.305l-65.546-2.431a4.025,4.025,0,0,1-1.771-.444,3.455,3.455,0,0,1-1.267-1.183,5.783,5.783,0,0,1-.763-1.923,12.347,12.347,0,0,1-.255-2.661V105.554a31.729,31.729,0,0,0-.172-3.366,24.725,24.725,0,0,0-.511-3.042,19.846,19.846,0,0,0-.846-2.721,16.573,16.573,0,0,0-1.176-2.4,13.141,13.141,0,0,0-1.5-2,10.584,10.584,0,0,0-1.748-1.537,9.744,9.744,0,0,0-2-1.073,10.543,10.543,0,0,0-2.262-.607L655.148,71.176a11.214,11.214,0,0,0-2.51-.122,8.276,8.276,0,0,0-2.223.457,7.561,7.561,0,0,0-1.939,1.035,8.748,8.748,0,0,0-1.653,1.611A11.421,11.421,0,0,0,645.5,76.3a15.016,15.016,0,0,0-.946,2.6,21.2,21.2,0,0,0-.568,3.053,30.716,30.716,0,0,0-.189,3.509V802.81a30.989,30.989,0,0,0,.189,3.527,21.211,21.211,0,0,0,.568,3.059,14.829,14.829,0,0,0,.946,2.593,11.129,11.129,0,0,0,1.325,2.129,8.677,8.677,0,0,0,1.653,1.624,7.466,7.466,0,0,0,1.939,1.034,8.272,8.272,0,0,0,2.223.451,11.286,11.286,0,0,0,2.51-.126l113.336-17.575a10.714,10.714,0,0,0,2.262-.6,9.664,9.664,0,0,0,2-1.065,10.427,10.427,0,0,0,1.748-1.534,12.956,12.956,0,0,0,1.5-2.008,16.123,16.123,0,0,0,1.176-2.385,19.589,19.589,0,0,0,.846-2.715,24.712,24.712,0,0,0,.511-3.047,31.981,31.981,0,0,0,.172-3.382V529.07a12.341,12.341,0,0,1,.255-2.661,5.754,5.754,0,0,1,.763-1.921,3.438,3.438,0,0,1,1.267-1.18,4.01,4.01,0,0,1,1.771-.44l65.546-2.252a3.552,3.552,0,0,1,1.674.309,2.952,2.952,0,0,1,1.191,1.06,5.3,5.3,0,0,1,.711,1.809,12.238,12.238,0,0,1,.236,2.558v245.54a30.776,30.776,0,0,0,.159,3.224,20.886,20.886,0,0,0,.476,2.8,14.3,14.3,0,0,0,.8,2.379,10.444,10.444,0,0,0,1.116,1.96,7.808,7.808,0,0,0,1.38,1.5,6.235,6.235,0,0,0,1.617.969,6.448,6.448,0,0,0,1.853.44,8.575,8.575,0,0,0,2.085-.083l171.248-26.556a7.475,7.475,0,0,0,1.77-.5c.114-.048.211-.133.321-.187C932.011,691.424,863.869,575.744,863.869,444.139Z"/>

</svg>