<svg xmlns="http://www.w3.org/2000/svg" id="jh-logo" viewBox="0 0 1624.781 902">
  <defs>
    <style>
      :root {
        --orange: #fc6d35;
        --blue: #02b6f7;
        --white: #e3e0db;
      }
      circle#earth {
        fill: var(--blue);
      }

      path#outer-stroke {
        fill: var(--white);
      }

      path#letter-j,
      path#letter-h {
        fill: var(--orange);
      }

      symbol#continents path {
        fill: white;
      }

      mask#continental-mask g {
        animation-name: rotate-earth;
        animation-iteration-count: infinite;
        animation-duration: 30s;
        animation-timing-function: linear;
      }

      @keyframes rotate-earth {
        from {
          transform: translateX(0%);
        }
        to {
          transform: translateX(-76.25%);
        }
      }
    </style>
  </defs>

  <symbol id="continents">
    <path d="M371.6,761.2h0c.71-.07,2,.57,1.76-.52C372.69,760.78,371.43,760.15,371.6,761.2Zm-58-373.59c-2.25,3.91,1.94,5.42,5.1,3.87,9.57-2,1.66-5.8-1.79-10.3-5.73,1.17-10.87,5.76-16.45,10.16C304.91,393.13,308,389.34,313.56,387.61Zm368.67,26.52c-1.73.53-3.35,1.8-2.75,3.49,1.87,5.91,9.18,8.61,13.58,3.3,8.86-7.21,16.71,8,26.06,1.59,9.32-4.08-7.56-10.77-10.48-14.6-4-2.89-7.56,2-11.64,2.28-1.37-6.32-5.49-14.63-12.1-5.55h0C685.11,408.3,681.31,410.23,682.23,414.13ZM366.4,763.77c-1.34,1.34-2.9,2.64-.11,3.34C366.29,765.85,367.38,764.3,366.4,763.77Zm649.38-313.26v.05c1,.16,2,.34,3.2.62C1018.28,449.14,1018.28,449.14,1015.78,450.51ZM711.7,401.58c-1.93-1.72-2-2.46.21-3.62-3-.62-7.14,3.6-10.55,4.71C704.91,406.54,709.36,405.59,711.7,401.58ZM172,351.14c.39.42.39,1.87,1.06,1.55C172.76,352.13,172.9,350.61,172,351.14Zm147.44,58.24c-3.7-5.82,2.07-9.35,3.73-14.16h0C308.85,393.76,318.24,431.47,319.44,409.38Zm35.17-9.94c-1.11,3.51-5.56,1.05-7.35,4.18C350.07,404,357.78,403.38,354.61,399.44ZM226.88,217.92l.26-.2h0l-.2.15ZM332.57,414.49c6.28,4.15,20.21-11.25,6.79-4.15C337.08,411,335.63,413.89,332.57,414.49ZM331,402c9,9.22-1.34-12.38,8.58-4.29,3.2-5.66-6.64-5-10.23-5,1,2.69-1.37,2-2.78,2.82h0C330.45,396.68,331.19,399.43,331,402Zm43-12.06c2-1.3,3.94-2.53,5.42-3.52C376.24,386.39,375.68,386.49,374,389.94Zm326.66,69.22c1.86-4.71,9.07-19.7-.71-16.81-2.6,3.34-3.94,3.52-7.38.95-3.63-3.66-6.37,4-10.56-.32-3.06,3.63-4.43,2-2.11-1.12-4-.95-1.72-4.33-5.27-5.84a3,3,0,0,1-1.23-1.55c1-1.48,3.48-2.25.1-3.1,1-5.38-2.32-7-7.14-6.4-6.61,8.94,6.09,7.42,1.16,13.3-3.06-1.65-3.83,2.57-2.56,4.71-3.52.49-7.67-3.9-6.72-6.47-2.32-4.54-6.93-7.74-6.51-13-2-7.6-13.79-8.76-15.23-17.48l-2.64,2c-2-9.14-6.75-.17,1.51,7.53,1.87,5.14,15,7.78,14,13.86-2.46-.53-6.72-3.69-3.87.91.25,4.16-5.73,6.51-6.5,11.15-3.38-1.23-7.46-1.16-9.32-5.34,2.6-3.45,10.76,2.18,11.53-3.41-1.86-9.54-15.16-10.24-17.69-19.24-4.47-8.55-10.27,5.1-16.07,1.72-4.68-2.88-6.58.81-6.13,5.28-3.69,2.35-7.28,4.15-9.14,8.3-.32,5.24-.18,6.72-5,10.41-3.13,4.78-9.88.24-12.31,5.77,2.46,3.83,6.12-.57,8.83,2.64a47.56,47.56,0,0,1,32.8-7.27c3.73-.74,6.23-1.87,9.75.42-1.58,3.48,1.69,7.42-2.39,11.29,6.43,4.93,14.49,3.38,19.69,9.5,14.21,8,6.16-1.72,15.2-5.38,9.85-.6,19.17,10.23,29.79,4.68,4.06-.77,9.55,4.78,12.12-1.69Zm-84.42-32.89h0c0-1.51-.39-3.34,2-3.34-3.17-6.12,4.5-11.11,2.5-2.85,5.59,7.57-3.13,21.5-4.5,6.19ZM830.8,235.17c-2.78,4.08,4.47,6.55,6.86,5.56C835.2,239.08,832.07,238.2,830.8,235.17ZM777,404.47c-4.78,8.79,7.32,11.36,8.48,2C782.09,399.05,785.15,399.68,777,404.47ZM751.59,470c-11.89-14.7-4.85,14.28,1.79,10.31,2.78,2.53-1.61,8.4,4.44,7.28,5.1,0,6.86-4.63,10.52-6.49C759.86,478.75,752.49,475,751.59,470Zm-46.18,20.61c8.05,13.26,6.68,24.06,22.54,34.43h0c-.28-11.46-7.31-19.38-13.26-27.5C714,485.37,688.1,457.47,705.41,490.61Zm41.43-58.4c-1.83,7.53,8.86,9.78,14.46,8.13,2.74-8.47-10.73-16.14,1.58-16.39h0c-2-3.48-3.2-4.25-5.24-.28-2.78-3.66-2.22-7.42-5.52-10.59-2.25-1.54-5-5.62.28-4.81.6-5,5.59-2.68,9.07-2.82a8,8,0,0,0-14.17-5c-4.47,4.19-10.27,5.14-5.91,12.49C741.39,421.27,753.59,424.94,746.84,432.21ZM634,359.49c2.28,6.05,8.93-.74,13.15-1.19,15.09,9.6,5.56-23,17.17-14.92.74,1.41,3,1.8,3.09-.17,1.23-5.07-3.06-6.33-6.61-3.48-1.93-12.1,15.58-6.16,23.81-12.49-8.61-6.79-17.3,6.08-24.94-1.94-3.87-2.42,1.27-7-1.68-10.41-4.08-10.27,14.87-16,11.74-25.71-5.8-5.7-14.38,2.64-9.28,8.37-4.12,6.75-13.12,9.74-14.39,18-2.14,6.61,6.79,11.57,3,16.25.66,2.22-1.09,2.71-2.15,3.52-4,3.8-3.38,10.48-5.31,15.37-3.59.32-4.43,0-6,4.92-1.72.11-4.92-2.25-4.47.81-3.22,1-5.47-.67-8.74,1.14h0C626.09,365.26,630.1,358.16,634,359.49ZM0,0V820H1252V0ZM1056,191c3.66,3.52,8.83,3.52,13.37,5.38h0C1070.36,210.8,1053.1,197.85,1056,191Zm-25-8.5c4.47,4.38,6.68,7.7,9.32.38,3.09,4.15,15.37,6.3,8.83,12.77v.07c-4.61,7-9.53,2.73-15.92,7C1022.76,204.8,1022.8,185.77,1031,182.5Zm3.47,24.84h0c3.65-.75,3.93-.49,3.51,3.91,14,1.49,9.18,16.21-2.6,5.49,1.54-3.31-.88-5.81-1-9.4ZM923.62,148.65c.88,10.31-12.8,4.84-17.83,10.95v.05h0v-.05C905.53,146.19,916.53,118.85,923.62,148.65Zm-35.45-44.22c5.8-7.49,7.81-1.23,11.68,4.41,1.09,3.57-2,7.3.46,11,4.6,4.18,9.53,6.64,7.24,13.93,1.9,16.1-8.12,14.31-17.59,5.24-.7-6.37-7.77-6.19-9.63-11.19C877.69,120.19,884.51,111.11,888.17,104.43ZM782.5,107.35c6.47,1.51,9.61-18.22,14-9.22,6.83,16.21-9,5.42-7.07,16.15-2,9.25-9.49-.45-16.07,8.55-10.62,2.85-4.5-9.27,2.82-7.64,2.11.28,1.65-3.2,2.32-4.78C778.66,108.16,780.6,107.74,782.5,107.35Zm-13.71-3.48c-1.06-6.93,2.5-10.52,7.25-15.37,5,8.3-3,13.61,0,19.9.87,2.26-5.88,4.37-8.06,4.26C760.66,111.39,760.84,103.13,768.79,103.87Zm-8.36,10.82a1.22,1.22,0,0,1,.27-.41,1.27,1.27,0,0,1,1.8,0h0C772.5,121,752.75,124,760.43,114.69ZM754,233.13c3.63-5.17,1.63-12.1,7.63-15.87,1.09-2.07-1-4.85,1.62-7.24,4-3.68,1.86-10.68,5.13-13.68,8.51-5.63,13-16.68,25.08-15.16,5-2,13.3-15.41,16.67-3.84-1,10.6-18.32,11.52-24.51,20-8,12.19-25,30.48-14.67,45C779.48,252.05,750.64,242.45,754,233.13Zm-14.78-126c8.52,10.29,7.21-2.25,14.39,4.29-2.06,3.49-5.35,6.23-3.73,10.7-4.89,3-12,1.76-10.83-4.82-9.8.07-5.29-6.79.12-10.13Zm6.69,156.17c-3.42-4.78-2-5.44.84-8,5.25,2.44,4.73,6.7-.89,8ZM625.6,130.56c2.11-4.69,10.37-3.69,14.56-1.69,1.65-4.14,2.32-6.92,7.24-4-1.3-6.23,2.92-7.63,7.57-10.63,2.35,5.28,4.15,6.26,8.23,1.94,21,2.94,17,17,1.44,22.94-7.25.14-15.41-13.47-12.66-1.34,9,5.33,8.33,13.47,15.47,20.33,6.44,4.61-5.84,14-11.11,8.23,4.82-3.72-1.54-22.3-4.54-13.72-2.22,8.8-4.51,17.56-6.51,26.42-4.11-2.39-16.6-16.64-8.76-24.48C626.33,152.56,624.89,139.28,625.6,130.56ZM576.92,336.09c5-.81,6.68,2.28,2.11,5.48,15.72-1.26-.84,7.74,4.4,10.1,4.57,2,6.08,9.07,8.4,13.47,2.15,4.05,8.23,5.88,2.43,10.62,4.08,6.93-15.16,3.66-17.83,7.36-9.61,1.33,10.09-8.2-3-8.59,6.9-3.87,2-3.34,3.59-8.58,2.36.2,5.84-.6,4.11-3.8-.91-2.95-3.48-2.64-5.69-3.34-1.27-.84.95-5.17-1.9-3.55-.57-1-.18-3.06-2.78-2.18,2.32-2.54,1-3.8,1.93-7.39-1.44-.81-3.48-1.16-3.09-3.52C574,343.34,572.9,336.05,576.92,336.09Zm-5.48.07c.95,2.71-.94,4.29-1.94,6.12C566.06,343.09,568.94,337.25,571.44,336.16Zm-10.08,24.62c4.14.67.71-3.69,3.94-4.89,8.65-2.85,8.34,5.45,7.25,10.9,2,7.29-12.56,13.93-14.56,5.67C565.65,370.56,554.85,362.47,561.36,360.78ZM309.36,85c7.1,1.48,5.41-2.15,8.83-6.26,10.2-6,14.48-18.43,26.48-20.72,8.68.44,16.68-.65,25.68-1C381.82,59.38,389.24,67.33,398,73.8c1.9,6.89-4.54,11-7.74,16.28-1.72,8.44-7.56,13.93-13.19,20.54-5.68,5.91-7,16.11-13.68,20.55-6.12,1.78-6.23,1.81-7.57,8-1.51,7.53,1.06,19.91-9.67,20.4.39,4.12-1.12,6.22-4.12,9.22,7.18,6.49,1.38,13.58-6.82,14.49-2.61-6-45.34,6.89-20.61-14.7-4.19-4-2.89-10.67,3.9-10-12.84-6.22,10.9-15.4,2-28.1-7.29-2.46-2.22-8.65-.78-14.46,7.16,5.21,15.69-2.57,22.16-7.21-9.83,1.2-19.23,3.31-29,3.45C302.25,107.31,302.89,93.28,309.36,85Zm78.51,184.54c2.56,4.29,11.18,7.45,9.18,13.12-9.32,15.58-6.93,11.77-17.06.77-4.36,7.88,7.1,9.32,7.17,15.94,8.85,21.59-17.23-.85-6.15,10.41,8.52,12.2-15.62-.78-17.48-4.72,0-4.71-6.48-4.81-9.54-7.1-2.85-.9-5.45,2.34-8.58,1-4.92-1.83-.81-7.21.92-10.51,3.65-.11,8.26,3,11-.6-4.57-3.77-.42-6.61,2.43-10.2,4.61-5.38-3.52-18.4-9.75-13.65,1.31-4.36,1.61-6.65-2.39-9.36h0c-4-8.28-5.55,4.94-11.25-.49-13-2.88-23.67-3.34-29.44-18.18-2.78-9.32,3.66-27.66,15.79-24.66,7.86.14-5.3,6.82-4,12.59.36,14.46.57-10.48,14.46-13.36,1.86,6.75,10.73-3.94,15.86,3.69,1.48,2.48,2.82,11.23-2.91,8-4.93.6-8,3.09-10.77-3.84-1.44,4,0,11.61,5.42,8.48,4.92-6.89,9.35.49,16.18-1.51,1.34,2.92.17,5.8.91,8.62,11.61,1.44,25.29,18.78,19.95,27.33-2.72,7.61,7.18,4.55,10.05,8.21Zm-38.6-2.44c4.81-2.15,8.82,4.6,4.6,7.66-7.28,5.08-8.51-2.83-4.6-7.68Zm-9.77,51.53c-2.16-.88-3.06-9.61,1.94-6.55a22.25,22.25,0,0,1-1.94,6.53Zm1.66,33.9c-4.6-.14-3.52-3.94-.6-5.66,2.44,1.81,1.16,3.69.6,5.64ZM326.58,303c-4.05,8.16-6,.21-11.5.43,3.2-3.47,3.65-6.83,3.2-11.47,2.22-16.64,12.31,6,19.77,9.39C335.37,310.16,330.52,298.1,326.58,303Zm6,6.2h0c-1.62,4-2.82,4.85-6.44,4.44,1-3.19,3.4-4.07,6.4-4.49ZM298.83,184.56c-2-4.72-7.18.21-9.68-3.84-8-14.21,3-8.19,10.13-3.76,9.89-.62,7.64,17.06,19.6,12.59,20.61-9.6,29.37,19.24,8.19,13.47-6.72,5-18.18,2.5-25.78-.14C296.22,197.92,303.22,189.9,298.83,184.56Zm-40-6.4c4.43-3.56,5.7,2,8.34,4.67,1.58-1.14,2.07-5.2,3.2-7.14,19.24-5.45,13.68,36.65.88,18.12C264.18,190.16,262.63,195.43,258.83,178.16Zm.4,19.87c.78-2.39,1.38-4.12,1.94-5.88,4.06,2.22,3.94,5.77-1.94,5.85Zm-1.87-31.1c-2.26-11.88,6.26-2.77,5.52,4.37C258.7,170.73,258,170.24,257.36,166.93Zm14.77,53.52c-1.37-3.9-3.23-11.11,3.17-10.9,2.57.92,4.82,1,7-.84,3.69,3.55,3.13,6.86-.21,9.78,5.73,2.93,8.08,13.38,2,17-5.59,4.61-7.73,3-10.73-3.39-3.09-3.31-6.54-3.27-7.38-9.18,1.48-2.47,3.69-2.47,6.15-2.47Zm11.55-58.09c4.91-4.32,23-4.5,12.91,5.31h0c-4.09-1.67-8.22-3.37-12.91-5.31Zm4.05,29.94c6.5-5.81,8.65,5.45,7.77,10.55h0c-6.23-2.75-13.77-3.29-7.77-10.55Zm3.69-78.77c3-4.08,2.57-8.72,3.49-13.47,10.28-2.71,4.09,15.16,15,15.16,10.94,2.15-1,15.48,10.65,15.34-1.83,18.72-24.58,42.28-25.34,8.27,2.43-9.12-10.58-15.83-3.8-25.3Zm-13.8,6.76c3.16,1.13,3.34,5.21,4.88,7.81h0c.74,5.07-11.11-1.23-4.88-7.81Zm-21,14.85c5.1-2.18,9.56,3.16,14.73,1.9,6.83,4.46,1.69,15.79,7.92,18.39-1.55-26.87,19.91.53,6.11,3-12.87,5.36-9.29-2.1-20.37-4-5.06-1.13-7.63-5.59-4.39-10.13-4.14-.86-8.44-6.16-4-9.16Zm-8.69,43.17c.46,5.51,9.33,5.75,9.33,11-.64,5.2-.95,11.57-7.78,10.65-7.53-3.87-14.35,13.5-20.86,2h0c11.46-8.58-15.34,1.2-9-10.71,3.27-8.34,4.29-15.15,14.35-9.15,4.12,2.5,3.55,11.26,9.85,9.15-.88-3.2.07-6.68-3.69-9.08,2.87-2.66,7-12.3,7.8-3.86Zm-31.45,14.81c-7-1.58-1-7,2.15-9.78,1.05,2.52-1.27,6.81-2.15,9.78ZM242,148.56c6.08.4,5.34,6-.22,6.83-3.62-.42-5.78-2.71-9.78-1.59C232.77,148.39,237.1,147.86,242,148.56Zm1.87,7.75c0,5.34-1.13,10.83-7.39,11.25-11-1.86.19-11.71,7.41-11.25Zm-12.74,5c-3,1.87-3.24,1.76-5.87-2.6,4.31-3.14,5.68-2.54,5.89,2.63Zm-18,5.88c6.61.8,8.23-6.58,13.4-.25-3.38,3-4.4,4.85-1.58,8.9-2.89,3.34-4.65,9.32-9.33,4.18-2.53,2.57-3.44,8.83-7.8,8.09-18.07,1-2.14-16.22,5.36-20.89Zm-15.69,41.6c7.67-5.34,14.6-3.94,22.51-2,.63,4.45,9.06,7.85,6.91,11.05l.18-.12.4-.3-.35.27.36-.24c3.76-.21,6,.08,6.17,5.14,3.55-5.59,6,1.23,10.23-2.22l5.63,3.52c1.82-5.41,3.71-14.6,11-9.6,4.31,3.55-3.49,8.72-1.69,13.3,3.23,5.62-.37,14.21,5.63,18,4.71,1.27,13.85,6.72,5.34,9.5,1.94,3.37-1.9,6.47-5.34,7-10.24-8-18.86,3.13-31.17,2.39-1.12-8.34-11.54-3.17-12.38-13.9,20.37-3.69,9-3.65-2.11-6.43-4.75-4.22,1.41-2.36-4.5-8.48,1-6.95,5.13-12.16,10.26-16.14-11.39,4.45-9.52,12.53-16.18,19.54-8.26,5.79-7.88-3.52-14.1-7.21,3-8,6-14.64,3.25-23ZM61.26,326.17c.67-2.15,4.82-.92,7-1.65C69.91,330.17,63.83,329,61.26,326.17Zm42.24,20.54c-4.75-3.83,3.27-7.21,5.56-10.59,3.17,5.38-1.69,7.81-5.56,10.59Zm66.62,19.14c-1.62-3.87.18-6.51,4.29-4.61.35,3.94-.39,8.23,2.71,11.75-4.18.14-4.89-4.58-7-7.14ZM481.24,591.34c-1.44,6.16-6.72,10.1-10.73,14.53-4.11,3.24-1.86,8.65-2.43,13.15,0,6.58-4.43,12.21-5.62,18.79-6.86,4.43-16.57,3.09-22.13,10.41-3.52,11.85-8.12,23.32-18.08,32-2.32,5-18-.07-10.94,4.32,5.88,19.67-15.47,8.23-16.07,20.83-1.37,7.24-13-1.55-7.49,7,9.07-1.44-3.31,6-2,9.18.25,2.25-2.88,5.1-5.27,5.31-7.36,5.63,9.7,7.71,2.39,13.51-4.79,1.62-4.68,6.16-7.39,9.53-4,2.82-1.12,6.47-.1,10.06.31,5.95.84,7.21,5.27,10.13,8.94,2,2.32,6.3-3.69,6.58-1,6.37-13.4-4.33-16.71-6.75-2.85-1.34-3.13-1.8-2.78-4.79-4.57-4.18-2.11-1.4.78-2.11-8.87-3.66-5.07-16.07-6.12-25.08,9.63-3.13-2.36-3.09.45-5.87,4.22-2.53-.6-14.81,6.93-11.61.42-3.09,2.5-5.73,1.27-9.35-2.68,8.16-6.19,10.23-3.8-.78,2.29-23.53,10.23-45.83,11.25-70.1,2.75-14.42-3.55-19.38-14.91-26.42-8.09-7.81-8.76-23-18.71-28.77-3.34-12,4.57-3.62,0-15.09,1.83-5,6.16-8.12,8.94-13,4.68-.64,1.76-6.86,2.32-10.24.42-4.61-8.79-13.15-6.86-4.08-4.4-.42-10.83-1.44-13.82-4.71-.43-1.41-1.34-2.68-3.45-2.18-1.79,1.26-3.76-10.34-9.92-11-11.71-.11-16.39-12.38-27.26-8.2-9.6-3.62-20.4-7.14-27.79-14.49-1.83-2.64,2-6.23-1.23-8.55-5.73-7.17-11.92-13.93-18.11-20.5-2.78-3.8-2.57-11.89-8.66-11.44-2.25,7.74,20.44,25.89,14.6,30.39-6.54-3.9-6.58-6.64-9.67-11.78-4.82-2.74-8.69-3.55-5-7.7-7.49-4.89-6.5-15.34-13.19-20.61-2.07-1.69-6.4-.29-7.07-3.87-1-2.54-4.75-3.94-4.08-7.28-.24-1.52-3.16-2.33-.56-3.94-4.57-2.89-6.44-8.62-5.84-14-1.09-10.63-.32-22.94-1-32.89-3.83-3-7.14-5.77-11.08-8.69,1.27-6.54-3.76-12.35-8.19-18.33,2.63-3.51-5-10.23-4-3.51-4.23-3.41-5.77-8.16-8.34-12.31-1.41,8-4.75-12.24-12-13-7.49-8-19.35-4.75-28-12-2.78-1.41-2.11,1.83-2.57,3.62-.49,3-4.57,2.36-6,5.07-7.7,7-5.55-3.31-5.8-7.74-1.72,2.11-.84,4.82-3.52,6.15C104.61,338.14,98.21,342,90,351c-9.67,6.05-34.22,15.83-10.52.77,6.58-1.82,13.83-9,12.77-16.39-2-.49-2-.49-3.45,1.8-1.93-1.48-3.09-3.45-6.22-2.54-6.65,3-1.13-8.89-6.12-5.62-6.3,3.13-7.74-7.18-11.47-10.87,2.71-9,7.63-13.61,16.5-15,1.37-2.92-.18-8.94-2.78-6.23-4,.35-13.89,1.09-15.06-3.58,2.26-2.61-.94-3.52-3.13-4.44,1.55-4.64,13.3-12.34,13.16-4.85,15.93-1-11.43-14.42-8.65-22,13-4.12,6.82-3.49,13.54-13.19,5-3,9.46-5.63,14.91-7.5,4.5-5.91,7.39-1,12.17,1.2,16.82,7.49,38.34,6,54.66,18.5,3.45-6.4,4.75-7.1,9.15-4.82,3.76-1.58,11-11.54,12.56-4.36,3.27-.84,2-4.54,4-6.23,4.47,2,6,6.34,7.88,11.22,8.58-15.65,1.16,8.45,8.9-4.25,6.26-1.3,10.55,5.63,16.28,7.53,5.39-.32,17.06,5,7.81,9.42,8.13,5,14.21-4.36,21.53,2.25,1.9-3.69-5.91-5.94,2.22-8.72,9.92-4.92,15.75,11.82,27.5,8.9,1.69-5,3.34-8.34-2.67-10.59,6-9.6,8.93-8.69,14.6,1.41-3.87,2.36-8.09,6.26-2.43,9.32,13.68-17.34-6.51-17.2-1.44-29.3,9.6-10.13-4.4-34.72,10.13-34.61,12.45.24,11,6.08,5.38,14.84-1.51,2.71-4.89,0-6.61,3.06,1.79,2.43,1,4.82-1.06,7,1.62,6.26,10.76,13.54,6.79,19.45-.11,3.38,4.4,6.65,6,10.06,9-12.52,3.52,10.1,10.13,11.72,6.86-10.7-1.83-28.32,12.56-19.81,12.24,9.64-1.06,9.39,3.9,16.85,5.31,5.24-2.5,9.57-6.26,12.59-3.31,2.47-4.75-3.37-8-1.68,1.72.95-5.35,20.92-9.15,19.1-4.75.52-5.17,3.72-5.28,8-4.15,1.27-5.27,3.76-8,6.93-10.13,18.54-.84,14.07,3.38,29.09,11.25-4.71,17,12.52,29.19,9.92,7,.6-1.83,13.54,6.4,12,1.8,4.15,0,2.64-3.34,1.41,2.67,6,9.67,9.25,9.6,1-6.26-13.86,3.7-11,5.77-20.4-1-5.56-.77-11-5.84-14.67,6.86-4.64,2.22-14.53,2.71-21.67.42-4,14.14-.67,16.25.28,4.93,2.89,4.72,7.5,10.66,8-.35,6.93-.74,12.6,5.94,16.5,14.92-10.8,3-24.69,20.3,7.14-4.78,5.73,5.14,9.18,8,12.35,1,1.3,4.5.63,3.37,3.37,2.32,2,6.86,3.2,5.84,6.93,2.64,6.3-4.85,15.13,3.13,17.8,2.29.78,7-.14,3.41,3.13.57,2.22,2.18.39,2.89.85-.53,3.94,1.86,6.75-.6,9.88-3.24,2.29-3.9-6.54-6.65-1.83-20.93-4.82-12.84,1.09-6.54-20-2-.36-4.19-.53-5.42,1.51-5.38,10.55-22.69-3.69-25.6,7.67,7.28-2.25,13.89,3.66,4.22,6.89,3.8-.88,3,2.29,3.23,5.38,2-3,4.4,2.29,8.8.85,1.61,1.65-5.88,2.25.28,3.3,2.74-10.55,9.18-2.11,1.83,3.13-4.79,2.15-10.42,3-14.11,7.46-6.26-3.31,3.06-7.56.78-8.83-5.25,4.29-20.69,5.88-15.27,15.58.28-.84.25-1,1.2-1.3,1.12,3.77-4.19,2.57-6.58,3.52.28,4.47-9.11,1.2-8.34,8.13-8.69,27.19,4.47,8-19.06,28.59-5.74,6.83,6.29,15.9.74,23.36-6.83,5.52-6.62-10.31-9.68-13.93-2-2.32-4.11-1.16-6.68-.49-.81-2.54-2.5-3.34-5-2.61-10.38-2-3.1,7-13.23,4.3-24.19-12.41-29,43.38-3.33,35.71,8.16-3.3,1.16-12.56,17.34-9.18.63,5.74-9.6,18.33-2.46,19,25.71-6.54,3.73,17.8,19,21.7,5.27-1.9,10.27-3.37,14.35,1.59,4.29-3.2,4.29-3.2,4.75-7.39,4,.74,18-10.1,12.38-.92,8.83-3.27.74-5.38,10.73.39,5.38,3.8,15.51-.17,22.58,1.16-.78,5.52,2,6.47,6.29,7.81,4.08,4.5,8.52,8.44,15.73,7.46,7.88.31,10.34,8,13.89,12.2,2.18,3.77-3.83,5-4,8.27,6.82-5,9.53.39,16.28,1,4.54,1.41,5,6.23,10.31,5.42,9.35-1.24,13.89,8.61,22.51,8.19C481.63,583.19,481.63,588.56,481.24,591.34ZM396,387.27c-4,1.07-5.73.17-8.58-4.3C391.26,382.62,393.73,384.56,396,387.27ZM374.5,527.08c-.33,1.48-1.46.11-2.36-.21C372.42,525.54,373.65,526.87,374.5,527.08Zm93.26-237.84c-1.69-.07-2.81.45-3,2.35-3.8,5.1.46,14-7.77,18.12,1.58,4.85-.32,22.3-7,18.22-12.06-5.88-18.78-13.62-21.91-27.26-4.54-3.73,0-10.48-5-14-2.43-4.82-.53-11.36-1-16.7.35-9.92,13.79-2.82,7-16-12.88,15.62-16.58-19.31-.88-9.63-4.86-12-13.26-.56-13.23-10.94.95-18.32-2.11-41.89-20.51-49.56-10-.56-15.65,7-23.77-3.2,5-5.52-12.52-9.78,3.09-13.89a8.5,8.5,0,0,1-5.27-7.07c-3.38.7-5.46-1.13-7.32-3.27-3.59-10.24,13.68-14.71,20.68-18.72,17.06-22.19-15.83-5.73-.45-26.38,4.36-3.87,6.15-13.19,13.36-9.32,4.29-4.25-.46-9,1-13.57,5.41-7,16.77-14,25.36-11.82,12.73,13.5,3.37-10.17,19.87-3.13,1.2-19.32,23.15-28.13,38.9-32.13,12.84,1.69,30.71.14,34.4,16C536.4,69.69,525,79.75,504.15,79.22c-1.41-.21-3.1-.67-4.75,1.23,8.62-.39,12.42-.1,11.26,9.46,4.88.11,4-3.73,4.25-7.35,4.75-1.09,9-3.48,8.65,3.27-1.38,7.27-9.47,11.25-10.31,19.58,8.09-1.51,11.47-7.59,15.3-13.47,6.65,5.91,6.61-5.2,12.52-4.18,10.27,1.9,17.13,10.13,8.79,17.8A86.79,86.79,0,0,0,529.36,156c-1.79,7.18,8.62,13.33,3,20.23-5-3.38-11.67-.71-8.16,5.52,8.13,1,6.79,13.65,4.26,19.31,7.17.63.63,8.26-4.12,8.69,4,1.54,2.64,4.29,2.68,7.1-12.56-.42-1.62,8.41-6,15.09-9.5-4.71,3.73,4.72,1.79,9.5,1.27,10.59-9.57,6.44-10.48-1.55-3.34,3.62-.67,8.06,3.62,8.48,13.4,4.54-15.33,19.31-22.86,20.36-9.81,5.13-11.26,22.12-25.33,20.51Zm67.3-91.35c-3.77,2.67-4.56-1.23-4.07-4.93,2.22,1.16,2.64,3.45,4,4.93ZM518.59,302.32c5.91-10.49-10.83-3.1,1.1-11.72-8.17,1.55-5.62-5.34-1.62-9.28,5-1.45,4.5,11.15,7.91,6.47-.32-3.34,2-2.89,4.22-3.62h0c7.16-.65,7.53-2.29,14.42-2.23-.73,5.88,6.9,8.62,1.52,14.88C534.7,307.17,531.22,303.32,518.59,302.32ZM738.05,649.56c-13.9,2.65-10.24-14-7.39-21.35-1.3-4.43-1.69-9.57,3.31-11.78,10.9-3.8,14.14-22.48,17.48-.81C743.36,624.06,746.88,642.1,738.05,649.56ZM848.19,547.27h0c-7,2-5-10.27-3.33-13.15C848.54,536.9,855.05,544.42,848.19,547.27Zm204.6,170.39c-2.43-12.38-7.07-10.17,5.1-9.92,8.3-1.74.17,17.38-5.1,9.92Zm11.67-22.36c-4,.57-6.26,3.7-9.42,5.88-5.81-6-17.8,2.11-21.32-9.43-3.51-10.83-13.93,7.81-6.75-14.11-10.59,16.47-4.43-2.63-16.43-4.53-8-1.83-20.68-.64-26.48,5.84-3.66,4.29-11.82-.21-15.59,4.64-3.76,3.2-9.49,2-12.1-2.57-.1-3.73,3.1-7,.6-10.83-2.54-8.18-7.7-15.18-6.54-23.18-2.36-19.07,23.29-11.15,27.58-23.67-1.06-3.68,3.13-5.89,4.53-1.88,0-2.13-.52-4.17,2.29-4,2.43-3.87,9-11.15,12.73-4.75,2.89,2.11,6.23-4.08,6.65-6.72,10-3.65,7.21-2.56,18.43-1.12,8.76.18-9.25,8.65,4.33,12.91,17.11,13.93,7.91-11,16.11-17.52,3.55,15,8.87,8,10.87,21.74,1,7.28,9.74,7.91,11.11,14.91,4.54.6,11.47,12.42,12.63,17.31,3,14.56-8.16,29.33-13.23,41.08ZM972.91,506c2.14-.38,4.25,2.08,6.4-.14.8,5.35-2.89,9.92-1.2,14.78h0c1.91.33,3.8.62,5.91,1-.32,6,9,2.85,4.68,11.33-.21,3.09-9.29,3.52-5.1,6.36,12.31-11.22,11.92,13.79,1.55,8.13-2.86-2.29-1.66-7-6.86-2.53-3.34-2.61.91-3.91,2.49-5.74a6.13,6.13,0,0,1-2.14-5.13c-3-1.34-.77-3.8-1.65-5.66,3.79-.67,7.21,2.56,7.56,5.1,1.09-4.37,2.07-8.52-4.64-8.52-5.93-3.34-.32,1.69-4.93,3.1-2.81-3-2.81-3-1.65-7.88C966.4,518.82,973.75,510.94,972.91,506Zm5.2-22.26c-1.58,4.22-3,8-4.5,12.1-3.69-5.84-1.61-11.56,4.5-12.09Zm59.73-70.11c2.85-6.58-1.09-6.54,2.67-10.16,4.36,6,7.11,7.38,14.11,6.75-2.11,1.16-5.46,3.83-.81,3.41-2.64,2.82-7.25,2.08-8.52,6.51-3.48-1.51-4.71-3.17-8.54-1.51,2.87,1.79,3,5.27,3.87,8.61,2.07,6.52-4.4,10.77-3.52,17.52-1.48,6-6.4,4.43-11.93,5.1-2.39,6.65-5.9.85-8.61,5-3.63-1.53-3.06,3.87-6.66,1.42-1,2.78-1.39,5.91-4.39,7.28-3.27.88-2.28-3.66-2-5.66-3.24-.57-2.54-4.47-.18-5.39,6.26-8.26,17.76-4.46,20.26-14.56,10.1,4.36,8.3-12,14-16.32-6.33,2.53-5.87-7.14.25-8Zm30.92,184.85c-8.31,6.65-15.52-10.55-21.43-7.42-2.21,1-.7,4.89-4.53,4.78-2.64-.14-5.49.07-7.35-2.43-3.17-2.78-13.34,1.06-5.49-5.38.24-9.85-28.53-8-17.31-14.56-10.29.32-5.59-11.36,2.55-5.84,1.86,1.65.6,5.52,3.1,7,3,2.11,5.36-2.36,8-3.59,10.41-.77,22.58,4.79,29.51,12.7,2.71,1.13,3.94,2.74,2.5,5.06,3.13,3.74,6.08,7.51,10.45,9.69ZM1004.11,575c5.17,6.9-4.61,2.78-8.24,1.62C997.91,574.39,1002.24,573.44,1004.11,575Zm-5.56-5.77c-8.27-2-1.19-15,.81-6.61-1.23,2.38-3,3.86-.81,6.6Zm-3.84,23.6c-3.9,4.75-19.31,10-8.68,1.13-1.46-.88-1.25-1.41-1-3.23h0c5.56,3.19,3.33,1.22,7.57-1.48-1.54,4.07,3,1.5,2.11,3.57Zm-31-1.44a54.71,54.71,0,0,0,20.17.18h0c-1,5.3-37.52,4.31-20.2-.19Zm10.68,6c-1.49,2.32-3.18,2-6-1.4,2.49-.67,4.24.18,6,1.44Zm7.82-28.49h0V569h0c-9.78,3.33,2,10.07-1.27,15-2.18,0-2.29-2.88-4.78-2.57a4.11,4.11,0,0,0-2.82-4.46c-.56,3.09,1.94,8.09-3.3,6.93-2-11.54-3.19-6.93,1-19.63,4.36-5.39,10.69,2.07,15.93-5,.77,1.12,1.37,1.93,2,2.81-3,7.32-14.21-.74-17.27,5.59,1.84,4.76,9.83-4,10.43,1.32Zm-11.63-38.52c1.54,4.9-4.82,6.53-7.58,9.89v0h0c.38-2.42,4.11-7.14,7.55-9.88ZM965,547.22c6.79,3.56.56,3.42-.28,8.27,6.58,14.57,2.92,1-3.73,16.57.3,3.81-5.58,11.4-8,5-2.55-.49-7.35,2-8.55-1.26-5.86,1.93-3.26-3.59-6-6.27-2.57-1.19-2.53-3.62-2.78-5.8h0c-.07-3.94,3.66-5.14,6.83-3.43.67-1.68.7-3.9,2.92-3.9,4.15-.35,5.14-5.7,9.46-5.88C958.28,547.86,961.41,540.61,965,547.22Zm143.1-209.88h0c.17-2.67,1.86-3.51,3.38-5.06,2.34,3.06-1,3.23-3.42,5.06Zm25.14,389.74c-1.31,6-7.11,7.64-12,9.64,2.5-3.69,1.41-4.08-2.32-5.24h0c-1.58-8.41,11.11-12.84,14.71-19.41,3.94-3.06,1.93-7,8.19-4.44,7,4.26-7.53,15-8.62,19.45Zm18.52-23.65c-1.16,2.76-2.32,6.1-4.79,8-5.27-3,.6-3.87-5.27-10.06,6-6.55-.55-13.19-4-19.55h0c5.45,1.19,6.84,5,7.66,9.4,1.86-2.15,3.23-1.09,3.62.85,1,3.83,3.26,3.16,6.26,1.65,4,4.78-1,6.89-3.52,9.71ZM1185,288.92h0c-1.3,21.7-13.51-3.2-18,1.23-2.25-1-2.25-1-4.5-6.3-1,4.89-.28,14.32-9,12.74,15.06,22.83,2.64,11.75-7.74,18.5-6.36,2.14-13.12,13.93-17.73,11.68-4-3.42-8.33-.78-10.27,3.51-1.51-5.59-3.23.5-7-1.19-3.76.56-2.42,8-6.54,10.13,3.8,1.83,5.31,3.06,2.29,6.65,2.74,2.14,2.92,3.2,1.4,6-7.77-2.19,1.83,9.6-6.75,8.89-2.43.64-2.46.6-2.57,3.06,1.13,4.54-5.59,3.87-5.59,8.8-3.48,7.31-6.75,7.81-7.28-.67-4.08-14.28-3.17-28.07,8.44-35.46,3.31-7.14,10.84-11.29,14.6-16.81,1.23-4.92,2.57-14.31-1.06-2.14-5,2.18-12.48,12.38-10.44.14-6.62-3.7-22,11-13.76,15.51-20.47,3.55-6.71,1.19-19.83-2.78-3.13,6.19-16-.74-21.67,4.57-7.11,7.81-13.65,16.11-21.63,23,1.09,1.69,2.39.32,3.76.63.49,1.45,1.27,2.89,3.38,2.08-.25,5.94,4.32-3.06,7.42,1,2.11,4.3,7.6,5.28,6.19-.77,5.59,3.84,6,20.16,7.32,26.87-10.87-3.27-1.17,9.89-2.68,13.83-12,1.16-2.88-2.61-5.56-15.55-1-35.46-2.77,22.37-26.27,31-10.24-5.14-8.62,7.7-16.71,11-4.85,4.61,7.92,10.7,4.12,17.84-2.64,4.5-11.65,8.72-10,0,.42-2.74-2-4.68.78-7.14-11.82.28,1.4-17.62-16.57-4.71-2.15-1.94,2.11-6.09,1.69-9.57-5.67,2.78-8,6.09-12.38,9.36,3,8.19,8.86,1.37,15.47,4.46-.17,5.07-6.72,1-8.12,6.3-6.51,5.45,12.38,15.9,2.64,20.65,11.81,1.23-11.89,28.63-18.22,27.79-29,7.52-3.35,6.29-18.3,15.19-7.91-3.59,1.41-5.94.18-10.62-5-1.65-14.28,4.15-10.69,9.25,10.66,10.48,15.3,20.72.74,29.4-6.79,7.11-3.84-2.6-10-4.22-2.85-3.44-5.91-5.31-8.62-7.77-2.46,2.18-5.21,8.86-3.17,12,4.19,7.42,13.86,11.19,12.6,20.75.66,2.53,3.94,6.51-1,5.42-.53,1.83,1.44,1.44,2.14,2.57-.74,3.83,2.53,2.64,4,6.79,2.29-2.89,4.43-.43,5.52,1.65-10.62,18.68,14.64,8.48,23.43,16.28,14.46,9.19-24.2,1.06-28.81-2.07,1.51-5.28-12.13-8.27-13.82-15.44-5.07-8.94-12.77-15.76-17.91-23.78,9.64-3.13,12.91,8.72,20.79,11-6.36-5.45-3.51-14.91-11.25-19.38,0-8,2.25-16.35-1.94-24.06-.77-7.35-9.07,6.3-11.43-2,3.8-9.25-6.82-13.15-8.83-20.92-3.94,6.08-11.61.52-13.86,5.9-10.62,11.75-22.61,15.13-22,32.4-11.57,28.42-23.32-24.2-23.81-35-2.92,7-8.76,1.86-11.51-2.11,7.25-2-7.42-3.66-6.71-10-3.56-.14-6.48-.57-9.61-.5-4.74.82-14.13,0-22.75-2.2-.38,8.17,18.21,7.91,7.21,17.29-3.27,5.7-6.76,10.56-13.79,13.93-1.9.92-4.82.78-6.23,2.32,0,2.08-1.62,2.26-3,2.61-11.54,3.3-44.39,17.27-10.8,13.08,15.12-6.72,9.6,2.18,5.56,11.86-9.37,22.67-46.16,29.59-29.44,58.19,4.22,15.76-5.17,19.27-15.69,27.47-5.63,7.81,8,16.53-7.88,21.7.1,13-13.47,28.92-25.82,31.77-6.51-3-13.54,3.76-19,.31-3.09-.1-5.24-4.82-2.46-8-4.33-11.33-13-21.11-13.19-33.91-21.11-34.61,13.72-30.29-11.61-62.26C616,571,620.72,564.33,621,555.15c-3.45,1.44-4.86-.11-1.9-2.82-15.2,3.13-8.23-4.53-17.73-5.69-4.92-.29-9.29,1.61-13.61,3.65-5.84,1.73-12-2.81-17.69,1.48-13,2.53-25.58-18.36-32.47-26.06.14-4.29-2.25-6.58,1.23-9.92,3.87-8-5-16.5-.28-23.85,4.22-4.5,5.84-10.62,9.81-15.27,2.5-4.57,10-2.81,11.5-9-.35-5.38-.24-10.87,5.74-14,8.23-3.73,8.55-16.81-2.71-12.94.6-4.61-2.32-8.06-.88-12.56,2.32-5.42-3.73-12.73,2.92-15.51,4.4-2.15,9.43,3,13.68.49,8.55,1.34,7.49-2.67,8.48-10-1.79-5.38-5.45-8.58-11-9.21-2.71-4.33,6.3-7.85,7-3.8,5.07-.74-2.53-11.19,6.69-3.48,1.37-2.71,1.37-2.71,5.45-4.36.63-1.9.49-4.47,3-4.75,5.24.28,7.53-15.62,9.6-6.4,1.59-1.73-.49-3.38.49-4.86,3.56-.91,6.09-3.23,9.61-2.28.91-7.81-7.11-20.48,6.89-22-1,4.46,3.1,8.26-2.07,11,12.06,2.08,5.27-9.81,3.48-16.74-1.83-7.88-15.3,14.14-17.31-2.32-3-2-3.13-2.57-1.65-5.84-6.44-10.45,4.12-16.89,10.2-23.5,1.27-2,1.27-2,3.66-1.83,6.79-11.25,12.38-22.79,18-34.72-2.64,1-5.28,2-7.88,3.1-.92-3.27,6.93-3.66,4.29-7.46,4.92-3.83,5.28-6.89,9.11-1.61-2.57-5.42,4-6.69,5.28-11.4,9.46-1.09,15.3-5.88,21.84-10.94.32,9.71,8-3,17.76,7.81-4.64,4.92-4.46,7.49,2.78,4.47,8.23,8.51,28.81,11.25,29.16,27.08-4,10.87-17,3.94-24.87,1.93,7.6,5.39,1,19.67,13.33,20.37-6.64-9.6-4.92-12.35,8-6.33-4.08-6.09.7-8.83,5.34-12.84,3.91.42,11.86,1.86,6.9-4.71-2.18-4.51,1.09-9.68-3.13-14,5.87-.21,10.06,1.62,12,7.31-1.4,1.62-4.78.43-4.89,3.17,3,5.45,8.66,8.55,8.83-1.94,7.74-3.06,18-16.49,21.21-5.13,3.31-3.76,10.06-1.69,14.25-6.12.21,5.84,1.55,1.69,5.1.28,0-6.75-12.17-8.9-5.45-14.63,3.37,3.27,6,6.93,10.9,7.7,4.64.74,18.85,13.75,19.1,10-7.63-12.81-3.94-6.65-5.42-18.22-3.9-5.42,3.59-7.92,4.61-12.67,2.78-5.7,1.27-16.07,9.25-16.81,3.34,3.41-.77,7.1,5,8.79.49,6.76-3.06,11.72.18,18.22-1.62,13.72,7.35,27.79-6.4,37.32,8.23,7.14,12.8-12.31,11.22-19.06-7.74-4.57,1.37-14.11-3.31-20.19-4.12-6.61,8.27-10.17,3.45-16.89-3.1-9.53,8.12,2.08,4.89,7.92,4.53-.21,2.63-10.13,7.31-4.75,5.6.39,10.34,9.18,12.84,6-3.62-5.63-7-9.74-7.42-17.31,32-6.33,10.76-3.41,25.61-21.56,4.18-4,11.39-3.62,14.52-8.93,2.43-3.17,7.64-.88,10.77-3.73,3.13-1.55,3.51-.74,3.41,2.92,7.63-1.13,3.59-8.06,11.64-6.65,0-9.18,9.64-22.62,17.38-12.13-13.12,8.75,11,.91,1.4,12.06,10.28-8.3,28.5,3.76,21.5,18.4-6.34,8.12-15.38,14.49-21.57,21.77,1.52.39,11.54,0,8.34-5.45,2.11-6.72,6.33.74,10.8.56.53-4-2.25-4.78-5-6.4,2.32-3.62,2.88-3.76,7-2-1.44,3.87-.31,6.61,1.48,10.41,7.53-4.43,14.35-2.29,16.78,4.26,7.81,3.06,12.7,3.58,11.5-6,34.16,1.83,13.19,16.18,25.85,30.46,4.72-4.68,2.82-16.46,9.33-6.83,5.31-2.28,11.64-.87,18.46-1.54-3.83-11.79,1-6,3.24-12.56,10.27.81,18.85,4.71,28.74,6.65-1.45,9.14,8.47,5.31,9.28,12.73,7.85-3,27.26-2.46,22.16,9.88,5.73,4.79,15.55-.07,22.72,3.77,2.29-3.7,4.37-6.58,8.73-3.52-2.18,5.49-6.9,3.8,1,8.55,4.43-1.23-.78-7.32,1.4-11.15,17.87-.46,32.5,9.49,44.15,22.05a5.85,5.85,0,0,0,5.8,3.38C1189.77,275.22,1197.47,287.81,1185,288.92ZM931.75,573.44h0c3.19-.16,4.24,3.7.81,3.45C930.94,576.33,931.75,574.89,931.75,573.44Z"/>
  </symbol>
  
  <mask id="continental-mask">
    <g>
      <use id="first-shift" x="880" y="30" href="#continents" />
      <use id="second-shift" x="2120" y="30" href="#continents" />
  </g>
  </mask>
  
  <circle id="earth" mask="url(#continental-mask)" cx="1236.978" cy="444.139" r="345.864"/>

  <path id="outer-stroke" d="M445.592,0q-.646,0-1.285.016l-.713.018-.709.087-6.734.825-.721.089-.709.159L328.883,24.958a47.96,47.96,0,0,0-31.649,23.96l-.588,1.087-.228.421-.477.883-.352.94-.061.162c-.229.532-.449,1.075-.658,1.621-.551,1.31-1.037,2.635-1.444,3.944-.155.5-.3.981-.424,1.462-.122.417-.244.857-.361,1.315l-.008.034-.008.033c-.217.864-.4,1.719-.568,2.6-.186.842-.341,1.657-.472,2.48-.1.667-.191,1.312-.265,1.977-.087.61-.159,1.206-.218,1.814-.047.479-.088,1-.12,1.53-.043.485-.079.972-.106,1.476l0,.043,0,.043-.04.825,0,.106,0,.106-.03.9,0,.1v.1l-.018.877,0,.092v.093l-.006.878v397.38l-236.985,3.54h-.066l-.066,0a58.54,58.54,0,0,0-10.529,1.194,54.328,54.328,0,0,0-10.781,3.449,53.447,53.447,0,0,0-23.01,19.551l-.554.705-.567,1.02-.259.464-.354.635-.272.462-.252.428-.5.862-.384.922-.017.042c-.212.439-.417.889-.615,1.343a46.619,46.619,0,0,0-1.863,4.355c-.146.4-.27.758-.383,1.1q-.163.462-.326.959l-.016.048-.015.048c-.356,1.113-.656,2.194-.913,3.288C1.7,519.847,1.423,521,1.2,522.154c-.1.514-.2,1.063-.284,1.626-.1.57-.2,1.148-.277,1.723-.109.765-.2,1.617-.27,2.509-.112.922-.192,1.8-.244,2.681l0,.073,0,.073-.043.876-.005.092,0,.093-.027.726-.005.117,0,.117-.016.766,0,.087v.087L0,534.614v68.059c0,3.733.054,7.488.167,11.477.026.9.061,1.778.1,2.656l.046,1.1c.082,2.216.181,4.786.327,7.376v.054c.018.438.038.9.065,1.348.051.848.111,1.629.176,2.407l.068.881c.183,2.7.34,4.784.511,6.736.124,1.451.267,2.906.412,4.361l.011.107.1,1.123c.077.854.161,1.756.258,2.648.084.764.175,1.491.27,2.217l.081.643.034.327c.061.617.132,1.284.214,1.943.085.681.176,1.313.268,1.944l.075.513c.253,1.929.55,4.031.883,6.249.228,1.518.449,2.983.687,4.434.391,2.39.81,4.7,1.135,6.459l.131.763c.124.728.262,1.523.415,2.309.085.444.179.889.277,1.333.471,2.37.973,4.667,1.446,6.8l.208.964c.164.773.343,1.6.533,2.419l.1.451.026.121.029.121c.691,2.939,1.435,5.894,2.274,9.032.056.227.126.5.2.772l.034.126c1.232,4.547,2.648,9.263,4.327,14.407.2.687.379,1.262.568,1.835l.01.03.011.031c.169.5.322.935.474,1.345,1.269,3.75,2.463,7.079,3.645,10.173.318.833.653,1.661.992,2.487l.133.327c.226.627.435,1.177.649,1.708s.463,1.118.75,1.756c1.765,4.3,3.589,8.462,5.426,12.377.191.437.381.853.574,1.263.284.594.577,1.177.906,1.8,2.342,4.831,4.561,9.12,6.777,13.106a248.356,248.356,0,0,0,20.5,31.246,226.661,226.661,0,0,0,24.531,26.991,219.507,219.507,0,0,0,28.2,22.311,226.253,226.253,0,0,0,31.346,17.4c3.163,1.445,6.422,2.843,9.676,4.151,3.235,1.3,6.553,2.544,9.861,3.7,3.289,1.147,6.655,2.236,10,3.235,34.855,12.96,62.072,20.744,142.546,33.741a258.665,258.665,0,0,0,29.736,1.7c2.486,0,5.016-.035,7.519-.1a301.019,301.019,0,0,0,37.88-3.516,307.232,307.232,0,0,0,36.871-8.046,280.146,280.146,0,0,0,34.382-12.26,265.8,265.8,0,0,0,60.812-36.648q4.962-3.977,9.782-8.222a47.311,47.311,0,0,0,5.02,1.222l54.6,10.086,54.571,10.081.779.144.791.059,7.035.528.771.057.772-.023a50.941,50.941,0,0,0,6.239-.58L774.373,837.2a49.226,49.226,0,0,0,10.367-2.785,48.17,48.17,0,0,0,9.908-5.277,48.8,48.8,0,0,0,8.187-7.154,51.313,51.313,0,0,0,4.824-6.163l45.6,6.982c.947.144,1.879.257,2.789.339,1.371.124,2.764.186,4.144.186a47.75,47.75,0,0,0,7.245-.559l199.434-30.06a387.894,387.894,0,1,0-.063-697.114L867.47,65.006a47.314,47.314,0,0,0-7.263-.564c-1.425,0-2.862.066-4.27.2-.895.083-1.807.2-2.708.336L807.7,71.969a51.375,51.375,0,0,0-4.867-6.222,49.18,49.18,0,0,0-8.135-7.118,48.139,48.139,0,0,0-9.846-5.274,49.1,49.1,0,0,0-10.452-2.83L661.056,32.892a50.738,50.738,0,0,0-6.351-.585l-.77-.022-.767.059-6.967.534-.783.06-.773.143-27.473,5.092q-.975-1.124-2-2.175A50.347,50.347,0,0,0,596.81,23.99,51.8,51.8,0,0,0,586.524,21.3L500.9,7.975,453.757.64A53.267,53.267,0,0,0,445.592,0Zm1164.5,444.139c0,206.064-167.047,373.111-373.109,373.111a371.517,371.517,0,0,1-167.722-39.756l-204.03,30.752a32.92,32.92,0,0,1-5.036.393c-.939,0-1.888-.042-2.822-.127-.629-.057-1.256-.133-1.887-.229L799.5,799.711c-.085.226-.172.45-.26.674a40.659,40.659,0,0,1-2.968,5.979,36.79,36.79,0,0,1-4.268,5.7,34.141,34.141,0,0,1-5.725,5.006,33.5,33.5,0,0,1-6.886,3.666,34.449,34.449,0,0,1-7.269,1.951L658.784,840.26a36.02,36.02,0,0,1-4.43.412l-7.035-.527-54.571-10.081L538.161,819.98a32.1,32.1,0,0,1-5.346-1.48,31.428,31.428,0,0,1-5.16-2.487l-.09-.055c-5.152,4.873-10.542,9.568-16.076,14a251.077,251.077,0,0,1-57.463,34.631A265.065,265.065,0,0,1,421.455,876.2a292.577,292.577,0,0,1-35.1,7.659,286.62,286.62,0,0,1-36.024,3.347q-3.575.1-7.116.1c-9.487,0-18.971-.17-28.039-1.6-58.528-9.211-97.292-18.558-149.408-36.254-3.1-1.053-6.194-2.243-9.222-3.46-3.045-1.224-6.094-2.532-9.058-3.886a211.354,211.354,0,0,1-29.3-16.262,204.644,204.644,0,0,1-26.309-20.814A212.026,212.026,0,0,1,68.939,779.8a233.624,233.624,0,0,1-19.291-29.4c-2.117-3.807-4.247-7.933-6.508-12.6-.256-.479-.5-.963-.737-1.452-.155-.329-.306-.663-.46-1.02-1.8-3.82-3.587-7.9-5.322-12.142-.22-.484-.432-.972-.624-1.45-.178-.441-.346-.891-.54-1.437l-.272-.672c-.294-.714-.584-1.43-.862-2.157-1.142-2.988-2.294-6.208-3.521-9.841-.127-.338-.252-.688-.394-1.11-.153-.462-.3-.933-.474-1.546-1.634-4.993-3-9.543-4.188-13.92l-.04-.148c-.066-.241-.128-.484-.15-.581-.81-3.023-1.521-5.843-2.2-8.72l-.119-.548c-.178-.767-.346-1.542-.507-2.3l-.218-1.01c-.491-2.217-.974-4.438-1.417-6.676-.082-.368-.162-.737-.236-1.119-.13-.671-.247-1.351-.359-2.01l-.146-.844c-.382-2.074-.755-4.152-1.1-6.254-.227-1.388-.438-2.787-.655-4.235-.307-2.04-.6-4.089-.858-6.075l-.092-.636c-.078-.531-.155-1.064-.226-1.627s-.126-1.1-.177-1.615l-.054-.516-.108-.863c-.082-.631-.162-1.262-.234-1.916-.087-.8-.162-1.613-.234-2.407l-.108-1.164-.017-.172c-.138-1.391-.275-2.782-.4-4.179-.19-2.185-.349-4.388-.493-6.522l-.076-.982c-.057-.691-.111-1.383-.155-2.11-.021-.357-.037-.718-.05-1.065l0-.093c-.138-2.431-.236-4.888-.326-7.322l-.049-1.185c-.035-.8-.069-1.607-.092-2.415-.108-3.856-.16-7.476-.16-11.065V534.751l.007-.815.017-.766.026-.725.044-.877c.042-.714.111-1.395.2-2.107.046-.687.113-1.352.2-1.94.064-.466.137-.9.214-1.294.062-.424.132-.842.212-1.249.216-1.1.462-2.008.65-2.653.183-.822.4-1.631.676-2.485.082-.251.165-.493.249-.723.084-.256.178-.53.287-.829a32.377,32.377,0,0,1,1.419-3.271c.19-.448.41-.937.665-1.449l.005-.013.177-.424.232-.4.366-.619.445-.8.259-.464.251-.321a39.229,39.229,0,0,1,9.66-10.411,38.043,38.043,0,0,1,7.307-4.244,39.505,39.505,0,0,1,7.858-2.51A43.546,43.546,0,0,1,54,492.478l251.458-3.757V76.965l.006-.878.017-.877.03-.9.039-.825c.022-.4.053-.786.09-1.172.021-.419.051-.826.088-1.2.047-.474.1-.928.172-1.372.053-.508.117-1.015.2-1.532.1-.64.222-1.246.362-1.859.092-.523.223-1.18.418-1.958.088-.343.179-.67.271-.976.093-.354.194-.709.308-1.074a28.909,28.909,0,0,1,1.057-2.845c.175-.472.384-1,.634-1.558l.036-.1.164-.437.222-.41.583-1.078a33.215,33.215,0,0,1,4.542-6.436,34.02,34.02,0,0,1,3.621-3.459,32.932,32.932,0,0,1,8.916-5.241,33.6,33.6,0,0,1,4.872-1.49L437.94,15.529l6.733-.825q.457-.012.919-.012a38.465,38.465,0,0,1,5.906.466l47.148,7.335L584.27,35.814a37.184,37.184,0,0,1,7.368,1.928,35.743,35.743,0,0,1,7.02,3.568,36.149,36.149,0,0,1,6,4.947,38.694,38.694,0,0,1,4.667,5.85q.7,1.08,1.337,2.216l36.665-6.8,6.967-.533a36.042,36.042,0,0,1,4.508.415L772.136,65.042a34.475,34.475,0,0,1,7.321,1.98,33.5,33.5,0,0,1,6.848,3.669,34.374,34.374,0,0,1,5.7,4.986,37.084,37.084,0,0,1,4.268,5.686l.083.138.028.045a40.581,40.581,0,0,1,2.874,5.854q.135.342.265.69L855.48,79.5c.606-.094,1.215-.17,1.821-.226.956-.089,1.934-.135,2.906-.135a32.831,32.831,0,0,1,5.035.394l203.934,31.3a371.52,371.52,0,0,1,167.8-39.8C1443.041,71.03,1610.088,238.077,1610.088,444.139Z"/>

  <path id="letter-j" d="M580.628,59.582a13.364,13.364,0,0,1,2.649.688,11.914,11.914,0,0,1,2.343,1.189,12.21,12.21,0,0,1,2.039,1.686,14.321,14.321,0,0,1,1.736,2.179,17.5,17.5,0,0,1,1.389,2.616,20.15,20.15,0,0,1,1,2.956,24.763,24.763,0,0,1,.6,3.3,31.681,31.681,0,0,1,.2,3.644v509.68q0,17.763-1.512,34.611-1.514,16.866-4.549,32.861a305.408,305.408,0,0,1-7.62,31.223A286.184,286.184,0,0,1,568.15,715.9a270.191,270.191,0,0,1-13.663,27.7,244.7,244.7,0,0,1-16.4,25.185,232.833,232.833,0,0,1-41.448,42.959,227.269,227.269,0,0,1-52.052,31.37,240.071,240.071,0,0,1-29.644,10.566,267.229,267.229,0,0,1-32.241,7.031,261.521,261.521,0,0,1-33.024,3.074,222.352,222.352,0,0,1-31.762-1.349,198.145,198.145,0,0,1-30.379-5.927,190.386,190.386,0,0,1-55.659-25.8,184.6,184.6,0,0,1-23.974-19.435A195.546,195.546,0,0,1,186.9,787.5a222.044,222.044,0,0,1-17.9-28.108,249.1,249.1,0,0,1-14.364-31.832,278.794,278.794,0,0,1-10.352-34.928,324.008,324.008,0,0,1-6.249-37.91,386.074,386.074,0,0,1-2.09-40.747V541.392a31.806,31.806,0,0,1,.278-4.3,23.931,23.931,0,0,1,.836-3.834,18.976,18.976,0,0,1,1.4-3.362,16.507,16.507,0,0,1,1.957-2.884,15.512,15.512,0,0,1,2.422-2.33,14.676,14.676,0,0,1,2.835-1.7,15.906,15.906,0,0,1,3.244-1.07,19.609,19.609,0,0,1,3.653-.427l164.123-.326a16.183,16.183,0,0,1,3.243.225,12.894,12.894,0,0,1,2.871.848,11.87,11.87,0,0,1,2.5,1.46,13.06,13.06,0,0,1,2.141,2.059,14.386,14.386,0,0,1,1.7,2.6,17.416,17.416,0,0,1,1.21,3.066,22.859,22.859,0,0,1,.726,3.533,31.394,31.394,0,0,1,.242,3.993v63.72a121.717,121.717,0,0,0,.876,14.948,91.95,91.95,0,0,0,2.629,13.382,72.42,72.42,0,0,0,4.377,11.8,61.311,61.311,0,0,0,6.113,10.192,45.577,45.577,0,0,0,7.55,8.075,37.557,37.557,0,0,0,8.767,5.456,38.389,38.389,0,0,0,9.957,2.86,48.077,48.077,0,0,0,11.118.29,50.993,50.993,0,0,0,11.081-2.148,46.76,46.76,0,0,0,9.968-4.468,50.33,50.33,0,0,0,8.872-6.772,62.144,62.144,0,0,0,7.793-9.062,71.7,71.7,0,0,0,6.337-10.8,77.491,77.491,0,0,0,4.512-12.014,90.8,90.8,0,0,0,2.7-13.24,112.67,112.67,0,0,0,.9-14.491V54.381c0-1.345.05-2.617.162-3.81a23.712,23.712,0,0,1,.535-3.34,14.453,14.453,0,0,1,.981-2.84,9.993,9.993,0,0,1,3.469-4.056A9.111,9.111,0,0,1,442.3,39.23a10.355,10.355,0,0,1,2.612-.47,14.065,14.065,0,0,1,2.932.164L495,46.26Z"/>
  
  <path id="letter-h" d="M863.869,444.139c0-131.536,68.074-247.164,170.906-313.6-.058-.026-.107-.072-.165-.1a7.434,7.434,0,0,0-1.77-.5L861.592,103.3a8.469,8.469,0,0,0-2.085-.08,6.453,6.453,0,0,0-1.853.446,6.3,6.3,0,0,0-1.617.97,7.876,7.876,0,0,0-1.38,1.492,10.709,10.709,0,0,0-1.116,1.975,14.455,14.455,0,0,0-.8,2.384,20.9,20.9,0,0,0-.476,2.8,30.538,30.538,0,0,0-.159,3.209V357.138a12.241,12.241,0,0,1-.236,2.557,5.284,5.284,0,0,1-.711,1.806,2.934,2.934,0,0,1-1.191,1.056,3.54,3.54,0,0,1-1.674.305l-65.546-2.431a4.025,4.025,0,0,1-1.771-.444,3.455,3.455,0,0,1-1.267-1.183,5.783,5.783,0,0,1-.763-1.923,12.347,12.347,0,0,1-.255-2.661V105.554a31.729,31.729,0,0,0-.172-3.366,24.725,24.725,0,0,0-.511-3.042,19.846,19.846,0,0,0-.846-2.721,16.573,16.573,0,0,0-1.176-2.4,13.141,13.141,0,0,0-1.5-2,10.584,10.584,0,0,0-1.748-1.537,9.744,9.744,0,0,0-2-1.073,10.543,10.543,0,0,0-2.262-.607L655.148,71.176a11.214,11.214,0,0,0-2.51-.122,8.276,8.276,0,0,0-2.223.457,7.561,7.561,0,0,0-1.939,1.035,8.748,8.748,0,0,0-1.653,1.611A11.421,11.421,0,0,0,645.5,76.3a15.016,15.016,0,0,0-.946,2.6,21.2,21.2,0,0,0-.568,3.053,30.716,30.716,0,0,0-.189,3.509V802.81a30.989,30.989,0,0,0,.189,3.527,21.211,21.211,0,0,0,.568,3.059,14.829,14.829,0,0,0,.946,2.593,11.129,11.129,0,0,0,1.325,2.129,8.677,8.677,0,0,0,1.653,1.624,7.466,7.466,0,0,0,1.939,1.034,8.272,8.272,0,0,0,2.223.451,11.286,11.286,0,0,0,2.51-.126l113.336-17.575a10.714,10.714,0,0,0,2.262-.6,9.664,9.664,0,0,0,2-1.065,10.427,10.427,0,0,0,1.748-1.534,12.956,12.956,0,0,0,1.5-2.008,16.123,16.123,0,0,0,1.176-2.385,19.589,19.589,0,0,0,.846-2.715,24.712,24.712,0,0,0,.511-3.047,31.981,31.981,0,0,0,.172-3.382V529.07a12.341,12.341,0,0,1,.255-2.661,5.754,5.754,0,0,1,.763-1.921,3.438,3.438,0,0,1,1.267-1.18,4.01,4.01,0,0,1,1.771-.44l65.546-2.252a3.552,3.552,0,0,1,1.674.309,2.952,2.952,0,0,1,1.191,1.06,5.3,5.3,0,0,1,.711,1.809,12.238,12.238,0,0,1,.236,2.558v245.54a30.776,30.776,0,0,0,.159,3.224,20.886,20.886,0,0,0,.476,2.8,14.3,14.3,0,0,0,.8,2.379,10.444,10.444,0,0,0,1.116,1.96,7.808,7.808,0,0,0,1.38,1.5,6.235,6.235,0,0,0,1.617.969,6.448,6.448,0,0,0,1.853.44,8.575,8.575,0,0,0,2.085-.083l171.248-26.556a7.475,7.475,0,0,0,1.77-.5c.114-.048.211-.133.321-.187C932.011,691.424,863.869,575.744,863.869,444.139Z"/>

</svg>