<svg xmlns="http://www.w3.org/2000/svg" viewBox="0 0 154.492 154.492">
  <path d="M150.091,149.77l-.243-23.966-39.59-39.591a44.079,44.079,0,0,0,3.335-16.869v-.032a44.342,44.342,0,0,0-88.683.029c0,.025,0,.049,0,.074A44.3,44.3,0,0,0,85.1,110.77v19.916h19.292V150ZM87.561,102.1l-2.2,1.058A37.484,37.484,0,0,1,31.739,69.33v-.023a37.484,37.484,0,0,1,74.968.024v.048a37.514,37.514,0,0,1-3.657,16.1l-1.059,2.2,41,41,.145,14.232-31.851.158,0-19.271H91.989l-.005-17.272Zm5.573-32.661v-.037a23.88,23.88,0,0,0-47.759-.036v.092a23.88,23.88,0,0,0,47.759-.019ZM69.3,86.406A17.008,17.008,0,0,1,52.266,69.459v-.044a16.99,16.99,0,0,1,33.98-.043v.083A16.991,16.991,0,0,1,69.3,86.406Z" style="fill: #02b6f7"/>
</svg>
