<?xml version="1.0" encoding="utf-8"?>
<!-- Generator: Adobe Illustrator 26.0.2, SVG Export Plug-In . SVG Version: 6.00 Build 0)  -->
<svg version="1.1" id="Layer_1" xmlns:svg="http://www.w3.org/2000/svg"
	 xmlns="http://www.w3.org/2000/svg" xmlns:xlink="http://www.w3.org/1999/xlink" x="0px" y="0px" viewBox="0 0 339 81"
	 style="enable-background:new 0 0 339 81;" xml:space="preserve">
<style type="text/css">
	.st0{fill:#E3E0DB;}
</style>
<g>
	<g id="svg_1">
		<g id="svg_2">
			<g id="svg_3">
				<path id="svg_4" class="st0" d="M76.6,68.9V37.5h7.6v24.8h12.2v6.6L76.6,68.9L76.6,68.9z"/>
				<path id="svg_5" class="st0" d="M121.5,58.1c0,0.3,0,0.6,0,0.9s0,0.6,0,0.8h-16c0.1,0.6,0.2,1.2,0.6,1.7s0.7,0.9,1.2,1.3
					c0.5,0.4,1,0.7,1.6,0.9c0.6,0.2,1.2,0.3,1.9,0.3c1.2,0,2.1-0.2,2.9-0.6c0.8-0.4,1.4-1,2-1.7l5.1,3.2c-1,1.5-2.4,2.7-4.1,3.5
					c-1.7,0.8-3.7,1.2-5.9,1.2c-1.7,0-3.2-0.3-4.7-0.8c-1.5-0.5-2.8-1.3-3.9-2.3c-1.1-1-2-2.2-2.6-3.7s-1-3.1-1-5
					c0-1.8,0.3-3.4,0.9-4.9s1.5-2.7,2.5-3.7c1.1-1,2.3-1.8,3.8-2.4c1.4-0.6,3-0.8,4.7-0.8c1.6,0,3.1,0.3,4.5,0.8s2.5,1.3,3.5,2.4
					c1,1,1.7,2.3,2.3,3.8C121.3,54.5,121.5,56.2,121.5,58.1z M114.8,55.3c0-1.2-0.4-2.1-1.1-3c-0.7-0.8-1.8-1.2-3.3-1.2
					c-0.7,0-1.4,0.1-2,0.3s-1.1,0.5-1.6,0.9c-0.4,0.4-0.8,0.8-1.1,1.4c-0.3,0.5-0.4,1.1-0.4,1.6H114.8z"/>
				<path id="svg_6" class="st0" d="M133.2,52.2v8.5c0,1,0.2,1.8,0.6,2.3c0.4,0.5,1.1,0.8,2.2,0.8c0.4,0,0.7,0,1.1-0.1
					c0.4-0.1,0.7-0.1,1-0.3l0.1,5.3c-0.5,0.2-1.1,0.3-1.9,0.5c-0.8,0.1-1.5,0.2-2.3,0.2c-1.5,0-2.7-0.2-3.7-0.6
					c-1-0.4-1.8-0.9-2.4-1.6c-0.6-0.7-1-1.5-1.3-2.5c-0.3-1-0.4-2-0.4-3.2v-9.3h-3.5v-5.4h3.5V41h7.1v5.8h5.2v5.4H133.2z"/>
				<path id="svg_7" class="st0" d="M161.9,53.3c-0.6-0.6-1.3-1-2.1-1.4c-0.8-0.4-1.6-0.6-2.5-0.6c-0.7,0-1.3,0.1-1.9,0.4
					c-0.6,0.3-0.9,0.7-0.9,1.4c0,0.6,0.3,1.1,1,1.3s1.7,0.6,3.1,0.9c0.8,0.2,1.7,0.4,2.5,0.8s1.6,0.8,2.3,1.3c0.7,0.5,1.2,1.2,1.6,2
					c0.4,0.8,0.6,1.7,0.6,2.8c0,1.4-0.3,2.6-0.8,3.5c-0.6,1-1.3,1.7-2.2,2.3s-1.9,1-3,1.3c-1.1,0.3-2.2,0.4-3.4,0.4
					c-1.8,0-3.6-0.3-5.3-0.9c-1.7-0.6-3.2-1.4-4.3-2.6l4.1-4.3c0.6,0.7,1.4,1.3,2.4,1.8c0.9,0.5,2,0.7,3,0.7c0.6,0,1.2-0.1,1.8-0.4
					c0.6-0.3,0.9-0.8,0.9-1.5c0-0.7-0.4-1.2-1.1-1.5c-0.7-0.3-1.8-0.7-3.3-1c-0.8-0.2-1.5-0.4-2.3-0.7c-0.8-0.3-1.5-0.7-2.1-1.2
					c-0.6-0.5-1.1-1.1-1.5-1.9c-0.4-0.7-0.6-1.6-0.6-2.7c0-1.3,0.3-2.5,0.8-3.4c0.6-0.9,1.3-1.7,2.2-2.3c0.9-0.6,1.9-1,2.9-1.3
					s2.2-0.4,3.2-0.4c1.7,0,3.3,0.3,4.9,0.8c1.6,0.5,2.9,1.3,4,2.3L161.9,53.3z"/>
				<path id="svg_8" class="st0" d="M179.6,68.9V37.5h21.1v6.4h-13.8v5.9h13v6.1h-13v6.5h14.6v6.5H179.6z"/>
				<path id="svg_9" class="st0" d="M220.7,68.9V56.8c0-0.6-0.1-1.2-0.2-1.8c-0.1-0.6-0.3-1.1-0.5-1.5c-0.2-0.4-0.6-0.8-1-1
					c-0.4-0.2-1-0.4-1.6-0.4s-1.2,0.1-1.7,0.4c-0.5,0.3-0.9,0.6-1.2,1s-0.6,1-0.7,1.5c-0.2,0.6-0.2,1.2-0.2,1.8v12h-7.3V46.8h7.1
					v3.1h0.1c0.3-0.5,0.6-0.9,1-1.4c0.4-0.5,0.9-0.9,1.5-1.2c0.6-0.3,1.2-0.6,1.9-0.8c0.7-0.2,1.4-0.3,2.2-0.3
					c1.5,0,2.7,0.3,3.8,0.8s1.9,1.2,2.5,2.1c0.6,0.8,1.1,1.8,1.4,2.9c0.3,1.1,0.4,2.2,0.4,3.3v13.7L220.7,68.9L220.7,68.9z"/>
				<path id="svg_10" class="st0" d="M246.7,53.9c-0.4-0.5-1-1-1.7-1.3c-0.7-0.3-1.4-0.5-2.2-0.5c-0.8,0-1.5,0.2-2.1,0.5
					s-1.2,0.7-1.6,1.2c-0.4,0.5-0.8,1.1-1,1.8c-0.3,0.7-0.4,1.4-0.4,2.2c0,0.8,0.1,1.5,0.4,2.2c0.2,0.7,0.6,1.3,1,1.8
					c0.5,0.5,1,0.9,1.6,1.2c0.6,0.3,1.4,0.4,2.2,0.4c0.7,0,1.5-0.1,2.2-0.4s1.3-0.7,1.8-1.2l4,4.9c-0.9,0.9-2.1,1.6-3.5,2.1
					c-1.4,0.5-3,0.8-4.6,0.8c-1.7,0-3.4-0.3-4.9-0.8c-1.5-0.5-2.8-1.3-3.9-2.3c-1.1-1-2-2.3-2.6-3.7s-1-3.1-1-4.9
					c0-1.8,0.3-3.4,1-4.9c0.6-1.4,1.5-2.7,2.6-3.7c1.1-1,2.4-1.8,3.9-2.4c1.5-0.5,3.1-0.8,4.8-0.8c0.8,0,1.6,0.1,2.4,0.2
					c0.8,0.1,1.5,0.3,2.3,0.6s1.4,0.6,2,0.9s1.1,0.8,1.6,1.2L246.7,53.9z"/>
				<path id="svg_11" class="st0" d="M268,52.8c-0.3-0.1-0.6-0.1-1-0.2s-0.6,0-0.9,0c-1,0-1.8,0.2-2.5,0.5c-0.7,0.4-1.2,0.8-1.6,1.3
					c-0.4,0.5-0.7,1-0.9,1.6s-0.3,1.1-0.3,1.5v11.3h-7.3V46.8h7V50h0.1c0.6-1.1,1.4-2.1,2.4-2.8c1-0.7,2.2-1.1,3.6-1.1
					c0.3,0,0.6,0,0.9,0c0.3,0,0.5,0.1,0.7,0.1L268,52.8z"/>
				<path id="svg_12" class="st0" d="M285.1,72.2c-0.4,1.2-0.9,2.2-1.5,3.1c-0.5,0.9-1.2,1.7-2,2.3c-0.8,0.6-1.6,1.1-2.7,1.4
					c-1,0.3-2.2,0.5-3.6,0.5c-0.7,0-1.4,0-2.1-0.1c-0.7-0.1-1.4-0.2-1.9-0.4l0.8-6.1c0.4,0.1,0.7,0.2,1.2,0.3
					c0.4,0.1,0.8,0.1,1.2,0.1c1.1,0,1.9-0.3,2.4-0.8c0.5-0.5,0.9-1.2,1.3-2.2l0.7-1.8l-9.2-21.7h8.1l4.9,14.2h0.1l4.4-14.2h7.7
					L285.1,72.2z"/>
				<path id="svg_13" class="st0" d="M321.5,57.7c0,1.5-0.2,3-0.7,4.4c-0.5,1.4-1.2,2.7-2.1,3.7c-0.9,1.1-2,1.9-3.3,2.6
					c-1.3,0.6-2.8,1-4.4,1c-1.4,0-2.6-0.3-3.9-0.8s-2.2-1.3-2.8-2.2h-0.1v13.1h-7.3V46.8h6.9v2.7h0.1c0.7-0.9,1.6-1.7,2.8-2.3
					c1.2-0.7,2.6-1,4.2-1c1.6,0,3,0.3,4.3,0.9c1.3,0.6,2.4,1.5,3.3,2.5s1.6,2.3,2.1,3.7C321.3,54.7,321.5,56.2,321.5,57.7z
					 M314.4,57.7c0-0.7-0.1-1.4-0.3-2.1c-0.2-0.7-0.5-1.3-1-1.8c-0.4-0.5-1-0.9-1.6-1.3s-1.4-0.5-2.3-0.5c-0.8,0-1.6,0.2-2.2,0.5
					c-0.7,0.3-1.2,0.8-1.7,1.3c-0.5,0.5-0.8,1.1-1.1,1.8c-0.3,0.7-0.4,1.4-0.4,2.1s0.1,1.4,0.4,2.1c0.3,0.7,0.6,1.3,1.1,1.8
					c0.5,0.5,1,1,1.7,1.3c0.6,0.3,1.4,0.5,2.2,0.5c0.9,0,1.6-0.2,2.3-0.5s1.2-0.8,1.6-1.3s0.8-1.1,1-1.8
					C314.3,59.2,314.4,58.5,314.4,57.7z"/>
				<path id="svg_14" class="st0" d="M333.1,52.2v8.5c0,1,0.2,1.8,0.6,2.3c0.4,0.5,1.1,0.8,2.2,0.8c0.4,0,0.7,0,1.1-0.1
					c0.4-0.1,0.7-0.1,1-0.3l0.1,5.3c-0.5,0.2-1.1,0.3-1.9,0.5c-0.8,0.1-1.5,0.2-2.3,0.2c-1.5,0-2.7-0.2-3.7-0.6
					c-1-0.4-1.8-0.9-2.4-1.6c-0.6-0.7-1-1.5-1.3-2.5c-0.3-1-0.4-2-0.4-3.2v-9.3h-3.5v-5.4h3.5V41h7.1v5.8h5.2v5.4H333.1z"/>
			</g>
		</g>
		<path id="svg_15" class="st0" d="M145,36.9c-2.2,0-3.9,1.6-3.9,3.6c0,2.1,1.4,3.5,3.6,3.5c0.2,0,0.4,0,0.5,0
			c-0.3,1.6-1.9,2.7-3.3,2.9l-0.3,0v3.4l0.4,0c1.7-0.2,3.4-1,4.7-2.2c1.6-1.6,2.5-3.8,2.5-6.6C149.2,38.8,147.4,36.9,145,36.9z"/>
	</g>
	<g id="svg_16">
		<path id="svg_17" class="st0" d="M46.5,37.6h-8v-4.1c0-3.3-2.7-6-6-6c-3.3,0-6,2.7-6,6v4.1h-8v-4.1c0-7.7,6.3-14,14-14
			s14,6.3,14,14L46.5,37.6L46.5,37.6z"/>
	</g>
	<path id="svg_18" class="st0" d="M49.7,37.6H15.2c-1.5,0-2.7,1.2-2.7,2.7v25.5c0,1.5,1.2,2.7,2.7,2.7h34.5c1.5,0,2.7-1.2,2.7-2.7
		V40.2C52.4,38.8,51.2,37.6,49.7,37.6z M34.2,54.3v3.5c0,1-0.8,1.7-1.7,1.7s-1.7-0.8-1.7-1.7v-3.5c-1.1-0.6-1.8-1.8-1.8-3.1
		c0-2,1.6-3.6,3.6-3.6c2,0,3.6,1.6,3.6,3.6C36,52.6,35.3,53.7,34.2,54.3z"/>
	<path id="svg_19" class="st0" d="M11.7,33.8H3.4c-1.4,0-2.4-1.1-2.4-2.4s1.1-2.4,2.4-2.4h8.3c1.4,0,2.4,1.1,2.4,2.4
		S13.1,33.8,11.7,33.8z"/>
	<path id="svg_20" class="st0" d="M17.6,20.7c-0.5,0-1.1-0.2-1.6-0.6l-6.6-5.4c-1-0.9-1.2-2.4-0.3-3.4c0.9-1,2.4-1.2,3.4-0.3
		l6.6,5.4c1,0.9,1.2,2.4,0.3,3.4C19,20.4,18.3,20.7,17.6,20.7z"/>
	<path id="svg_21" class="st0" d="M32.5,14.9c-1.4,0-2.4-1.1-2.4-2.4V4.1c0-1.4,1.1-2.4,2.4-2.4s2.4,1.1,2.4,2.4v8.4
		C34.9,13.8,33.8,14.9,32.5,14.9z"/>
	<g id="svg_22">
		<g id="svg_23">
			<path id="svg_24" class="st0" d="M47.4,20.7c-0.7,0-1.4-0.3-1.9-0.9c-0.9-1-0.7-2.6,0.3-3.4l6.6-5.4c1-0.9,2.6-0.7,3.4,0.3
				c0.9,1,0.7,2.6-0.3,3.4l-6.6,5.4C48.5,20.5,47.9,20.7,47.4,20.7z"/>
		</g>
	</g>
	<path id="svg_25" class="st0" d="M61.6,33.8h-8.4c-1.4,0-2.4-1.1-2.4-2.4s1.1-2.4,2.4-2.4h8.4c1.4,0,2.4,1.1,2.4,2.4
		S62.9,33.8,61.6,33.8z"/>
</g>
</svg>
