<svg xmlns="http://www.w3.org/2000/svg" viewBox="0 0 175 175">
  <path style="fill: #212526" d="M135.69,148H32.94c-4.93-1.59-7.45-6.74-7.57-11.92V38.83A12.19,12.19,0,0,1,37.74,27h96.41a12,12,0,0,1,10.61,6.09,12.36,12.36,0,0,1,1.61,6.54v96a12.27,12.27,0,0,1-8,11.5,15.68,15.68,0,0,1-1.65.5l-.5.13ZM74,127.23c0,.49.13.61.61.61q7.72,0,15.43,0c.53,0,.66-.12.66-.66q0-13.17,0-26.35a22.53,22.53,0,0,1,1.1-7.69A8.08,8.08,0,0,1,96.51,88a12,12,0,0,1,5.28-.68,7.26,7.26,0,0,1,6.86,5.56,24.42,24.42,0,0,1,.85,7.17q0,13.56,0,27.13c0,.47.09.62.6.62q7.81,0,15.64,0c.46,0,.59-.1.58-.57,0-4.18,0-8.36,0-12.54,0-6.86.15-13.72-.12-20.57A33.21,33.21,0,0,0,124.06,83a14.87,14.87,0,0,0-9.24-9,26.18,26.18,0,0,0-9.21-1.29A18.79,18.79,0,0,0,96.67,75a16.18,16.18,0,0,0-6.18,6c-.09.15-.11.4-.36.33S90,81,90,80.89c0-2.09,0-4.18,0-6.26,0-.55-.16-.68-.68-.67H74.75C74,74,74,74,74,74.7v26.18Q74,114.07,74,127.23Zm-27.25,0c0,.46.12.57.58.57q7.77,0,15.53,0c.5,0,.6-.14.6-.61q0-26.33,0-52.64c0-.51-.14-.64-.65-.64q-7.71,0-15.42,0c-.56,0-.65.18-.64.69q0,13.14,0,26.29t0,26.34ZM45.41,56.86a9.74,9.74,0,1,0,9.77-9.7h0A9.72,9.72,0,0,0,45.41,56.86Z" />
</svg>