<svg xmlns="http://www.w3.org/2000/svg" viewBox="0 0 175 175">
  <path style="fill: #00a0da" d="M135.691,154.547H34.151l-.35-.621a12.169,12.169,0,0,1-8.428-11.3l-.006-.141.017-.588-.011-96.5A12.194,12.194,0,0,1,37.737,33.584H76.72q28.713,0,57.429.015a12.04,12.04,0,0,1,10.613,6.087,12.394,12.394,0,0,1,1.611,6.54q-.009,37.547-.006,75.094v20.945a12.259,12.259,0,0,1-7.988,11.5,16.333,16.333,0,0,1-1.651.5c-.167.043-.335.087-.5.134Zm-98.452-8h97.367l.109-.029c.333-.086.647-.168.86-.248a4.225,4.225,0,0,0,2.793-4.167V121.319q0-37.548.006-75.1a4.636,4.636,0,0,0-.465-2.411,4.052,4.052,0,0,0-3.767-2.213q-28.71-.03-57.42-.015H37.737a4.152,4.152,0,0,0-4.364,4.029c.006.169.011.339.011.509V141.9c0,.17-.005.34-.011.511a4.183,4.183,0,0,0,3.417,4.059A4.321,4.321,0,0,1,37.239,146.547ZM73.984,133.8c0,.489.124.609.611.607q7.712-.029,15.422,0c.533,0,.668-.125.666-.663q-.027-13.174-.008-26.35a22.279,22.279,0,0,1,1.1-7.689,8.062,8.062,0,0,1,4.735-5.1,12.061,12.061,0,0,1,5.284-.677,7.244,7.244,0,0,1,6.853,5.553,24.22,24.22,0,0,1,.85,7.177q.012,13.563-.007,27.126c0,.467.09.622.6.62q7.821-.033,15.643,0c.454,0,.583-.1.58-.571-.019-4.178.008-8.357-.015-12.536-.038-6.858.15-13.718-.118-20.573a33.237,33.237,0,0,0-2.117-11.2,14.908,14.908,0,0,0-9.244-9,26.071,26.071,0,0,0-9.207-1.288A18.763,18.763,0,0,0,96.67,81.6a16.1,16.1,0,0,0-6.179,5.96c-.086.147-.112.4-.365.327-.216-.065-.116-.285-.117-.433-.007-2.09-.023-4.18.008-6.269.009-.543-.158-.672-.682-.67-4.863.019-9.727.011-14.59.011-.749,0-.75,0-.75.737v26.182Q74,120.623,73.984,133.8Zm-27.251.034c0,.466.121.574.578.572q7.765-.025,15.529,0c.5,0,.6-.138.6-.614q-.018-26.317,0-52.634c0-.513-.144-.641-.647-.64q-7.709.027-15.418,0c-.561,0-.65.174-.649.684q.024,13.145.012,26.289Q46.744,120.66,46.733,133.832ZM45.412,63.421a9.733,9.733,0,1,0,9.739-9.7A9.727,9.727,0,0,0,45.412,63.421Z"/>
</svg>