<svg xmlns="http://www.w3.org/2000/svg" viewBox="0 0 175 175">
  <path d="M155.937,150.6,112.78,107.443a54.949,54.949,0,1,0-7.894,7.065c.057.062.1.133.158.193l43.4,43.4a5.3,5.3,0,0,0,7.5-7.5ZM28.114,70.261A44.307,44.307,0,1,1,72.42,114.566,44.357,44.357,0,0,1,28.114,70.261ZM94.459,69.8a5.3,5.3,0,0,1-5.3,5.258h-.045l-11.095-.092-.092,11.1a5.3,5.3,0,0,1-5.3,5.258h-.045a5.3,5.3,0,0,1-5.258-5.346l.091-11.095L56.32,74.785a5.3,5.3,0,0,1,.042-10.6h.045l11.1.092.092-11.095a5.3,5.3,0,1,1,10.6.088l-.092,11.1,11.1.092A5.3,5.3,0,0,1,94.459,69.8Z" style="fill: #02b6f7"/>
</svg>
