<svg xmlns="http://www.w3.org/2000/svg" viewBox="0 0 175 175">
  <path style="fill: #212526" d="m148.854,64.913c0-28.54-18.698-36.905-18.698-36.905-9.428-4.33-25.617-6.151-42.437-6.289h-.413c-16.819.138-32.998,1.958-42.427,6.289,0,0-18.699,8.365-18.699,36.905,0,6.535-.128,14.349.079,22.636.679,27.91,5.117,55.417,30.922,62.247,11.898,3.149,22.114,3.808,30.341,3.356,14.92-.827,23.295-5.325,23.295-5.325l-.492-10.825s-10.662,3.362-22.636,2.952c-11.863-.407-24.387-1.279-26.306-15.845-.177-1.279-.266-2.647-.266-4.084,0,0,11.646,2.847,26.405,3.523,9.025.414,17.488-.529,26.084-1.554,16.484-1.968,30.837-12.125,32.641-21.405,2.842-14.619,2.608-35.676,2.608-35.676Zm-22.056,36.771h-13.691v-33.541c0-7.07-2.975-10.659-8.925-10.659-6.579,0-9.877,4.257-9.877,12.675v18.359h-13.61v-18.359c0-8.418-3.298-12.675-9.877-12.675-5.95,0-8.925,3.589-8.925,10.659v33.541h-13.691v-34.557c0-7.063,1.798-12.675,5.41-16.827,3.725-4.152,8.603-6.281,14.658-6.281,7.006,0,12.311,2.693,15.819,8.079l3.41,5.717,3.411-5.717c3.507-5.386,8.813-8.079,15.819-8.079,6.055,0,10.933,2.129,14.658,6.281,3.611,4.152,5.41,9.765,5.41,16.827v34.557Z" />
</svg>