<?xml version="1.0" encoding="utf-8"?>
<!-- Generator: Adobe Illustrator 26.0.2, SVG Export Plug-In . SVG Version: 6.00 Build 0)  -->
<svg version="1.1" id="Layer_1" xmlns="http://www.w3.org/2000/svg" xmlns:xlink="http://www.w3.org/1999/xlink" x="0px" y="0px"
	 viewBox="0 0 561.6 198.3" style="enable-background:new 0 0 561.6 198.3;" xml:space="preserve">
<style type="text/css">
	.st0{fill:#E3E0DB;}
</style>
<polygon class="st0" points="561.6,50.1 542.7,50.1 521.8,83 501.5,50.1 482,50.1 511.1,97.8 481.7,147.1 500.2,147.1 521,113.7 
	541.3,147.1 560.9,147.1 531.4,98.9 "/>
<polygon class="st0" points="457.4,50.1 457.4,116.1 419.3,50.1 403.6,50.1 403.6,147.1 419.3,147.1 419.3,81.4 457.4,147.1 
	473.4,147.1 473.4,50.1 "/>
<rect x="373.7" y="50.1" class="st0" width="16.8" height="97"/>
<path class="st0" d="M360.7,84.6v-5.5c0-18.9-13.8-31-38.1-31c-24.1,0-38,12.2-38,31v39c0,18.9,13.9,31,38.1,31s38-12.2,38-31V95.3
	H322v15.5h21.8v6.2c0,10.2-7.7,16.4-21.3,16.4c-13.5,0-21.2-6.2-21.2-16.4v-37c0-10.2,7.7-16.4,21.3-16.4c13.5,0,21.2,6.2,21.2,16.4
	v4.5H360.7z"/>
<polygon class="st0" points="255.7,50.1 255.7,116.1 217.5,50.1 201.7,50.1 201.7,147.1 217.5,147.1 217.5,81.4 255.7,147.1 
	271.5,147.1 271.5,50.1 "/>
<path class="st0" d="M169.4,45.8l-77-44.4c-3.2-1.9-7.1-1.9-10.2,0l-77,44.4C1.9,47.6,0,51,0,54.7v88.9c0,1.8,0.4,3.5,1.4,5.1
	c0.9,1.6,2.2,2.8,3.8,3.7l77,44.4c3.2,1.9,7.1,1.9,10.2,0l77-44.4c3.2-1.8,5.1-5.2,5.1-8.9V54.7C174.5,51,172.6,47.6,169.4,45.8z
	 M131.7,133.2c0,5.3-4.7,9.6-11.2,9.6c-4.7,0-10.2-1.9-13.5-6l-44.4-53V133c0,5.5-4.4,9.9-9.9,9.9s-9.9-4.4-9.9-9.9V65.1
	c0-5.3,4.7-9.6,11.2-9.6c4.7,0,10.2,1.9,13.5,6l3,3.6l41.4,49.5V65.3c0-5.5,4.4-9.9,9.9-9.9s9.9,4.4,9.9,9.9V133.2z"/>
</svg>
