<svg xmlns="http://www.w3.org/2000/svg" viewBox="0 0 594.009 182.983">
  <defs>
    <style>
      .cls-1 {
        fill: #e3e0db;
      }
    </style>
  </defs>
  <path class="cls-1" d="M529.644,182.983a11.144,11.144,0,0,1-5.577-1.493l-17.757-10.5c-2.65-1.484-1.356-2.01-.482-2.314a35.451,35.451,0,0,0,8.029-3.652,1.361,1.361,0,0,1,1.32.1l13.641,8.1a1.754,1.754,0,0,0,1.648,0l53.183-30.7a1.679,1.679,0,0,0,.812-1.44V79.708a1.717,1.717,0,0,0-.826-1.466l-53.161-30.67a1.666,1.666,0,0,0-1.638,0L475.688,78.251a1.708,1.708,0,0,0-.843,1.457v61.375a1.628,1.628,0,0,0,.839,1.422l14.569,8.417c7.9,3.953,12.744-.7,12.744-5.379v-60.6a1.53,1.53,0,0,1,1.546-1.532h6.744a1.535,1.535,0,0,1,1.541,1.532v60.6c0,10.55-5.746,16.6-15.748,16.6-3.074,0-5.494,0-12.25-3.329l-13.946-8.029a11.231,11.231,0,0,1-5.578-9.7V79.708a11.208,11.208,0,0,1,5.578-9.693l53.183-30.732a11.655,11.655,0,0,1,11.177,0l53.179,30.732a11.228,11.228,0,0,1,5.586,9.693v61.375a11.258,11.258,0,0,1-5.586,9.7L535.244,181.49A11.157,11.157,0,0,1,529.644,182.983Zm42.942-60.509c0-11.487-7.763-14.547-24.107-16.706-16.516-2.186-18.2-3.312-18.2-7.181,0-3.193,1.423-7.454,13.655-7.454,10.926,0,14.953,2.354,16.609,9.72a1.532,1.532,0,0,0,1.493,1.2h6.9a1.539,1.539,0,0,0,1.532-1.674c-1.068-12.688-9.5-18.6-26.536-18.6-15.165,0-24.209,6.4-24.209,17.13,0,11.641,9,14.856,23.551,16.3,17.413,1.7,18.764,4.248,18.764,7.675,0,5.944-4.769,8.479-15.973,8.479-14.074,0-17.17-3.533-18.207-10.532a1.541,1.541,0,0,0-1.528-1.3h-6.876a1.528,1.528,0,0,0-1.537,1.532c0,8.96,4.875,19.643,28.148,19.643C562.924,140.7,572.586,134.062,572.586,122.474ZM94.937,90.55a5.108,5.108,0,0,0-2.558-4.445L50.024,61.73a4.977,4.977,0,0,0-2.331-.674h-.438a5.048,5.048,0,0,0-2.339.674L2.561,86.105A5.132,5.132,0,0,0,0,90.55l.093,65.635A2.514,2.514,0,0,0,1.37,158.4a2.461,2.461,0,0,0,2.541,0l25.172-14.414a5.154,5.154,0,0,0,2.561-4.438V108.878A5.094,5.094,0,0,1,34.2,104.45l10.718-6.174a5.092,5.092,0,0,1,2.564-.687,5.009,5.009,0,0,1,2.544.687l10.715,6.174a5.1,5.1,0,0,1,2.558,4.428v30.665a5.166,5.166,0,0,0,2.564,4.438L91.026,158.4a2.49,2.49,0,0,0,2.557,0,2.556,2.556,0,0,0,1.271-2.21ZM323.949,14.394,298.735.324a2.559,2.559,0,0,0-3.806,2.234v65a1.789,1.789,0,0,1-2.685,1.551L281.636,63a5.118,5.118,0,0,0-5.112,0L234.152,87.451a5.116,5.116,0,0,0-2.559,4.431V140.8a5.119,5.119,0,0,0,2.558,4.432L276.52,169.7a5.116,5.116,0,0,0,5.119,0l42.376-24.471a5.119,5.119,0,0,0,2.558-4.432V18.862A5.116,5.116,0,0,0,323.949,14.394ZM294.8,124.726a1.274,1.274,0,0,1-.64,1.106l-14.548,8.386a1.278,1.278,0,0,1-1.277,0l-14.548-8.386a1.276,1.276,0,0,1-.64-1.106v-16.8a1.283,1.283,0,0,1,.639-1.109l14.548-8.4a1.278,1.278,0,0,1,1.28,0l14.548,8.4a1.282,1.282,0,0,1,.638,1.109ZM210.047,87.372l-42.03-24.255a5.078,5.078,0,0,0-5.075,0l-42.02,24.255a5.071,5.071,0,0,0-2.539,4.395v48.548a5.081,5.081,0,0,0,2.537,4.4l42.021,24.274a5.078,5.078,0,0,0,5.078,0l42.03-24.274a5.082,5.082,0,0,0,2.538-4.4V91.768A5.072,5.072,0,0,0,210.047,87.372Zm-28.736,37.089a1.276,1.276,0,0,1-.64,1.106l-14.548,8.386a1.282,1.282,0,0,1-1.277,0L150.3,125.567a1.276,1.276,0,0,1-.64-1.106v-16.8a1.282,1.282,0,0,1,.639-1.108l14.548-8.4a1.283,1.283,0,0,1,1.28,0l14.548,8.4a1.284,1.284,0,0,1,.638,1.108Zm258.514-16.973a5.116,5.116,0,0,0,2.546-4.424V91.21a5.117,5.117,0,0,0-2.547-4.425l-42.1-24.443a5.117,5.117,0,0,0-5.127-.007L350.241,86.788a5.115,5.115,0,0,0-2.558,4.43v48.9a5.114,5.114,0,0,0,2.585,4.446l42.092,23.985a5.112,5.112,0,0,0,5.017.028l25.46-14.151a2.558,2.558,0,0,0,.032-4.455l-42.625-24.465a2.558,2.558,0,0,1-1.285-2.219V107.964a2.556,2.556,0,0,1,1.28-2.216L393.505,98.1a2.555,2.555,0,0,1,2.554,0l13.272,7.648a2.556,2.556,0,0,1,1.281,2.216v12.058a2.558,2.558,0,0,0,3.843,2.213Zm-53.413,2.4a.983.983,0,0,0-.49.851v9.388a.984.984,0,0,0,.49.851l8.124,4.69a.979.979,0,0,0,.982,0l8.131-4.69a.985.985,0,0,0,.491-.851v-9.388a.984.984,0,0,0-.491-.851l-8.131-4.69a.979.979,0,0,0-.982,0Z"/>
</svg>
