<svg xmlns="http://www.w3.org/2000/svg" viewBox="0 0 157.336 38.375">
  <style>
    .omg-logo {
      fill: #fc6d35;
    }

    .bus {
      stroke: #02b6f7;
      fill: none;
      stroke-linecap: round;
      stroke-linejoin: round;
      stroke-width: 2px;
    }
    
    .wheel {
      fill: #e3e0db;
      animation: wheel-spin 1s linear infinite;
      transform-origin: center;
      transform-box: fill-box;
    }

    @keyframes wheel-spin {
        0% { transform: rotate(0deg) }
      100% { transform: rotate(360deg) }
    }

    .bus.zoom-line {
      stroke: #e3e0db;
    }

  .bus-omg {
    animation: bounce 0.2s ease-in-out infinite alternate;
  }
  @keyframes bounce {
    0%   { transform: translateY(-1%) }
    100% { transform: translateY(1%) }
  }

  .zoom-line {
    transform-origin: center right;
    stroke-dasharray: 22;
    animation: line .5s ease-in-out infinite alternate;
    animation-fill-mode: both;
  }

  .zoom-line-1 { animation-delay: 0.0s }
  .zoom-line-2 { animation-delay: 0.2s }
  .zoom-line-3 { animation-delay: 0.4s }
  .zoom-line-3 { animation-delay: 0.6s }

  @keyframes line {
    0%   { stroke-dashoffset: 0 }
    100% { stroke-dashoffset: 20 }
  }

  </style>
  <g class="bus-omg">
    <path class="omg-logo" d="M79.505,20.066a3.157,3.157,0,0,0-2.53,1.142,4.491,4.491,0,0,0-.9,2.877,4.48,4.48,0,0,0,.9,2.876,3.37,3.37,0,0,0,5.059,0,4.488,4.488,0,0,0,.9-2.876,4.489,4.489,0,0,0-.9-2.877A3.156,3.156,0,0,0,79.505,20.066Zm1.056,5.52a1.29,1.29,0,0,1-2.112,0,2.8,2.8,0,0,1-.351-1.5,2.8,2.8,0,0,1,.351-1.5,1.291,1.291,0,0,1,2.112,0,2.8,2.8,0,0,1,.348,1.5A2.787,2.787,0,0,1,80.561,25.586Zm10.4-1.95c-.086.19-.174.4-.255.6-.084-.2-.174-.417-.261-.6l-1.59-3.452H87.018v7.808h1.948V25.053c0-.075,0-.171,0-.274l1.71,3.744,1.71-3.744c0,.1,0,.2,0,.274v2.936h1.98V20.18H92.5Zm10.992.053v1.885h1.081a.8.8,0,0,1-.208.335,1.282,1.282,0,0,1-.883.249,1.244,1.244,0,0,1-1.062-.553,3.048,3.048,0,0,1,0-3.031,1.235,1.235,0,0,1,1.058-.54,1.126,1.126,0,0,1,.731.215,1.656,1.656,0,0,1,.43.588l.108.217,1.853-.765-.1-.242A3.285,3.285,0,0,0,103.86,20.6a3.194,3.194,0,0,0-1.91-.537A3.267,3.267,0,0,0,99.419,21.2a4.36,4.36,0,0,0-.967,2.881A4.4,4.4,0,0,0,99.393,27a3.442,3.442,0,0,0,4.781.27,3.169,3.169,0,0,0,.909-2.359V23.689Z" />
    <path class="bus bus-frame" d="M122.97,31.347H60.186m-12.625,0H38.808c-2.6,0-3.688-.919-3.688-4.67l.461-24.372c2.613-.445,108.562-.337,111.144.237l5.291,15c2.681,4.643,3.073,13.8-.078,13.8H134.925M36.133,17H151.154"/>
  </g>
  <ellipse class="bus bus-tire bus-tire-1" cx="53.905" cy="31.05" rx="5.655" ry="5.562" />
  <ellipse class="bus bus-tire bus-tire-2" cx="128.924" cy="31.05" rx="5.655" ry="5.562" />
  <line class="bus zoom-line zoom-line-1" x1="29.094" y1="6.22" x2="5.094" y2="6.22"/>
  <line class="bus zoom-line zoom-line-2" x1="29.094" y1="13.792" x2="5.094" y2="13.792"/>
  <line class="bus zoom-line zoom-line-3" x1="29.094" y1="21.365" x2="5.094" y2="21.365"/>
  <line class="bus zoom-line zoom-line-4" x1="29.094" y1="28.938" x2="5.094" y2="28.938"/>
  <path id="left-wheel" class="wheel" d="M53.865,33.915h-.011a2.641,2.641,0,0,1-2.687-2.654.5.5,0,0,1,.5-.5h0a.5.5,0,0,1,.5.5,1.627,1.627,0,0,0,1.7,1.662.5.5,0,0,1,.492.506A.494.494,0,0,1,53.865,33.915Zm2.176-2.18a.5.5,0,0,1-.5-.5,1.625,1.625,0,0,0-1.7-1.67.507.507,0,0,1-.5-.5.49.49,0,0,1,.489-.5h.021a2.637,2.637,0,0,1,2.687,2.668.5.5,0,0,1-.5.5Z"/>
  <path id="right-wheel" class="wheel" d="M129,33.915h-.013a2.635,2.635,0,0,1-2.673-2.657.5.5,0,0,1,.5-.5h0a.5.5,0,0,1,.5.5,1.621,1.621,0,0,0,1.674,1.662.5.5,0,0,1,.071,1A.39.39,0,0,1,129,33.915Zm2.187-2.179a.5.5,0,0,1-.5-.5,1.626,1.626,0,0,0-1.7-1.671.507.507,0,0,1-.5-.5.493.493,0,0,1,.491-.494v0a2.641,2.641,0,0,1,2.7,2.668.5.5,0,0,1-.5.5Z"/>
</svg>
