<svg xmlns="http://www.w3.org/2000/svg" viewBox="0 0 175 175">
  <path style="fill: #00a0da" d="M163.506,70.39v86.72a6.007,6.007,0,0,1-6,6H17.494a6.007,6.007,0,0,1-6-6V70.39a5.97,5.97,0,0,1,2.248-4.682l65.5-52.5a6,6,0,0,1,7.208-.223l74.511,52.5A6.008,6.008,0,0,1,163.506,70.39ZM20.494,71.83v.583l59.985,37.374,6.43-4.7a1,1,0,0,1,1.182,0l6.062,4.435,60.33-37.588L83.11,21.641Zm0,81.846,58.247-42.617L20.494,74.769Zm131.218.434L87.5,107.129,23.288,154.11Zm2.794-79.838L95.892,110.791l58.614,42.885ZM42.244,71.64a1,1,0,0,0-1-1h-6a1,1,0,0,0,0,2h6A1,1,0,0,0,42.244,71.64Zm78,0a1,1,0,0,0-1-1h-13a1,1,0,0,0,0,2h13A1,1,0,0,0,120.244,71.64Zm-26,0a1,1,0,0,0-1-1h-13a1,1,0,0,0,0,2h13A1,1,0,0,0,94.244,71.64Zm-26,0a1,1,0,0,0-1-1h-13a1,1,0,0,0,0,2h13A1,1,0,0,0,68.244,71.64Zm71,0a1,1,0,0,0-1-1h-6a1,1,0,0,0,0,2h6A1,1,0,0,0,139.244,71.64Z"/>
</svg>
