<svg xmlns="http://www.w3.org/2000/svg" viewBox="0 0 890.516 476.808">
  <path d="M400.345,233.426a2.434,2.434,0,0,1-.715,1.725l-39.895-39.9h0a10.95,10.95,0,0,0,3.225-7.756V91.862a10.953,10.953,0,0,0-3.232-7.764l39.9-39.9a2.435,2.435,0,0,1,.719,1.729Zm409.3-68.878h0l11.106,74.663,26.278,176.657V37.392L809.65.005ZM37.385,430.873V45.925a8.514,8.514,0,0,1,2.506-6.039l-27.87-27.87A40.859,40.859,0,0,0,0,40.987V435.821a40.861,40.861,0,0,0,12.013,28.963L39.887,436.91A8.52,8.52,0,0,1,37.385,430.873Zm122.07,1.727a2.434,2.434,0,0,0,.716-1.727V45.925a2.431,2.431,0,0,0-.719-1.728l-39.9,39.9a10.953,10.953,0,0,1,3.232,7.764v293.09a10.954,10.954,0,0,1-3.224,7.756h0Zm562.637,6.828V37.389L684.712.005l0,476.8,37.385-37.38Zm6.249-390.14-.145-.466v.009l37.38,263.409,44.068,164.539.007.023c.01-.011,29.235-29.232,37.976-37.972ZM277.558,439.418l0-402.038L243.526,3.346,240.18,0l0,476.808,37.394-37.39Zm240.781-8.545V45.925a8.518,8.518,0,0,1,2.506-6.039l-27.869-27.87a40.859,40.859,0,0,0-12.021,28.971V435.821a40.857,40.857,0,0,0,12.013,28.963l27.874-27.874A8.517,8.517,0,0,1,518.339,430.873Z" style="fill: #fc6d35"/>
  <path d="M609.389,241.972l37.389,37.389H561.821l-37.378-37.388h84.946ZM45.93,43.484a2.433,2.433,0,0,0-1.725.716L84.1,84.1a10.95,10.95,0,0,1,7.756-3.225H111.8a10.954,10.954,0,0,1,7.754,3.223l39.9-39.9a2.435,2.435,0,0,0-1.722-.713Zm237.733,0v0l37.378,37.39h30.932a10.952,10.952,0,0,1,7.755,3.223l39.9-39.9a2.433,2.433,0,0,0-1.721-.713ZM157.73,439.419H45.93a8.52,8.52,0,0,1-6.043-2.509L12.013,464.784a40.858,40.858,0,0,0,28.973,12.024H162.67a40.858,40.858,0,0,0,28.972-12.022l-27.873-27.873A8.514,8.514,0,0,1,157.73,439.419ZM526.885,43.484a2.434,2.434,0,0,0-1.726.716l36.662,36.672h84.957L609.389,43.484ZM728.2,439.428h-6.1l-37.384,37.38h80.871L728.2,439.419Zm-201.311-.009a8.52,8.52,0,0,1-6.043-2.509l-27.874,27.874a40.857,40.857,0,0,0,28.973,12.024H646.778l-37.389-37.389Zm320.743-.586v0l-37.982,37.978h80.871l-37.947-37.985Zm-570.06.585-37.393,37.39h80.871l-37.386-37.39ZM397.905,241.969H283.663v0l37.378,37.387h81.8a40.854,40.854,0,0,0,28.971-12.022l-27.873-27.873A8.517,8.517,0,0,1,397.905,241.969Z" style="fill: #91452a"/>
  <path d="M321.046,198.484l0,0h0l-37.378,37.376V43.483l37.383,37.389ZM609.389,37.38h0v6.1h0l37.384,37.387V.006Zm0,198.488v6.1h0l37.385,37.389V198.5Zm.819,196.628-.82.82h0v6.1h0l37.385,37.389V395.941ZM84.1,84.1l-39.9-39.9a2.43,2.43,0,0,0-.717,1.725V430.873A2.436,2.436,0,0,0,44.2,432.6L84.094,392.7a10.95,10.95,0,0,1-3.223-7.754V91.859A10.952,10.952,0,0,1,84.1,84.1ZM403.94,39.885a8.52,8.52,0,0,1,2.509,6.043v187.5a8.514,8.514,0,0,1-2.506,6.038l27.873,27.873a40.858,40.858,0,0,0,12.015-28.965V40.989a40.855,40.855,0,0,0-12.023-28.972Zm449.184-2.5h.011l-.566,401.434,37.942,37.986L890.516,0ZM728.2,439.428h0l37.381,37.38,0-164.568L728.2,48.831ZM283.663,241.969V439.418h-.011l37.395,37.39V279.357l-37.382-37.388ZM163.766,39.882a8.52,8.52,0,0,1,2.509,6.043V430.873a8.521,8.521,0,0,1-2.506,6.04l27.873,27.873a40.861,40.861,0,0,0,12.014-28.965V40.987a40.861,40.861,0,0,0-12.022-28.973ZM561.821,279.361l-37.378-37.388v188.9a2.44,2.44,0,0,0,.713,1.724l36.665-36.656h0V279.361ZM525.159,44.2a2.448,2.448,0,0,0-.511.753c0,.008-.01.015-.013.023a2.374,2.374,0,0,0-.078.252,2.4,2.4,0,0,0-.114.7V235.868h0L561.821,198.5h0V80.873Z" style="fill: #f7b7a1"/>
  <path d="M191.634,12.014A40.858,40.858,0,0,0,162.671,0H40.986A40.859,40.859,0,0,0,12.021,12.016l27.87,27.87a8.514,8.514,0,0,0-2.506,6.039V430.873a8.555,8.555,0,0,0,8.545,8.546h111.8a8.555,8.555,0,0,0,8.545-8.546V45.925a8.52,8.52,0,0,0-2.509-6.043ZM43.488,45.925a2.445,2.445,0,0,1,2.442-2.441h111.8a2.444,2.444,0,0,1,2.441,2.441V430.873a2.438,2.438,0,0,1-.716,1.727l-39.894-39.9a10.955,10.955,0,0,1-7.762,3.23H91.858a10.953,10.953,0,0,1-7.764-3.232L44.2,432.6a2.436,2.436,0,0,1-.713-1.723Zm809.636-8.537h.011l-.566,401.434-4.941.011L728.2,48.813V439.428h-6.1V37.389L684.708,0h80.87v0l44.069,164.543,37.383,251.323V37.392L809.645,0h80.871ZM524.443,241.972v188.9a2.438,2.438,0,0,0,.713,1.724l36.665-36.656,84.957-.006-37.389,37.381h0v6.1h-82.5a8.556,8.556,0,0,1-8.546-8.546V45.925a8.522,8.522,0,0,1,2.506-6.04L492.976,12.016A40.857,40.857,0,0,1,521.941,0H646.778L609.389,37.38h0v6.1h-82.5a2.444,2.444,0,0,0-2.442,2.441V235.868h0L561.821,198.5l84.957-.006L609.39,235.868v6.1ZM431.808,12.017A40.856,40.856,0,0,0,402.845,0L240.18,0l37.38,37.38,0,402.038h6.1V241.969H397.905a8.553,8.553,0,0,0,8.544-8.543V45.928a8.52,8.52,0,0,0-2.509-6.043Zm-33.9,31.469a2.444,2.444,0,0,1,2.44,2.442v187.5a2.434,2.434,0,0,1-.715,1.725l-39.895-39.9a10.952,10.952,0,0,1-7.762,3.231H321.041l-37.378,37.376V43.482Z" style="fill: #fff"/>
</svg>
