<svg version="1.1" xmlns="http://www.w3.org/2000/svg" xmlns:xlink="http://www.w3.org/1999/xlink" x="0px" y="0px" viewBox="0 0 3009.546 2094.455" style="enable-background:new 0 0 3009.546 2094.455;" xml:space="preserve">

<style type="text/css">
  .st0{fill:#fc6d35;}
  .st1{fill:#02b6f7;}
  .st2{fill:#FFFFFF;}

  #big-group
  {
    animation-name: big-group;
    animation-fill-mode: forwards;
    animation-duration: 2s;
  }

  @keyframes big-group
  {
    from { transform: translateX(0%)  }
    to   { transform: translateX(5%) }
  }

  #lil-person
  {
    animation-name: lil-person;
    animation-fill-mode: forwards;
    animation-duration: 2s;
  }

  @keyframes lil-person
  {
    from { transform: translateX(0%)  }
    to   { transform: translateX(-5%) }
  }

  .stars
  {
    animation-name: stars;
    animation-fill-mode: both;
    animation-timing-function: linear;
    animation-iteration-count: 4;
    animation-direction: alternate;
    animation-duration: .5s;
  }

  #star-1
  {
    animation-name: star-1;
    transform-origin: 2006.759px 132.225px;
  }

  #star-2
  {
    animation-name: star-2;
    transform-origin: 1617.347px 336.301px;
  }

  @keyframes star-1
  {
    from { transform: scale(1)  }
    to   { transform: scale(1.5) }
  }

  @keyframes star-2
  {
    from { transform: scale(1)  }
    to   { transform: scale(.5) }
  }


</style>

<path id="lil-person" class="st1" d="M2804.103,1734.686c-52.769-92.578-129.731-169.098-222.565-221.286
  c-10.608-5.963-21.4-11.527-32.307-16.818c107.135-82.465,176.312-211.932,176.312-357.273
  c0-248.501-202.168-450.669-450.669-450.669s-450.67,202.168-450.67,450.669c0,145.157,69.001,274.482,175.905,356.961
  c-16.363,7.973-32.419,16.636-48.037,26.138c-88.497,53.835-160.644,130.826-208.642,222.647
  c-52.376,100.194-76.681,220.285-72.239,349.401h170.802c-6.419-186.549,64.218-344.108,198.901-426.04
  c136.43-83,315.775-85.372,456.895-6.04c143.469,80.653,222.482,238.46,222.482,432.079h170.902
  C2891.173,1961.58,2861.878,1836.051,2804.103,1734.686z M2274.873,859.542c154.265,0,279.767,125.502,279.767,279.767
  s-125.502,279.767-279.767,279.767c-154.265,0-279.767-125.502-279.767-279.767S2120.608,859.542,2274.873,859.542z"/>

  <g id="big-group">
    <path id="big-mask" class="st2 big" d="M1538.318,1616.726c-58.307-102.297-138.31-190.206-233.948-257.701 c96.844-113.732,151.776-259.239,151.776-411.87c0-350.556-285.197-635.754-635.754-635.754S184.639,596.598,184.639,947.154 c0,152.521,54.884,297.976,151.645,411.699c-99.546,70.939-181.237,164.525-238.12,273.335 C27.568,1767.24-5.231,1922.769,0.677,2094.455h392.842c-8.334-242.228,101.018-374.178,194.224-430.88 c135.606-82.495,314.119-84.708,454.779-5.631c69.688,39.175,123.892,94.989,161.108,165.889 c38.904,74.125,58.631,169.659,58.631,270.621h393.075C1655.336,1918.171,1615.965,1752.953,1538.318,1616.726z M820.393,1189.833 c-133.814,0-242.678-108.865-242.678-242.678s108.865-242.678,242.678-242.678s242.678,108.865,242.678,242.678 S954.206,1189.833,820.393,1189.833z"/>


  <path id="big-person" class="st1" d="M1441.808,1671.735c-61.904-108.608-152.191-198.378-261.102-259.602
    c-20.963-11.784-42.461-22.429-64.374-31.979c138.005-94.618,228.728-253.404,228.728-433
    c0-289.303-235.364-524.667-524.667-524.667S295.725,657.851,295.725,947.154c0,179.356,90.482,337.955,228.176,432.618
    c-28.414,12.42-56.076,26.686-82.717,42.892c-103.735,63.106-188.308,153.353-244.573,260.987
    c-61.583,117.808-90.153,258.559-84.915,410.804h170.802c-7.944-230.872,79.956-423.855,247.508-525.783
    c169.336-103.015,391.876-105.984,566.951-7.562c178.233,100.194,276.39,293.966,276.39,533.346h170.902
    C1544.249,1937.702,1509.783,1790.993,1441.808,1671.735z M820.393,593.39c195.067,0,353.765,158.698,353.765,353.765
    s-158.698,353.765-353.765,353.765s-353.765-158.698-353.765-353.765S625.326,593.39,820.393,593.39z"/>
  </g>

  <polygon id="star-2" class="st0 stars" points="1881.798,336.301 1699.985,253.663 1617.347,71.85 1534.709,253.663 1352.896,336.301 
    1534.709,418.938 1617.347,600.752 1699.985,418.938 "/>

  <polygon id="star-1" class="st0 stars" points="2138.985,182.302 2049.732,139.253 2006.683,50 1967.094,139.253 1874.534,182.302 1967.094,221.89 2006.683,314.451 2049.732,221.89 "/>

</svg>