<svg xmlns="http://www.w3.org/2000/svg" viewBox="0 0 175 175">
  <path style="fill: #00a0da" d="M118.731,11.09H56.269a14.015,14.015,0,0,0-14,14V149.91a14.015,14.015,0,0,0,14,14h62.462a14.015,14.015,0,0,0,14-14V25.09A14.015,14.015,0,0,0,118.731,11.09Zm-62.462,8h62.462a6.006,6.006,0,0,1,6,6v3.757H50.269V25.09A6.006,6.006,0,0,1,56.269,19.09Zm68.462,17.757v83.321H50.269V36.847Zm-6,119.063H56.269a6.006,6.006,0,0,1-6-6V128.168h74.462V149.91A6.006,6.006,0,0,1,118.731,155.91ZM96.51,141.838a9.011,9.011,0,1,1-9.01-9.01A9.01,9.01,0,0,1,96.51,141.838Z"/>
</svg>
