<svg xmlns="http://www.w3.org/2000/svg" viewBox="0 0 175 175">
  <path style="fill: #00a0da" d="M134.731,25.089V149.91a16.017,16.017,0,0,1-16,16H56.269a16.017,16.017,0,0,1-16-16V25.089a16.017,16.017,0,0,1,16-16h62.462A16.017,16.017,0,0,1,134.731,25.089ZM49.269,31.847h76.462V25.089a7.008,7.008,0,0,0-7-7H56.269a7.008,7.008,0,0,0-7,7Zm0,2v89.321h76.462V33.847ZM125.731,149.91V125.168H49.269V149.91a7.008,7.008,0,0,0,7,7h62.462A7.008,7.008,0,0,0,125.731,149.91Zm-30.583-9.172a7.648,7.648,0,1,0-7.648,7.648A7.656,7.656,0,0,0,95.148,140.738Zm-2,0A5.648,5.648,0,1,1,87.5,135.09,5.655,5.655,0,0,1,93.148,140.738Z"/>
</svg>
