<svg version="1.1" xmlns="http://www.w3.org/2000/svg" xmlns:xlink="http://www.w3.org/1999/xlink" x="0px" y="0px" style="enable-background:new 0 0 212.922 154.492;" xml:space="preserve" viewBox="0 0 212.922 154.492">
  <defs>
    <style type="text/css">
      #spinning-gear {
        animation-duration: 3s;
        animation-iteration-count: infinite;
        transform-origin: 106.461px 77.246px;
        fill: #00a0da;
        animation-name: spinning-gear-animation;
      }

      @keyframes spinning-gear-animation {
        to { transform: rotate(-360deg) }
      }
    </style>
  </defs>
  <path id="spinning-gear" d="M112.409,10.371,115.944,31.1l.474,2.782,2.691.852a45.425,45.425,0,0,1,8.35,3.6l2.57,1.431,2.387-1.719L147.7,27.035l9.174,9.238-11.207,15.69-1.63,2.281,1.267,2.5a47.043,47.043,0,0,1,2.768,6.7l.867,2.668,2.766.466,21.19,3.568-.051,13.1-20.713,3.418-2.88.475-.812,2.8A46.883,46.883,0,0,1,145,98.529l-1.318,2.531,1.67,2.315,11.674,16.181-9.318,9.384-16.1-11.663-2.358-1.708-2.561,1.387a44.813,44.813,0,0,1-7.3,3.149l-2.678.883-.444,2.785-3.241,20.348H100.035L96.8,124.255l-.468-2.883-2.8-.817a40.592,40.592,0,0,1-7.67-3.12l-2.52-1.339-2.329,1.65L64.241,129.631l-9.193-9.258,11.7-16.352,1.684-2.353-1.379-2.544a47.53,47.53,0,0,1-3.818-9.274l-.822-2.808-2.889-.463-19.391-3.1-.1-13.308,19.839-3.249,2.782-.456.872-2.681a45.609,45.609,0,0,1,3.132-7.36L68,53.891,66.34,51.556,54.877,35.45l9.176-9.24L79.994,37.716l2.342,1.691,2.547-1.361a52.167,52.167,0,0,1,7.924-3.42l2.63-.884.46-2.737,3.461-20.634h13.051m3.914-4.628H95.449l-4.109,24.5a56.612,56.612,0,0,0-8.629,3.725L63.563,20.143,48.852,34.957,62.576,54.239a50.07,50.07,0,0,0-3.451,8.111l-23.75,3.889.164,21.186L58.8,91.15a52.08,52.08,0,0,0,4.191,10.179L49.017,120.86l14.71,14.813L83.7,121.522A45.132,45.132,0,0,0,92.244,125l3.862,23.751H116.98l3.863-24.248a49.355,49.355,0,0,0,8.053-3.476l19.313,13.986,14.874-14.979-13.97-19.365a51.41,51.41,0,0,0,3.78-9.435l24.572-4.055.082-20.938-25.065-4.22a51.467,51.467,0,0,0-3.041-7.366l13.478-18.869-14.71-14.813L129.718,34.3a49.839,49.839,0,0,0-9.2-3.973L116.323,5.743Zm-9.862,51.45a19.667,19.667,0,0,1,14.046,5.862,20.193,20.193,0,0,1,0,28.382,19.759,19.759,0,0,1-28.092,0,20.191,20.191,0,0,1,0-28.382,19.665,19.665,0,0,1,14.046-5.862m0-4.628a24.345,24.345,0,0,0-17.33,7.229,24.8,24.8,0,0,0,0,34.9,24.387,24.387,0,0,0,34.66,0,24.8,24.8,0,0,0,0-34.9,24.345,24.345,0,0,0-17.33-7.229Z"/>
</svg>
