<svg xmlns="http://www.w3.org/2000/svg" viewBox="0 0 1290.4 233.49">
  <defs>
    <style>
      .blue-star {
        fill: #36b3e7;
      }
      .white-star {
        fill: #e3e0db;
      }
    </style>
  </defs>
  <circle class="circular-star blue-star" cx="1057.87" cy="87.92" r="2.13"/>
  <circle class="circular-star blue-star" cx="1101.92" cy="192.13" r="3.14"/>
  <circle class="circular-star blue-star" cx="1220.79" cy="156.26" r="2.13"/>
  <circle class="circular-star blue-star" cx="1223.41" cy="75.92" r="1.92"/>
  <circle class="circular-star blue-star" cx="124.75" cy="177.51" r="2.13"/>
  <circle class="circular-star blue-star" cx="158.62" cy="105.28" r="1.92"/>
  <circle class="circular-star blue-star" cx="256.07" cy="1.93" r="1.92"/>
  <circle class="circular-star blue-star" cx="453.92" cy="164.13" r="3.14"/>
  <circle class="circular-star blue-star" cx="568.67" cy="34" r="1.92"/>
  <circle class="circular-star blue-star" cx="71.59" cy="116.7" r="2.13"/>
  <circle class="circular-star blue-star" cx="754.08" cy="4.59" r="1.92"/>
  <circle class="circular-star blue-star" cx="882.66" cy="26" r="1.92"/>
  <circle class="circular-star blue-star" cx="904" cy="51.18" r="1.92"/>
  <circle class="circular-star blue-star" cx="1138.57" cy="85.24" r="1.92"/>
  <circle class="circular-star blue-star" cx="213.86" cy="85.48" r="1.92"/>
  <circle class="circular-star blue-star" cx="460" cy="6" r="1.92"/>
  <circle class="circular-star blue-star" cx="6.19" cy="104.15" r="3.13"/>
  <circle class="circular-star blue-star" cx="68.46" cy="181.42" r="2.13"/>
  <circle class="circular-star white-star" cx="1090.58" cy="71.26" r="1.92"/>
  <circle class="circular-star white-star" cx="117.45" cy="134.47" r="4.87"/>
  <circle class="circular-star white-star" cx="1181.66" cy="191.38" r="3.13"/>
  <circle class="circular-star white-star" cx="1182.11" cy="107.8" r="4.87"/>
  <circle class="circular-star white-star" cx="1285.53" cy="85.26" r="4.87"/>
  <circle class="circular-star white-star" cx="162.1" cy="54.02" r="1.92"/>
  <circle class="circular-star white-star" cx="198.06" cy="9.56" r="1.92"/>
  <circle class="circular-star white-star" cx="226.75" cy="88.26" r="1.92"/>
  <circle class="circular-star white-star" cx="252.17" cy="144.11" r="1.92"/>
  <circle class="circular-star white-star" cx="388" cy="16.67" r="1.92"/>
  <circle class="circular-star white-star" cx="465.59" cy="155.26" r="1.92"/>
  <circle class="circular-star white-star" cx="5.05" cy="199.09" r="1.92"/>
  <circle class="circular-star white-star" cx="61.69" cy="2.1" r="1.92"/>
  <circle class="circular-star white-star" cx="1228.85" cy="34.81" r="3.13"/>
  <circle class="circular-star white-star" cx="167.12" cy="219.06" r="1.92"/>
  <circle class="circular-star white-star" cx="619.45" cy="33.8" r="4.87"/>
  <circle class="circular-star white-star" cx="68.46" cy="230.36" r="3.13"/>
  <circle class="circular-star white-star" cx="780.67" cy="5.18" r="1.92"/>
  <circle class="circular-star white-star" cx="885.13" cy="50.257" r="3.13"/>
  <path class="crooked-star blue-star" d="M202.07,153.44a.67.67,0,0,0,.18.45l-11.06,13-1.37-9.71a.64.64,0,0,0,.6-.68.63.63,0,0,0-.68-.6.64.64,0,0,0,0,1.28l-.72,9.9-8.56-5.61a.64.64,0,0,0-.41-.82h0a.66.66,0,1,0,.39.92l7.72,8.07-13.1,7.24a.65.65,0,0,0-.9-.18.66.66,0,0,0-.23.83.65.65,0,0,0,1.19-.5l13.53-3.51-1.35,12.14a.65.65,0,0,0-.76.51.66.66,0,0,0,.52.76.65.65,0,0,0,.36-1.24l4.08-11.79,10.42,7a.64.64,0,0,0,0,.91.65.65,0,0,0,1-.87h0a.64.64,0,0,0-.78-.13l-8.34-9.45,12.44-4.51a.63.63,0,0,0,.72.56.64.64,0,0,0,.56-.72.66.66,0,0,0-.72-.56.64.64,0,0,0-.56.56l-12.35,1.41L202.37,154a.65.65,0,1,0-.18-.91A.66.66,0,0,0,202.07,153.44Z"/>
  <path class="crooked-star blue-star" d="M981.055,7.527a.753.753,0,0,0,.212.532L968.159,23.442l-1.627-11.493a.756.756,0,1,0-.085,0l-.859,11.723L955.45,17.018a.78.78,0,1,0-1.482-.49h0a.781.781,0,0,0,1.434.605l9.182,9.527-15.54,8.577a.784.784,0,1,0,.067.163l16.042-4.143-1.591,14.378a.772.772,0,1,0,.139.043l4.839-13.973,12.346,8.329a.785.785,0,1,0,.151-.1l-9.884-11.2,14.73-5.36a.763.763,0,1,0,0-.193l-14.639,1.669L981.4,8.156a.768.768,0,1,0-.211-1.071.8.8,0,0,0-.128.436Z"/>
  <path class="crooked-star white-star" d="M112.48,84.42a1.27,1.27,0,0,0-.88.35L86.18,63.1l19-2.7a1.24,1.24,0,1,0,0-.14L85.77,58.85l11-16.76a1.3,1.3,0,0,0,1.63-.82A1.29,1.29,0,0,0,96,40.46,1.3,1.3,0,0,0,96.6,42L80.85,57.19,66.67,31.49a1.26,1.26,0,1,0-.27.12l6.85,26.52L49.49,55.47a1.27,1.27,0,1,0-1.51,1,1.29,1.29,0,0,0,1.44-.77l23.1,8L58.75,84.11a1.33,1.33,0,1,0,.17.26L77.44,68.05,86.29,92.4a1.27,1.27,0,1,0,.32,0L83.86,68.2,111.44,85a1.28,1.28,0,1,0,1.77-.35,1.21,1.21,0,0,0-.71-.21Z"/>
  <path class="crooked-star white-star" d="M1184.4,57.3a.67.67,0,0,0-.45.18l-13-11.06,9.7-1.38a.65.65,0,0,0,.69.61.65.65,0,0,0-.08-1.29.65.65,0,0,0-.61.61l-9.89-.72,5.61-8.56a.65.65,0,0,0,.82-.41h0a.66.66,0,0,0-1.25-.4.66.66,0,0,0,.32.79l-8.06,7.72L1161,30.28a.67.67,0,0,0,.17-.91.65.65,0,0,0-.82-.22.65.65,0,0,0,.5,1.19l3.5,13.53-12.13-1.35a.66.66,0,0,0-.52-.76.65.65,0,0,0-.75.52.63.63,0,0,0,.51.75.64.64,0,0,0,.72-.39l11.8,4.08-7,10.42a.64.64,0,0,0-.91,0,.65.65,0,0,0,0,.92.66.66,0,0,0,.92,0h0a.64.64,0,0,0,.13-.78l9.45-8.34L1171,61.36a.64.64,0,1,0,.16,0L1169.74,49l14.08,8.58a.65.65,0,1,0,.91-.18A.66.66,0,0,0,1184.4,57.3Z"/>
  <path class="straight-star blue-star" d="M1138.1,170.13l-1.45-17.08-5.06,1.79,2-4.94-16.26-1.57,0-.37,16.16-1.4-1.9-4.87,5.05,1.82,1.39-16.86h.35l1.67,16.79,4.74-1.86-1.59,5,16,1.56,0,.38-16,1.43,1.51,4.75-4.71-1.74-1.65,17.15Z"/>
  <path class="straight-star blue-star" d="M140.45,24.84c-.27-3.22-.55-6.45-.82-9.75l-2.89,1,1.16-2.82-9.29-.9v-.21l9.22-.8L136.74,8.6l2.88,1c.27-3.27.53-6.45.8-9.63h.2l.95,9.59,2.71-1.06-.91,2.87,9.14.89,0,.22-9.13.82.86,2.71-2.69-1-.94,9.79Z"/>
  <path class="straight-star blue-star" d="M491.75,49.7c-.28-3.23-.55-6.45-.83-9.76L488,41l1.17-2.82-9.29-.89,0-.22,9.23-.8L488,33.45l2.89,1c.27-3.26.53-6.45.79-9.63h.21l.95,9.6,2.71-1.06-.91,2.87,9.14.89v.21l-9.13.82.87,2.71-2.69-1-.94,9.8Z"/>
  <path class="straight-star blue-star" d="M1269.62,166.39l-.6-7-2.09.74.84-2-6.71-.65v-.15l6.67-.58-.79-2,2.09.75.57-7h.15l.69,6.94,2-.77-.66,2.07,6.61.65v.16l-6.6.59.63,2-2-.72-.68,7.08Z"/>
  <path class="straight-star white-star" d="M1043.88,45.05l-1.06-12.53-3.71,1.31,1.5-3.62-11.94-1.15,0-.28,11.86-1-1.4-3.58,3.7,1.34c.35-4.2.69-8.29,1-12.37h.27l1.22,12.32,3.48-1.36-1.17,3.68,11.74,1.15,0,.28-11.73,1.05,1.12,3.48-3.46-1.28-1.21,12.59Z"/>
  <path class="straight-star white-star" d="M33.44,162.13,32,145.05l-5.06,1.79,2-4.94-16.26-1.57,0-.37,16.15-1.4-1.9-4.87L32,135.51l1.39-16.86h.36l1.66,16.79,4.75-1.86-1.6,5,16,1.56,0,.38-16,1.43,1.52,4.75L35.39,145l-1.64,17.15Z"/>
  <path class="straight-star white-star" d="M8.57,60,8,52.92l-2.09.74.85-2L0,51v-.16l6.67-.58-.79-2L8,49l.57-7h.15L9.38,49l2-.77-.66,2.08,6.61.64v.16l-6.6.59.63,2-1.95-.72L8.7,60Z"/>
</svg>
