<svg xmlns="http://www.w3.org/2000/svg" viewBox="0 0 175 175">
  <path style="fill: #00a0da" d="M87.689,123.509A36.066,36.066,0,1,1,113.2,61.945h0a36.057,36.057,0,0,1-25.508,61.564Zm0-64.117A28.061,28.061,0,1,0,107.54,67.6,27.986,27.986,0,0,0,87.689,59.392Zm3.836-22.251V18.178a4,4,0,1,0-8,0V37.141a4,4,0,0,0,8,0ZM54.738,54.7a4,4,0,0,0,0-5.657L41.329,35.635a4,4,0,1,0-5.658,5.657L49.081,54.7a4,4,0,0,0,5.657,0Zm-13.6,32.773a4,4,0,0,0-4-4H18.178a4,4,0,1,0,0,8H37.142A4,4,0,0,0,41.142,87.474Zm.15,51.854,13.41-13.41a4,4,0,0,0-5.658-5.656L35.635,133.671a4,4,0,1,0,5.657,5.657Zm50.182,17.494V137.858a4,4,0,0,0-8,0v18.964a4,4,0,0,0,8,0Zm47.854-17.458a4,4,0,0,0,0-5.656L125.919,120.3a4,4,0,1,0-5.657,5.657l13.409,13.409a4,4,0,0,0,5.657,0Zm21.494-51.839a4,4,0,0,0-4-4H137.858a4,4,0,0,0,0,8h18.964A4,4,0,0,0,160.822,87.525ZM125.956,54.737l13.409-13.409a4,4,0,0,0-5.657-5.657L120.3,49.081a4,4,0,0,0,5.658,5.656ZM69.5,44.493a4,4,0,0,0,2.165-5.227l-3.637-8.779a4,4,0,1,0-7.39,3.062l3.636,8.78A4,4,0,0,0,69.5,44.493ZM44.362,69.817A4,4,0,0,0,42.2,64.591l-8.78-3.636a4,4,0,1,0-3.061,7.39l8.78,3.637a3.995,3.995,0,0,0,5.226-2.165ZM33.548,114.362l8.781-3.637a4,4,0,0,0-3.062-7.391l-8.78,3.637a4,4,0,1,0,3.061,7.391Zm34.8,30.282,3.637-8.779a4,4,0,0,0-7.391-3.063l-3.637,8.78a4,4,0,1,0,7.391,3.062Zm43.853,2.033a4,4,0,0,0,2.164-5.225l-3.636-8.781a4,4,0,0,0-7.391,3.061l3.637,8.78a3.995,3.995,0,0,0,5.226,2.165Zm34.611-34.8a4,4,0,0,0-2.165-5.225l-8.78-3.637a4,4,0,0,0-3.061,7.391l8.78,3.636a3.995,3.995,0,0,0,5.226-2.165ZM135.733,71.665l8.78-3.637a4,4,0,0,0-3.062-7.391l-8.78,3.637a4,4,0,1,0,3.062,7.391ZM110.409,42.2l3.636-8.78a4,4,0,1,0-7.39-3.061l-3.637,8.78a4,4,0,1,0,7.391,3.061Z"/>
</svg>
