<svg xmlns="http://www.w3.org/2000/svg" viewBox="0 0 190 190">
  <path style="fill: rgb(30, 32, 36)" d="M95.031,37.416a4.5,4.5,0,0,1-4.5-4.5V9.537a4.5,4.5,0,1,1,9,0V32.916A4.5,4.5,0,0,1,95.031,37.416ZM54.3,54.259a4.5,4.5,0,0,0,0-6.363L37.771,31.365a4.5,4.5,0,0,0-6.363,6.363L47.94,54.259a4.5,4.5,0,0,0,6.364,0Zm74.707,74.434a47.791,47.791,0,1,0-33.757,13.961A47.792,47.792,0,0,0,129.011,128.693Zm-6.364-61.15A38.784,38.784,0,1,1,95.254,56.215,38.784,38.784,0,0,1,122.647,67.543ZM37.415,94.968a4.5,4.5,0,0,0-4.5-4.5H9.536a4.5,4.5,0,0,0,0,9H32.915A4.5,4.5,0,0,0,37.415,94.968Zm.313,63.623L54.259,142.06A4.5,4.5,0,0,0,47.9,135.7L31.364,152.228a4.5,4.5,0,1,0,6.364,6.363Zm61.74,21.872V157.084a4.5,4.5,0,0,0-9,0v23.379a4.5,4.5,0,0,0,9,0Zm59.123-21.827a4.5,4.5,0,0,0,0-6.363L142.06,135.742A4.5,4.5,0,1,0,135.7,142.1l16.532,16.531a4.5,4.5,0,0,0,6.363,0Zm26.373-63.6a4.5,4.5,0,0,0-4.5-4.5h-23.38a4.5,4.5,0,0,0,0,9h23.38A4.5,4.5,0,0,0,184.964,95.032ZM142.1,54.3l16.532-16.532a4.5,4.5,0,1,0-6.364-6.363L135.741,47.941A4.5,4.5,0,1,0,142.1,54.3ZM72.644,41.581A4.5,4.5,0,0,0,75.079,35.7L70.6,24.877a4.5,4.5,0,0,0-8.315,3.444l4.484,10.824a4.5,4.5,0,0,0,5.879,2.436ZM41.418,73.035a4.5,4.5,0,0,0-2.436-5.879L28.158,62.672a4.5,4.5,0,1,0-3.443,8.315L35.539,75.47a4.495,4.495,0,0,0,5.879-2.435Zm-13.1,54.684,10.825-4.484A4.5,4.5,0,0,0,35.7,114.92l-10.824,4.485a4.5,4.5,0,1,0,3.445,8.314Zm42.665,37.566L75.47,154.46a4.5,4.5,0,0,0-8.315-3.443l-4.483,10.824a4.5,4.5,0,1,0,8.314,3.444Zm54.3,2.274a4.5,4.5,0,0,0,2.436-5.879l-4.484-10.825a4.5,4.5,0,1,0-8.314,3.443l4.483,10.826a4.495,4.495,0,0,0,5.879,2.435Zm42.437-42.666a4.5,4.5,0,0,0-2.436-5.879l-10.824-4.483a4.5,4.5,0,1,0-3.443,8.314l10.824,4.484a4.5,4.5,0,0,0,5.879-2.436ZM154.3,75.08,165.123,70.6a4.5,4.5,0,1,0-3.443-8.314l-10.825,4.483A4.5,4.5,0,1,0,154.3,75.08Zm-31.454-36.1,4.483-10.824a4.5,4.5,0,1,0-8.314-3.444L114.53,35.54a4.5,4.5,0,1,0,8.315,3.443Z"/>
</svg>
