<svg xmlns="http://www.w3.org/2000/svg" xmlns:xlink="http://www.w3.org/1999/xlink" viewBox="0 0 533.519 533.454">
  <title>Viewfinder</title>
  <defs>
    <g id="outer-degrees">
      <path d="M1664.092,1364.648h-0.575l0.139-59.314h0.417c0.549,0,1.116,0,1.683-.007l0.226,59.312Q1665.038,1364.648,1664.092,1364.648Z" transform="translate(-1397.228 -831.194)"/>
      <path d="M1658.713,1349.4q-1.224-.026-2.445-0.063l0.95-30.373q1.057,0.033,2.117.054Z" transform="translate(-1397.228 -831.194)"/>
      <path d="M1670.829,1349.37l-0.8-30.378q1.064-.028,2.124-0.067l1.1,30.369Q1672.042,1349.337,1670.829,1349.37Z" transform="translate(-1397.228 -831.194)"/>
      <path d="M1651.43,1349.146q-1.209-.06-2.414-0.131l1.781-30.336q1.069,0.063,2.142.116Z" transform="translate(-1397.228 -831.194)"/>
      <path d="M1678.1,1349.074l-1.688-30.341q1.072-.06,2.142-0.128l1.959,30.324Q1679.312,1349.007,1678.1,1349.074Z" transform="translate(-1397.228 -831.194)"/>
      <path d="M1644.17,1348.682q-1.206-.095-2.41-0.2l2.64-30.274q1.068,0.093,2.138.177Z" transform="translate(-1397.228 -831.194)"/>
      <path d="M1685.362,1348.57l-2.547-30.281q1.069-.09,2.136-0.19l2.819,30.258Q1686.568,1348.468,1685.362,1348.57Z" transform="translate(-1397.228 -831.194)"/>
      <path d="M1636.91,1348.009q-1.2-.13-2.4-0.27l3.53-30.182q1.064,0.125,2.131.239Z" transform="translate(-1397.228 -831.194)"/>
      <path d="M1692.6,1347.859l-3.4-30.2q1.059-.119,2.114-0.249l3.709,30.161Q1693.813,1347.722,1692.6,1347.859Z" transform="translate(-1397.228 -831.194)"/>
      <path d="M1629.687,1347.127q-1.2-.164-2.4-0.339l4.391-30.069q1.059,0.155,2.122.3Z" transform="translate(-1397.228 -831.194)"/>
      <path d="M1699.835,1346.935l-4.293-30.084q1.062-.151,2.119-0.312l4.569,30.042Q1701.035,1346.764,1699.835,1346.935Z" transform="translate(-1397.228 -831.194)"/>
      <path d="M1622.49,1346.036q-1.2-.2-2.4-0.412l5.282-29.925q1.046,0.185,2.1.358Z" transform="translate(-1397.228 -831.194)"/>
      <path d="M1707.027,1345.8l-5.154-29.947q1.056-.183,2.11-0.374l5.428,29.9Q1708.22,1345.6,1707.027,1345.8Z" transform="translate(-1397.228 -831.194)"/>
      <path d="M1615.311,1344.734q-1.189-.234-2.374-0.478l6.139-29.762q1.048,0.217,2.1.423Z" transform="translate(-1397.228 -831.194)"/>
      <path d="M1714.185,1344.465l-6.017-29.787q1.043-.21,2.083-0.431l6.319,29.723Q1715.38,1344.224,1714.185,1344.465Z" transform="translate(-1397.228 -831.194)"/>
      <path d="M1608.186,1343.226q-1.182-.268-2.361-0.548l7-29.571q1.041,0.246,2.085.484Z" transform="translate(-1397.228 -831.194)"/>
      <path d="M1721.316,1342.915l-6.9-29.594q1.042-.243,2.082-0.495l7.178,29.527Q1722.5,1342.64,1721.316,1342.915Z" transform="translate(-1397.228 -831.194)"/>
      <path d="M1601.1,1341.511q-1.175-.3-2.346-0.617l7.861-29.354q1.032,0.276,2.067.544Z" transform="translate(-1397.228 -831.194)"/>
      <path d="M1728.374,1341.163l-7.732-29.388q1.027-.27,2.05-0.55l8.038,29.3Q1729.554,1340.852,1728.374,1341.163Z" transform="translate(-1397.228 -831.194)"/>
      <path d="M1594.073,1339.589q-1.174-.339-2.343-0.691l8.751-29.1q1.015,0.3,2.034.6Z" transform="translate(-1397.228 -831.194)"/>
      <path d="M1735.4,1339.2l-8.595-29.148q1.019-.3,2.035-0.611l8.9,29.057Q1736.567,1338.857,1735.4,1339.2Z" transform="translate(-1397.228 -831.194)"/>
      <path d="M1587.1,1337.463q-1.16-.372-2.316-0.755l9.565-28.843q1.019,0.338,2.041.666Z" transform="translate(-1397.228 -831.194)"/>
      <path d="M1742.36,1337.037l-9.45-28.882q1.015-.332,2.025-0.673l9.73,28.789Q1743.516,1336.659,1742.36,1337.037Z" transform="translate(-1397.228 -831.194)"/>
      <path d="M1580.173,1335.126q-1.155-.407-2.305-0.828l10.425-28.544q1,0.365,2.006.72Z" transform="translate(-1397.228 -831.194)"/>
      <path d="M1749.25,1334.671l-10.283-28.6q1.005-.362,2.006-0.733l10.556,28.5Q1750.392,1334.259,1749.25,1334.671Z" transform="translate(-1397.228 -831.194)"/>
      <path d="M1573.317,1332.589q-1.144-.442-2.282-0.9l11.255-28.227q0.988,0.394,1.981.778Z" transform="translate(-1397.228 -831.194)"/>
      <path d="M1756.071,1332.105l-11.112-28.284q0.993-.39,1.982-0.79l11.388,28.173Q1757.2,1331.661,1756.071,1332.105Z" transform="translate(-1397.228 -831.194)"/>
      <path d="M1566.534,1329.85q-1.117-.47-2.229-0.95l12.037-27.9q0.988,0.426,1.981.845Z" transform="translate(-1397.228 -831.194)"/>
      <path d="M1762.8,1329.346l-11.935-27.946q0.977-.417,1.948-0.843l12.209,27.827Q1763.913,1328.871,1762.8,1329.346Z" transform="translate(-1397.228 -831.194)"/>
      <path d="M1559.847,1326.919q-1.112-.506-2.218-1.023l12.87-27.529q0.965,0.451,1.936.894Z" transform="translate(-1397.228 -831.194)"/>
      <path d="M1769.427,1326.4l-12.726-27.594q0.961-.443,1.918-0.9l13.009,27.462Q1770.53,1325.893,1769.427,1326.4Z" transform="translate(-1397.228 -831.194)"/>
      <path d="M1553.242,1323.792q-1.093-.536-2.182-1.085l13.661-27.145q0.955,0.481,1.915.953Z" transform="translate(-1397.228 -831.194)"/>
      <path d="M1775.98,1323.26l-13.531-27.21q0.95-.472,1.894-0.953l13.8,27.072Q1777.067,1322.72,1775.98,1323.26Z" transform="translate(-1397.228 -831.194)"/>
      <path d="M1546.732,1320.474q-1.081-.571-2.154-1.151l14.464-26.725q0.937,0.507,1.88,1Z" transform="translate(-1397.228 -831.194)"/>
      <path d="M1782.429,1319.936l-14.3-26.814q0.935-.5,1.863-1.007l14.575,26.665Q1783.5,1319.364,1782.429,1319.936Z" transform="translate(-1397.228 -831.194)"/>
      <path d="M1540.325,1316.971q-1.058-.6-2.111-1.208l15.221-26.3q0.926,0.536,1.858,1.063Z" transform="translate(-1397.228 -831.194)"/>
      <path d="M1788.8,1316.416l-15.085-26.38q0.924-.529,1.843-1.065l15.339,26.233Q1789.847,1315.815,1788.8,1316.416Z" transform="translate(-1397.228 -831.194)"/>
      <path d="M1534.03,1313.287q-1.044-.631-2.081-1.272l15.986-25.843q0.906,0.56,1.819,1.112Z" transform="translate(-1397.228 -831.194)"/>
      <path d="M1795.049,1312.721l-15.835-25.936q0.908-.554,1.809-1.117l16.091,25.778Q1796.085,1312.088,1795.049,1312.721Z" transform="translate(-1397.228 -831.194)"/>
      <path d="M1527.844,1309.422q-1.025-.661-2.043-1.332l16.726-25.371q0.89,0.586,1.785,1.164Z" transform="translate(-1397.228 -831.194)"/>
      <path d="M1801.2,1308.844l-16.574-25.47q0.889-.579,1.773-1.167l16.832,25.3Q1802.215,1308.18,1801.2,1308.844Z" transform="translate(-1397.228 -831.194)"/>
      <path d="M1521.772,1305.38q-1-.689-2-1.388l17.449-24.879q0.874,0.613,1.753,1.217Z" transform="translate(-1397.228 -831.194)"/>
      <path d="M1807.227,1304.791l-17.3-24.986q0.873-.6,1.739-1.218l17.549,24.809Q1808.226,1304.1,1807.227,1304.791Z" transform="translate(-1397.228 -831.194)"/>
      <path d="M1515.818,1301.161q-0.978-.714-1.949-1.438l18.152-24.371q0.861,0.641,1.727,1.274Z" transform="translate(-1397.228 -831.194)"/>
      <path d="M1813.147,1300.56l-18.016-24.471q0.856-.63,1.7-1.269l18.262,24.289Q1814.126,1299.84,1813.147,1300.56Z" transform="translate(-1397.228 -831.194)"/>
      <path d="M1510,1296.778q-0.959-.744-1.909-1.5l18.855-23.831q0.84,0.664,1.685,1.32Z" transform="translate(-1397.228 -831.194)"/>
      <path d="M1818.941,1296.162l-18.716-23.94q0.839-.656,1.672-1.32l18.949,23.756Q1819.9,1295.415,1818.941,1296.162Z" transform="translate(-1397.228 -831.194)"/>
      <path d="M1504.307,1292.234q-0.938-.772-1.869-1.553l19.531-23.28q0.818,0.686,1.643,1.364Z" transform="translate(-1397.228 -831.194)"/>
      <path d="M1824.612,1291.6l-19.407-23.384q0.822-.682,1.638-1.372l19.625,23.2Q1825.544,1290.822,1824.612,1291.6Z" transform="translate(-1397.228 -831.194)"/>
      <path d="M1498.747,1287.523q-0.915-.8-1.822-1.605l20.2-22.7q0.8,0.709,1.6,1.411Z" transform="translate(-1397.228 -831.194)"/>
      <path d="M1830.141,1286.873l-20.064-22.822q0.8-.7,1.6-1.416l20.283,22.628Q1831.052,1286.072,1830.141,1286.873Z" transform="translate(-1397.228 -831.194)"/>
      <path d="M1493.329,1282.658q-0.892-.824-1.775-1.657l20.841-22.115q0.777,0.732,1.561,1.457Z" transform="translate(-1397.228 -831.194)"/>
      <path d="M1835.539,1281.987l-20.718-22.231q0.782-.729,1.558-1.465l20.924,22.037Q1836.425,1281.162,1835.539,1281.987Z" transform="translate(-1397.228 -831.194)"/>
      <path d="M1477.485,1288.211q-0.869-.851-1.73-1.71l41.574-41.6q0.753,0.752,1.514,1.5Z" transform="translate(-1397.228 -831.194)"/>
      <path d="M1851.216,1287.382l-41.507-41.8q0.758-.747,1.508-1.5l41.722,41.589Q1852.082,1286.528,1851.216,1287.382Z" transform="translate(-1397.228 -831.194)"/>
      <path d="M1482.925,1272.47q-0.842-.873-1.676-1.755l22.08-20.879q0.733,0.776,1.474,1.544Z" transform="translate(-1397.228 -831.194)"/>
      <path d="M1845.9,1271.761l-21.964-21q0.739-.774,1.472-1.554L1847.568,1270Q1846.739,1270.885,1845.9,1271.761Z" transform="translate(-1397.228 -831.194)"/>
      <path d="M1477.95,1267.16q-0.817-.9-1.625-1.8L1499,1245.121q0.71,0.8,1.428,1.584Z" transform="translate(-1397.228 -831.194)"/>
      <path d="M1850.858,1266.429l-22.556-20.363q0.717-.795,1.427-1.6l22.745,20.152Q1851.67,1265.53,1850.858,1266.429Z" transform="translate(-1397.228 -831.194)"/>
      <path d="M1473.128,1261.705q-0.788-.919-1.569-1.844l23.241-19.578q0.689,0.818,1.385,1.628Z" transform="translate(-1397.228 -831.194)"/>
      <path d="M1855.661,1260.955l-23.131-19.708q0.692-.813,1.377-1.632l23.321,19.483Q1856.449,1260.03,1855.661,1260.955Z" transform="translate(-1397.228 -831.194)"/>
      <path d="M1468.47,1256.123q-0.763-.943-1.518-1.893l23.8-18.9q0.663,0.835,1.334,1.663Z" transform="translate(-1397.228 -831.194)"/>
      <path d="M1860.3,1255.343l-23.687-19.036q0.669-.832,1.33-1.671l23.87,18.806Q1861.065,1254.4,1860.3,1255.343Z" transform="translate(-1397.228 -831.194)"/>
      <path d="M1463.972,1250.4q-0.734-.962-1.46-1.931l24.326-18.211q0.64,0.855,1.288,1.7Z" transform="translate(-1397.228 -831.194)"/>
      <path d="M1864.789,1249.593l-24.232-18.337q0.646-.854,1.284-1.714l24.4,18.11Q1865.521,1248.626,1864.789,1249.593Z" transform="translate(-1397.228 -831.194)"/>
      <path d="M1459.642,1244.558q-0.7-.98-1.4-1.968l24.839-17.505q0.617,0.875,1.24,1.743Z" transform="translate(-1397.228 -831.194)"/>
      <path d="M1869.1,1243.728l-24.739-17.647q0.618-.867,1.228-1.74l24.917,17.4Q1869.806,1242.735,1869.1,1243.728Z" transform="translate(-1397.228 -831.194)"/>
      <path d="M1455.486,1238.6q-0.679-1-1.348-2.014l25.337-16.777q0.588,0.887,1.184,1.771Z" transform="translate(-1397.228 -831.194)"/>
      <path d="M1873.248,1237.725L1848,1220.81q0.594-.887,1.179-1.779l25.411,16.664Q1873.925,1236.714,1873.248,1237.725Z" transform="translate(-1397.228 -831.194)"/>
      <path d="M1451.5,1232.515q-0.648-1.022-1.287-2.05l25.811-16.039q0.563,0.906,1.134,1.806Z" transform="translate(-1397.228 -831.194)"/>
      <path d="M1877.218,1231.607l-25.724-16.178q0.568-.9,1.128-1.813l25.883,15.923Q1877.867,1230.577,1877.218,1231.607Z" transform="translate(-1397.228 -831.194)"/>
      <path d="M1447.694,1226.322q-0.618-1.039-1.227-2.085l26.264-15.286q0.536,0.921,1.081,1.837Z" transform="translate(-1397.228 -831.194)"/>
      <path d="M1881.015,1225.371l-26.187-15.417q0.545-.925,1.081-1.855l26.328,15.175Q1881.629,1224.325,1881.015,1225.371Z" transform="translate(-1397.228 -831.194)"/>
      <path d="M1444.071,1220.027q-0.589-1.058-1.167-2.121l26.694-14.521q0.509,0.935,1.026,1.865Z" transform="translate(-1397.228 -831.194)"/>
      <path d="M1884.627,1219.03L1858,1204.379q0.516-.939,1.025-1.883l26.759,14.4Q1885.212,1217.966,1884.627,1219.03Z" transform="translate(-1397.228 -831.194)"/>
      <path d="M1440.629,1213.626q-0.556-1.071-1.1-2.147l27.1-13.75q0.483,0.952.974,1.9Z" transform="translate(-1397.228 -831.194)"/>
      <path d="M1888.055,1212.582l-27.039-13.868q0.489-.954.97-1.913l27.168,13.614Q1888.609,1211.5,1888.055,1212.582Z" transform="translate(-1397.228 -831.194)"/>
      <path d="M1437.377,1207.133q-0.526-1.089-1.042-2.184l27.491-12.95q0.453,0.963.916,1.92Z" transform="translate(-1397.228 -831.194)"/>
      <path d="M1891.292,1206.042l-27.426-13.085q0.46-.964.91-1.933l27.556,12.81Q1891.817,1204.941,1891.292,1206.042Z" transform="translate(-1397.228 -831.194)"/>
      <path d="M1434.315,1200.55q-0.493-1.1-.976-2.209l27.851-12.155q0.426,0.976.861,1.948Z" transform="translate(-1397.228 -831.194)"/>
      <path d="M1894.343,1199.4l-27.8-12.268q0.433-.982.858-1.968l27.915,12.008Q1894.834,1198.285,1894.343,1199.4Z" transform="translate(-1397.228 -831.194)"/>
      <path d="M1431.446,1193.884q-0.465-1.126-.92-2.257l28.2-11.321q0.4,0.987.8,1.969Z" transform="translate(-1397.228 -831.194)"/>
      <path d="M1897.194,1192.677l-28.141-11.469q0.4-.987.794-1.978l28.258,11.176Q1897.656,1191.545,1897.194,1192.677Z" transform="translate(-1397.228 -831.194)"/>
      <path d="M1428.76,1187.106q-0.431-1.136-.851-2.276l28.516-10.5q0.369,1,.747,2Z" transform="translate(-1397.228 -831.194)"/>
      <path d="M1899.855,1185.857l-28.471-10.623q0.374-1,.74-2.011l28.573,10.346Q1900.282,1184.715,1899.855,1185.857Z" transform="translate(-1397.228 -831.194)"/>
      <path d="M1426.275,1180.257q-0.4-1.147-.785-2.3l28.808-9.671q0.34,1.012.689,2.019Z" transform="translate(-1397.228 -831.194)"/>
      <path d="M1902.312,1178.971l-28.768-9.791q0.346-1.015.682-2.035l28.86,9.516Q1902.7,1177.818,1902.312,1178.971Z" transform="translate(-1397.228 -831.194)"/>
      <path d="M1423.989,1173.335q-0.363-1.157-.716-2.318l29.077-8.829q0.311,1.023.631,2.042Z" transform="translate(-1397.228 -831.194)"/>
      <path d="M1904.569,1172.008l-29.043-8.94q0.314-1.022.619-2.047l29.126,8.667Q1904.926,1170.85,1904.569,1172.008Z" transform="translate(-1397.228 -831.194)"/>
      <path d="M1421.908,1166.354q-0.331-1.17-.65-2.345l29.325-7.968q0.279,1.028.569,2.053Z" transform="translate(-1397.228 -831.194)"/>
      <path d="M1906.611,1165.017l-29.289-8.1q0.284-1.026.558-2.056l29.369,7.8Q1906.935,1163.845,1906.611,1165.017Z" transform="translate(-1397.228 -831.194)"/>
      <path d="M1420.03,1159.311q-0.3-1.179-.581-2.362l29.545-7.108q0.249,1.037.509,2.069Z" transform="translate(-1397.228 -831.194)"/>
      <path d="M1908.45,1157.963l-29.513-7.237q0.254-1.036.5-2.074l29.583,6.948Q1908.739,1156.784,1908.45,1157.963Z" transform="translate(-1397.228 -831.194)"/>
      <path d="M1418.359,1152.219q-0.262-1.187-.512-2.378l29.739-6.247q0.219,1.044.448,2.084Z" transform="translate(-1397.228 -831.194)"/>
      <path d="M1910.084,1150.856l-29.714-6.364q0.224-1.046.438-2.1l29.772,6.088Q1910.337,1149.673,1910.084,1150.856Z" transform="translate(-1397.228 -831.194)"/>
      <path d="M1416.893,1145.076q-0.225-1.189-.44-2.381l29.906-5.391q0.19,1.054.39,2.106Z" transform="translate(-1397.228 -831.194)"/>
      <path d="M1911.505,1143.721l-29.883-5.517q0.193-1.046.375-2.094l29.938,5.214Q1911.726,1142.524,1911.505,1143.721Z" transform="translate(-1397.228 -831.194)"/>
      <path d="M1415.639,1137.9q-0.192-1.2-.373-2.406l30.053-4.5q0.157,1.053.326,2.1Z" transform="translate(-1397.228 -831.194)"/>
      <path d="M1912.722,1136.535l-30.031-4.642q0.162-1.051.315-2.106l30.076,4.339Q1912.908,1135.333,1912.722,1136.535Z" transform="translate(-1397.228 -831.194)"/>
      <path d="M1414.592,1130.695q-0.157-1.2-.3-2.409l30.169-3.642q0.128,1.062.266,2.119Z" transform="translate(-1397.228 -831.194)"/>
      <path d="M1913.729,1129.32l-30.154-3.769q0.132-1.058.254-2.12l30.189,3.479Q1913.879,1128.117,1913.729,1129.32Z" transform="translate(-1397.228 -831.194)"/>
      <path d="M1413.754,1123.458q-0.122-1.209-.233-2.422l30.263-2.754q0.1,1.062.2,2.12Z" transform="translate(-1397.228 -831.194)"/>
      <path d="M1914.527,1122.079l-30.25-2.893q0.1-1.063.193-2.129l30.276,2.606Q1914.642,1120.873,1914.527,1122.079Z" transform="translate(-1397.228 -831.194)"/>
      <path d="M1413.126,1116.2q-0.087-1.208-.163-2.419l30.329-1.9q0.067,1.068.144,2.134Z" transform="translate(-1397.228 -831.194)"/>
      <path d="M1915.116,1114.819l-30.321-2.017q0.071-1.066.132-2.135l30.338,1.732Q1915.2,1113.611,1915.116,1114.819Z" transform="translate(-1397.228 -831.194)"/>
      <path d="M1412.706,1108.933q-0.052-1.206-.093-2.413l30.371-1.026q0.036,1.066.082,2.129Z" transform="translate(-1397.228 -831.194)"/>
      <path d="M1915.5,1107.555l-30.366-1.157q0.041-1.064.07-2.131l30.376,0.858Q1915.542,1106.342,1915.5,1107.555Z" transform="translate(-1397.228 -831.194)"/>
      <path d="M1397.252,1101.682q-0.018-1.213-.025-2.429l59.254-.163q0.006,1.067.022,2.132Z" transform="translate(-1397.228 -831.194)"/>
      <path d="M1930.735,1100.274l-58.909-.282q0.01-1.069.01-2.14l13.455-.348h45.455v0.348Q1930.747,1099.064,1930.735,1100.274Z" transform="translate(-1397.228 -831.194)"/>
      <path d="M1442.875,1094.817l-30.385-.415q0.017-1.212.044-2.423l30.38,0.7Q1442.889,1093.745,1442.875,1094.817Z" transform="translate(-1397.228 -831.194)"/>
      <path d="M1885.245,1093.253q-0.022-1.068-.054-2.134l30.375-.907q0.036,1.207.06,2.417Z" transform="translate(-1397.228 -831.194)"/>
      <path d="M1443.052,1088.4l-30.361-1.273q0.051-1.212.113-2.422l30.348,1.558Q1443.1,1087.334,1443.052,1088.4Z" transform="translate(-1397.228 -831.194)"/>
      <path d="M1885.022,1086.846q-0.052-1.066-.115-2.129l30.336-1.78q0.071,1.213.13,2.428Z" transform="translate(-1397.228 -831.194)"/>
      <path d="M1443.413,1082.008l-30.312-2.147q0.086-1.211.183-2.418l30.291,2.433Q1443.488,1080.94,1443.413,1082.008Z" transform="translate(-1397.228 -831.194)"/>
      <path d="M1884.618,1080.452q-0.083-1.067-.176-2.131l30.273-2.64q0.105,1.207.2,2.417Z" transform="translate(-1397.228 -831.194)"/>
      <path d="M1443.956,1075.626l-30.237-3.021q0.121-1.208.253-2.413l30.207,3.308Q1444.062,1074.561,1443.956,1075.626Z" transform="translate(-1397.228 -831.194)"/>
      <path d="M1884.029,1074.068q-0.113-1.06-.236-2.117l30.184-3.515q0.141,1.207.27,2.418Z" transform="translate(-1397.228 -831.194)"/>
      <path d="M1444.684,1069.255l-30.14-3.88q0.156-1.209.323-2.413l30.1,4.183Q1444.82,1068.2,1444.684,1069.255Z" transform="translate(-1397.228 -831.194)"/>
      <path d="M1883.258,1067.717q-0.144-1.059-.3-2.115l30.069-4.391q0.175,1.2.339,2.4Z" transform="translate(-1397.228 -831.194)"/>
      <path d="M1445.595,1062.917l-30.014-4.753q0.191-1.2.393-2.4l29.964,5.058Q1445.761,1061.865,1445.595,1062.917Z" transform="translate(-1397.228 -831.194)"/>
      <path d="M1882.3,1061.387q-0.175-1.054-.359-2.1l29.928-5.265q0.21,1.2.409,2.393Z" transform="translate(-1397.228 -831.194)"/>
      <path d="M1446.689,1056.611l-29.862-5.629q0.224-1.19.46-2.377l29.809,5.9Q1446.888,1055.558,1446.689,1056.611Z" transform="translate(-1397.228 -831.194)"/>
      <path d="M1881.164,1055.088q-0.206-1.052-.422-2.1l29.764-6.125q0.244,1.185.477,2.374Z" transform="translate(-1397.228 -831.194)"/>
      <path d="M1447.965,1050.341l-29.684-6.5q0.259-1.184.529-2.364l29.622,6.779Q1448.194,1049.3,1447.965,1050.341Z" transform="translate(-1397.228 -831.194)"/>
      <path d="M1879.842,1048.821q-0.236-1.044-.482-2.085l29.574-6.986q0.278,1.179.546,2.361Z" transform="translate(-1397.228 -831.194)"/>
      <path d="M1449.425,1044.105l-29.483-7.36q0.294-1.178.6-2.351l29.412,7.639Q1449.684,1043.067,1449.425,1044.105Z" transform="translate(-1397.228 -831.194)"/>
      <path d="M1878.339,1042.6q-0.267-1.036-.542-2.067l29.358-7.847q0.313,1.17.615,2.346Z" transform="translate(-1397.228 -831.194)"/>
      <path d="M1451.065,1037.92l-29.255-8.221q0.329-1.168.667-2.333l29.175,8.5Q1451.354,1036.891,1451.065,1037.92Z" transform="translate(-1397.228 -831.194)"/>
      <path d="M1876.653,1036.416q-0.294-1.023-.6-2.042l29.114-8.706q0.349,1.166.686,2.337Z" transform="translate(-1397.228 -831.194)"/>
      <path d="M1452.885,1031.782l-29-9.068q0.364-1.165.739-2.324l28.915,9.348Q1453.205,1030.757,1452.885,1031.782Z" transform="translate(-1397.228 -831.194)"/>
      <path d="M1874.792,1030.3q-0.327-1.017-.662-2.031l28.848-9.552q0.381,1.151.752,2.307Z" transform="translate(-1397.228 -831.194)"/>
      <path d="M1454.891,1025.677l-28.725-9.915q0.4-1.153.807-2.3l28.628,10.193Q1455.241,1024.663,1454.891,1025.677Z" transform="translate(-1397.228 -831.194)"/>
      <path d="M1872.748,1024.226q-0.353-1-.717-2l28.556-10.393q0.416,1.145.822,2.294Z" transform="translate(-1397.228 -831.194)"/>
      <path d="M1457.076,1019.632l-28.425-10.744q0.431-1.141.873-2.276l28.319,11.02Q1457.456,1018.63,1457.076,1019.632Z" transform="translate(-1397.228 -831.194)"/>
      <path d="M1870.53,1018.221q-0.384-1-.778-1.986L1898,1005.025q0.448,1.129.885,2.263Z" transform="translate(-1397.228 -831.194)"/>
      <path d="M1459.434,1013.661l-28.1-11.575q0.464-1.126.938-2.246l27.986,11.842Q1459.843,1012.668,1459.434,1013.661Z" transform="translate(-1397.228 -831.194)"/>
      <path d="M1868.149,1012.307q-0.413-.982-0.834-1.959l27.9-12.031q0.477,1.108.945,2.222Z" transform="translate(-1397.228 -831.194)"/>
      <path d="M1461.966,1007.762l-27.745-12.395q0.5-1.11,1-2.215l27.628,12.654Q1462.4,1006.781,1461.966,1007.762Z" transform="translate(-1397.228 -831.194)"/>
      <path d="M1865.593,1006.459q-0.441-.97-0.89-1.935L1892.25,991.7q0.51,1.1,1.01,2.195Z" transform="translate(-1397.228 -831.194)"/>
      <path d="M1464.668,1001.939l-27.372-13.2q0.527-1.094,1.065-2.183l27.248,13.454Q1465.133,1000.972,1464.668,1001.939Z" transform="translate(-1397.228 -831.194)"/>
      <path d="M1862.871,1000.69q-0.469-.957-0.946-1.909l27.162-13.626q0.541,1.08,1.073,2.165Z" transform="translate(-1397.228 -831.194)"/>
      <path d="M1467.54,996.2l-26.979-13.985q0.56-1.08,1.13-2.154l26.844,14.243Q1468.033,995.244,1467.54,996.2Z" transform="translate(-1397.228 -831.194)"/>
      <path d="M1859.983,995q-0.5-.944-1-1.881l26.754-14.411q0.573,1.064,1.136,2.134Z" transform="translate(-1397.228 -831.194)"/>
      <path d="M1470.576,990.54l-26.563-14.76q0.592-1.065,1.194-2.123l26.416,15.021Q1471.1,989.606,1470.576,990.54Z" transform="translate(-1397.228 -831.194)"/>
      <path d="M1856.924,989.386q-0.521-.926-1.052-1.846l26.326-15.178q0.606,1.051,1.2,2.107Z" transform="translate(-1397.228 -831.194)"/>
      <path d="M1473.773,984.981l-26.12-15.53q0.621-1.044,1.251-2.082l25.972,15.776Q1474.321,984.06,1473.773,984.981Z" transform="translate(-1397.228 -831.194)"/>
      <path d="M1853.708,983.87q-0.549-.912-1.107-1.818l25.876-15.933q0.635,1.032,1.261,2.07Z" transform="translate(-1397.228 -831.194)"/>
      <path d="M1477.131,979.514l-25.66-16.278q0.652-1.027,1.312-2.047l25.5,16.524Q1477.7,978.611,1477.131,979.514Z" transform="translate(-1397.228 -831.194)"/>
      <path d="M1850.332,978.445q-0.576-.9-1.161-1.788l25.407-16.67q0.664,1.012,1.318,2.03Z" transform="translate(-1397.228 -831.194)"/>
      <path d="M1480.644,974.152l-25.175-17.02q0.68-1.005,1.368-2l25.015,17.254Q1481.244,973.264,1480.644,974.152Z" transform="translate(-1397.228 -831.194)"/>
      <path d="M1846.794,973.111q-0.6-.879-1.21-1.752l24.92-17.391q0.694,0.995,1.379,2Z" transform="translate(-1397.228 -831.194)"/>
      <path d="M1484.313,968.888l-24.677-17.734q0.711-.989,1.432-1.971l24.5,17.981Q1484.934,968.022,1484.313,968.888Z" transform="translate(-1397.228 -831.194)"/>
      <path d="M1843.113,967.892q-0.628-.862-1.263-1.72l24.4-18.109q0.722,0.973,1.434,1.952Z" transform="translate(-1397.228 -831.194)"/>
      <path d="M1488.13,963.735L1463.975,945.3q0.739-.968,1.488-1.929l23.968,18.68Q1488.777,962.888,1488.13,963.735Z" transform="translate(-1397.228 -831.194)"/>
      <path d="M1839.272,962.767q-0.649-.841-1.307-1.676l23.869-18.807q0.752,0.955,1.495,1.917Z" transform="translate(-1397.228 -831.194)"/>
      <path d="M1492.094,958.7l-23.615-19.126q0.767-.946,1.542-1.885l23.421,19.362Q1492.764,957.868,1492.094,958.7Z" transform="translate(-1397.228 -831.194)"/>
      <path d="M1835.3,957.768q-0.679-.829-1.366-1.651l23.323-19.48q0.775,0.927,1.54,1.861Z" transform="translate(-1397.228 -831.194)"/>
      <path d="M1496.2,953.774l-23.056-19.8q0.793-.923,1.6-1.838l22.856,20.025Q1496.9,952.965,1496.2,953.774Z" transform="translate(-1397.228 -831.194)"/>
      <path d="M1831.162,952.867q-0.7-.805-1.406-1.6l22.753-20.142q0.8,0.909,1.6,1.825Z" transform="translate(-1397.228 -831.194)"/>
      <path d="M1500.445,948.975l-22.472-20.456q0.817-.9,1.644-1.788L1501.89,947.4Q1501.163,948.186,1500.445,948.975Z" transform="translate(-1397.228 -831.194)"/>
      <path d="M1826.9,948.1q-0.723-.785-1.453-1.563l22.159-20.795q0.83,0.885,1.652,1.778Z" transform="translate(-1397.228 -831.194)"/>
      <path d="M1504.824,944.3l-21.87-21.1q0.843-.874,1.694-1.739l21.665,21.309Q1505.565,943.534,1504.824,944.3Z" transform="translate(-1397.228 -831.194)"/>
      <path d="M1822.492,943.446q-0.744-.764-1.5-1.521l21.554-21.421q0.856,0.861,1.7,1.73Z" transform="translate(-1397.228 -831.194)"/>
      <path d="M1519.046,949.462l-41.776-42.235q0.87-.851,1.747-1.694l41.557,42.447Q1519.806,948.717,1519.046,949.462Z" transform="translate(-1397.228 -831.194)"/>
      <path d="M1808.458,948.433q-0.771-.746-1.548-1.485l40.879-41.977q0.876,0.832,1.745,1.674Z" transform="translate(-1397.228 -831.194)"/>
      <path d="M1513.98,935.34l-20.626-22.316q0.89-.822,1.786-1.636l20.417,22.508Q1514.765,934.614,1513.98,935.34Z" transform="translate(-1397.228 -831.194)"/>
      <path d="M1813.285,934.531q-0.786-.719-1.579-1.43l20.285-22.626q0.906,0.812,1.8,1.634Z" transform="translate(-1397.228 -831.194)"/>
      <path d="M1518.742,931.065l-19.969-22.906q0.913-.8,1.832-1.582l19.754,23.091Q1519.547,930.363,1518.742,931.065Z" transform="translate(-1397.228 -831.194)"/>
      <path d="M1808.5,930.284q-0.813-.7-1.632-1.394l19.628-23.2q0.924,0.781,1.84,1.571Z" transform="translate(-1397.228 -831.194)"/>
      <path d="M1523.63,926.924l-19.309-23.465q0.937-.771,1.881-1.533l19.081,23.651Q1524.453,926.247,1523.63,926.924Z" transform="translate(-1397.228 -831.194)"/>
      <path d="M1803.581,926.16q-0.826-.672-1.659-1.337l18.945-23.759q0.953,0.759,1.9,1.528Z" transform="translate(-1397.228 -831.194)"/>
      <path d="M1528.629,922.93L1510,898.918q0.959-.744,1.925-1.478l18.389,24.193Q1529.471,922.277,1528.629,922.93Z" transform="translate(-1397.228 -831.194)"/>
      <path d="M1798.559,922.192q-0.852-.653-1.709-1.3l18.261-24.289q0.968,0.727,1.929,1.464Z" transform="translate(-1397.228 -831.194)"/>
      <path d="M1533.738,919.085l-17.92-24.542q0.976-.712,1.958-1.416l17.7,24.7Q1534.6,918.454,1533.738,919.085Z" transform="translate(-1397.228 -831.194)"/>
      <path d="M1793.406,918.357q-0.863-.624-1.733-1.238l17.544-24.813q1,0.7,1.984,1.418Z" transform="translate(-1397.228 -831.194)"/>
      <path d="M1538.961,915.384l-17.214-25.042q1-.69,2.014-1.37l16.952,25.22Q1539.834,914.784,1538.961,915.384Z" transform="translate(-1397.228 -831.194)"/>
      <path d="M1788.164,914.687q-0.889-.6-1.782-1.2l16.825-25.3q1.009,0.67,2.011,1.35Z" transform="translate(-1397.228 -831.194)"/>
      <path d="M1544.28,911.841L1527.8,886.31q1.018-.657,2.043-1.3l16.231,25.69Q1545.174,911.264,1544.28,911.841Z" transform="translate(-1397.228 -831.194)"/>
      <path d="M1782.795,911.155q-0.9-.573-1.8-1.137l16.081-25.785q1.035,0.645,2.063,1.3Z" transform="translate(-1397.228 -831.194)"/>
      <path d="M1549.7,908.453l-15.739-25.995q1.039-.629,2.084-1.247l15.477,26.152Q1550.609,907.9,1549.7,908.453Z" transform="translate(-1397.228 -831.194)"/>
      <path d="M1777.344,907.79q-0.919-.549-1.843-1.088l15.325-26.241q1.05,0.613,2.094,1.237Z" transform="translate(-1397.228 -831.194)"/>
      <path d="M1555.211,905.226l-14.976-26.442q1.052-.6,2.11-1.182l14.725,26.582Q1556.138,904.7,1555.211,905.226Z" transform="translate(-1397.228 -831.194)"/>
      <path d="M1771.789,904.58q-0.935-.522-1.877-1.036l14.563-26.671q1.067,0.582,2.127,1.174Z" transform="translate(-1397.228 -831.194)"/>
      <path d="M1560.812,902.159L1546.607,875.3q1.069-.566,2.145-1.121l13.945,27Q1561.753,901.662,1560.812,902.159Z" transform="translate(-1397.228 -831.194)"/>
      <path d="M1766.137,901.531q-0.948-.495-1.9-0.979l13.779-27.084q1.086,0.552,2.166,1.115Z" transform="translate(-1397.228 -831.194)"/>
      <path d="M1566.5,899.256l-13.423-27.262q1.087-.535,2.179-1.059l13.155,27.393Q1567.451,898.787,1566.5,899.256Z" transform="translate(-1397.228 -831.194)"/>
      <path d="M1760.406,898.65q-0.965-.467-1.936-0.926l12.99-27.472q1.1,0.519,2.192,1.049Z" transform="translate(-1397.228 -831.194)"/>
      <path d="M1572.261,896.522l-12.623-27.642q1.1-.5,2.2-0.992l12.368,27.757Q1573.231,896.079,1572.261,896.522Z" transform="translate(-1397.228 -831.194)"/>
      <path d="M1754.583,895.932q-0.973-.437-1.95-0.864l12.172-27.844q1.12,0.49,2.235.99Z" transform="translate(-1397.228 -831.194)"/>
      <path d="M1578.1,893.954l-11.823-27.994q1.115-.471,2.235-0.931l11.547,28.109Q1579.082,893.542,1578.1,893.954Z" transform="translate(-1397.228 -831.194)"/>
      <path d="M1748.687,893.388q-0.985-.408-1.976-0.808l11.355-28.187q1.134,0.457,2.263.925Z" transform="translate(-1397.228 -831.194)"/>
      <path d="M1584.029,891.554l-11-28.326q1.135-.441,2.276-0.871l10.714,28.437Q1585.019,891.17,1584.029,891.554Z" transform="translate(-1397.228 -831.194)"/>
      <path d="M1742.721,891.018q-1-.381-2-0.751l10.526-28.507q1.146,0.423,2.287.857Z" transform="translate(-1397.228 -831.194)"/>
      <path d="M1590.029,889.325l-10.173-28.635q1.147-.407,2.3-0.8l9.88,28.737Q1591.031,888.968,1590.029,889.325Z" transform="translate(-1397.228 -831.194)"/>
      <path d="M1736.688,888.823q-1.014-.352-2.031-0.694l9.694-28.8q1.155,0.388,2.3.788Z" transform="translate(-1397.228 -831.194)"/>
      <path d="M1596.09,887.271l-9.329-28.921q1.155-.373,2.315-0.734l9.048,29.01Q1597.1,886.944,1596.09,887.271Z" transform="translate(-1397.228 -831.194)"/>
      <path d="M1730.588,886.8q-1.025-.322-2.054-0.635l8.849-29.071q1.165,0.354,2.325.72Z" transform="translate(-1397.228 -831.194)"/>
      <path d="M1602.21,885.4l-8.481-29.18q1.167-.339,2.338-0.667l8.194,29.263Q1603.234,885.1,1602.21,885.4Z" transform="translate(-1397.228 -831.194)"/>
      <path d="M1724.441,884.967q-1.023-.29-2.052-0.57l7.986-29.32q1.174,0.319,2.344.651Z" transform="translate(-1397.228 -831.194)"/>
      <path d="M1608.381,883.7l-7.624-29.416q1.173-.3,2.351-0.6l7.346,29.487Q1609.415,883.431,1608.381,883.7Z" transform="translate(-1397.228 -831.194)"/>
      <path d="M1718.261,883.314q-1.033-.26-2.071-0.51l7.126-29.541q1.182,0.285,2.36.582Z" transform="translate(-1397.228 -831.194)"/>
      <path d="M1614.6,882.183l-6.765-29.625q1.184-.27,2.373-0.53l6.472,29.691Q1615.639,881.946,1614.6,882.183Z" transform="translate(-1397.228 -831.194)"/>
      <path d="M1712.03,881.843q-1.041-.23-2.085-0.45l6.264-29.735q1.19,0.25,2.376.513Z" transform="translate(-1397.228 -831.194)"/>
      <path d="M1620.864,880.848l-5.9-29.809q1.19-.235,2.384-0.46l5.615,29.865Q1621.91,880.641,1620.864,880.848Z" transform="translate(-1397.228 -831.194)"/>
      <path d="M1705.756,880.552q-1.048-.2-2.1-0.39l5.406-29.9q1.2,0.216,2.387.444Z" transform="translate(-1397.228 -831.194)"/>
      <path d="M1627.16,879.7l-5.029-29.969q1.2-.2,2.4-0.391l4.738,30.016Q1628.212,879.52,1627.16,879.7Z" transform="translate(-1397.228 -831.194)"/>
      <path d="M1699.445,879.444q-1.051-.169-2.1-0.328l4.532-30.048q1.2,0.182,2.406.375Z" transform="translate(-1397.228 -831.194)"/>
      <path d="M1633.488,878.729l-4.154-30.1q1.2-.166,2.407-0.32l3.864,30.141Q1634.544,878.583,1633.488,878.729Z" transform="translate(-1397.228 -831.194)"/>
      <path d="M1693.116,878.521q-1.058-.139-2.119-0.267l3.658-30.167q1.205,0.146,2.407.3Z" transform="translate(-1397.228 -831.194)"/>
      <path d="M1639.85,877.943l-3.294-30.209q1.209-.132,2.422-0.252l2.99,30.24Q1640.907,877.828,1639.85,877.943Z" transform="translate(-1397.228 -831.194)"/>
      <path d="M1686.756,877.781q-1.063-.108-2.128-0.206l2.784-30.26q1.209,0.111,2.414.234Z" transform="translate(-1397.228 -831.194)"/>
      <path d="M1646.226,877.342l-2.418-30.292q1.207-.1,2.418-0.181l2.132,30.313Q1647.291,877.257,1646.226,877.342Z" transform="translate(-1397.228 -831.194)"/>
      <path d="M1680.368,877.224q-1.062-.077-2.127-0.144l1.91-30.328q1.215,0.077,2.426.165Z" transform="translate(-1397.228 -831.194)"/>
      <path d="M1652.618,876.924l-1.542-30.349q1.209-.062,2.422-0.112l1.258,30.362Q1653.685,876.87,1652.618,876.924Z" transform="translate(-1397.228 -831.194)"/>
      <path d="M1673.972,876.85q-1.068-.047-2.138-0.083l1.051-30.37q1.212,0.042,2.422.095Z" transform="translate(-1397.228 -831.194)"/>
      <path d="M1659.018,890.455l-0.683-59.219q1.212-.027,2.427-0.043l0.386,59.224Q1660.081,890.431,1659.018,890.455Z" transform="translate(-1397.228 -831.194)"/>
      <path d="M1667.561,876.66q-1.066-.017-2.133-0.023l0.178-30.387q1.216,0.007,2.43.026Z" transform="translate(-1397.228 -831.194)"/>
    </g>

    <g id="cross-hairs">
      <rect x="236.079" y="265.138" width="17.623" height="3.039"/>
      <rect x="265.326" y="235.891" width="3.039" height="17.623"/>
      <rect x="265.326" y="279.802" width="3.039" height="17.623"/>
      <rect x="279.989" y="265.138" width="17.623" height="3.039"/>
    </g>

    <g id="inner-degrees">
      <path d="M1656.372,1258.287q-1.257-.06-2.508-0.138l1.9-30.329q1.019,0.064,2.042.113Z" transform="translate(-1397.228 -831.194)"/>
      <path d="M1679.8,1257.708l-2.934-30.246q1.014-.1,2.024-0.213l3.418,30.2Q1681.053,1257.586,1679.8,1257.708Z" transform="translate(-1397.228 -831.194)"/>
      <path d="M1630.616,1254.977q-1.235-.262-2.463-0.543l6.774-29.623q0.991,0.226,1.988.437Z" transform="translate(-1397.228 -831.194)"/>
      <path d="M1705.374,1253.105l-7.8-29.37q0.987-.262,1.968-0.539l8.258,29.245Q1706.591,1252.782,1705.374,1253.105Z" transform="translate(-1397.228 -831.194)"/>
      <path d="M1605.689,1247.524q-1.176-.46-2.344-0.937l11.5-28.129q0.948,0.387,1.9.76Z" transform="translate(-1397.228 -831.194)"/>
      <path d="M1729.872,1244.412l-12.466-27.714q0.931-.418,1.853-0.851l12.888,27.52Q1731.014,1243.9,1729.872,1244.412Z" transform="translate(-1397.228 -831.194)"/>
      <path d="M1582.314,1236.13q-1.081-.64-2.151-1.3l15.886-25.9q0.875,0.536,1.758,1.06Z" transform="translate(-1397.228 -831.194)"/>
      <path d="M1752.61,1231.882l-16.777-25.337q0.851-.564,1.694-1.14l17.164,25.077Q1753.656,1231.19,1752.61,1231.882Z" transform="translate(-1397.228 -831.194)"/>
      <path d="M1561.108,1221.129q-0.965-.807-1.918-1.629l19.849-23.009q0.773,0.667,1.557,1.322Z" transform="translate(-1397.228 -831.194)"/>
      <path d="M1773.036,1215.857l-20.633-22.31q0.753-.7,1.5-1.4l20.962,22Q1773.955,1215.007,1773.036,1215.857Z" transform="translate(-1397.228 -831.194)"/>
      <path d="M1542.591,1202.927q-0.822-.95-1.63-1.913l23.284-19.527q0.655,0.782,1.323,1.553Z" transform="translate(-1397.228 -831.194)"/>
      <path d="M1790.617,1196.777l-23.919-18.743q0.627-.8,1.24-1.611l24.221,18.351Q1791.4,1195.782,1790.617,1196.777Z" transform="translate(-1397.228 -831.194)"/>
      <path d="M1527.235,1181.993q-0.657-1.066-1.3-2.142l26.114-15.541q0.522,0.878,1.058,1.748Z" transform="translate(-1397.228 -831.194)"/>
      <path d="M1804.936,1175.08l-26.639-14.623q0.492-.9.972-1.8l26.862,14.208Q1805.542,1173.976,1804.936,1175.08Z" transform="translate(-1397.228 -831.194)"/>
      <path d="M1515.452,1158.861q-0.479-1.163-.938-2.335l28.285-11.109q0.373,0.95.76,1.893Z" transform="translate(-1397.228 -831.194)"/>
      <path d="M1815.558,1151.356l-28.648-10.136q0.339-.96.663-1.926l28.811,9.662Q1815.981,1150.161,1815.558,1151.356Z" transform="translate(-1397.228 -831.194)"/>
      <path d="M1507.565,1134.094q-0.284-1.231-.549-2.468l29.718-6.347q0.212,0.993.44,1.98Z" transform="translate(-1397.228 -831.194)"/>
      <path d="M1822.192,1126.207l-29.916-5.335q0.179-1,.342-2.009l30,4.861Q1822.413,1124.969,1822.192,1126.207Z" transform="translate(-1397.228 -831.194)"/>
      <path d="M1503.8,1108.39q-0.081-1.252-.143-2.509l30.351-1.5q0.051,1.024.116,2.042Z" transform="translate(-1397.228 -831.194)"/>
      <path d="M1824.671,1100.361l-30.384-.461q0.016-1.022.016-2.048h30.388Q1824.69,1099.108,1824.671,1100.361Z" transform="translate(-1397.228 -831.194)"/>
      <path d="M1534.437,1085.33l-30.252-2.874q0.119-1.258.259-2.509l30.2,3.359Q1534.533,1084.315,1534.437,1085.33Z" transform="translate(-1397.228 -831.194)"/>
      <path d="M1793.442,1082.791q-0.118-1.02-.25-2.034l30.132-3.937q0.162,1.242.306,2.49Z" transform="translate(-1397.228 -831.194)"/>
      <path d="M1538.121,1064.608l-29.386-7.739q0.319-1.214.657-2.42l29.266,8.182Q1538.383,1063.616,1538.121,1064.608Z" transform="translate(-1397.228 -831.194)"/>
      <path d="M1789.347,1062.134q-0.278-.978-0.571-1.951l29.093-8.777q0.364,1.207.71,2.423Z" transform="translate(-1397.228 -831.194)"/>
      <path d="M1545.124,1044.747l-27.74-12.406q0.515-1.152,1.048-2.3l27.543,12.839Q1545.542,1043.812,1545.124,1044.747Z" transform="translate(-1397.228 -831.194)"/>
      <path d="M1781.958,1042.432q-0.432-.918-0.878-1.828l27.283-13.381q0.553,1.128,1.089,2.266Z" transform="translate(-1397.228 -831.194)"/>
      <path d="M1555.257,1026.278l-25.368-16.73q0.693-1.051,1.4-2.09l25.107,17.119Q1555.821,1025.423,1555.257,1026.278Z" transform="translate(-1397.228 -831.194)"/>
      <path d="M1771.481,1024.186q-0.576-.839-1.166-1.669l24.77-17.6q0.728,1.024,1.44,2.061Z" transform="translate(-1397.228 -831.194)"/>
      <path d="M1568.243,1009.668l-22.359-20.579q0.854-.928,1.721-1.841l22.03,20.931Q1568.933,1008.918,1568.243,1009.668Z" transform="translate(-1397.228 -831.194)"/>
      <path d="M1758.185,1007.838q-0.7-.737-1.419-1.461l21.628-21.346q0.885,0.9,1.756,1.807Z" transform="translate(-1397.228 -831.194)"/>
      <path d="M1583.717,995.362l-18.771-23.9q0.99-.777,1.993-1.54l18.387,24.194Q1584.516,994.734,1583.717,995.362Z" transform="translate(-1397.228 -831.194)"/>
      <path d="M1742.436,993.828q-0.812-.614-1.636-1.215l17.926-24.538q1.019,0.744,2.026,1.5Z" transform="translate(-1397.228 -831.194)"/>
      <path d="M1601.271,983.735l-14.681-26.607q1.1-.606,2.207-1.195l14.264,26.832Q1602.162,983.244,1601.271,983.735Z" transform="translate(-1397.228 -831.194)"/>
      <path d="M1724.651,982.537q-0.9-.476-1.814-0.937l13.732-27.109q1.127,0.571,2.244,1.16Z" transform="translate(-1397.228 -831.194)"/>
      <path d="M1620.46,975.1l-10.174-28.634q1.185-.421,2.378-0.824l9.725,28.79Q1621.422,974.76,1620.46,975.1Z" transform="translate(-1397.228 -831.194)"/>
      <path d="M1705.283,974.274q-0.974-.324-1.954-0.634l9.156-28.976q1.2,0.38,2.4.778Z" transform="translate(-1397.228 -831.194)"/>
      <path d="M1640.8,969.694l-5.393-29.906q1.234-.223,2.474-0.426l4.936,29.984Q1641.8,969.513,1640.8,969.694Z" transform="translate(-1397.228 -831.194)"/>
      <path d="M1684.825,969.265q-1-.161-2.011-0.306l4.329-30.078q1.25,0.18,2.495.379Z" transform="translate(-1397.228 -831.194)"/>
      <path d="M1661.768,967.643l-0.52-30.384q1.253-.022,2.509-0.024l0.059,30.388Q1662.79,967.625,1661.768,967.643Z" transform="translate(-1397.228 -831.194)"/>
    </g>

    <path id="static-circle" d="M1664.073,1290.653a192.8,192.8,0,1,1,136.331-56.47A191.539,191.539,0,0,1,1664.073,1290.653Zm0-383.323a190.522,190.522,0,1,0,134.719,55.8A189.274,189.274,0,0,0,1664.073,907.33Z" transform="translate(-1397.228 -831.194)"/>

    <style>

      use {
        fill: #e3e0db;
      }

      .rotation-a,
      .rotation-b
      {
        animation-duration:  2s;
        animation-fill-mode: both;
        animation-timing-function: ease-in-out;
        animation-iteration-count: infinite;
        animation-direction: alternate;
        transform-origin: 266.7595px 266.727px;
      }

      .rotation-a { animation-name: rotation-a; }

      @keyframes rotation-a
      {
        0%   { transform: rotate(0deg)  }
        100% { transform: rotate(45deg) }
      }

      .rotation-b { animation-name: rotation-b; }
      
      @keyframes rotation-b
      {
        0%   { transform: rotate(45deg); }
        100% { transform: rotate(0deg); }
      }

    </style>

    <view id="dynamic" viewBox="0 0 533.519 533.454" />
    <view id="static" viewBox="0 1533.519 533.519 533.454" />

  </defs>

  <use x="0" y="0" xlink:href="#inner-degrees" class="rotation-a"  />
  <use x="0" y="0" xlink:href="#outer-degrees" class="rotation-b"  />
  <use x="0" y="0" xlink:href="#static-circle" />
  <use x="0" y="0" xlink:href="#cross-hairs" />

  <use x="0" y="1533.519" xlink:href="#inner-degrees" />
  <use x="0" y="1533.519" xlink:href="#outer-degrees" style="transform: rotate(90deg)" />
  <use x="0" y="1533.519" xlink:href="#static-circle" />
  <use x="0" y="1533.519" xlink:href="#cross-hairs" />


</svg>