<svg version="1.1" xmlns="http://www.w3.org/2000/svg" xmlns:xlink="http://www.w3.org/1999/xlink" x="0px" y="0px" viewBox="0 0 165 165" style="enable-background:new 0 0 165 165;" xml:space="preserve">
<style type="text/css">

  .orange { fill: #fc6d35 }
  .blue   { fill: #02b6f7 }
  .white  { fill: #e3e0db }

  #boot-foot
  {
    animation-name: nancy-sinatra;
    animation-duration: 2s;
    animation-iteration-count: infinite;
    transform-origin: center;
  } 

  @keyframes nancy-sinatra
  {
    0%   { transform: translateX(150%) translateY(-100%) rotate(45deg) }
    48%  { transform: translateX(0%) translateY(0) rotate(0deg) }
    52%  { transform: translateX(0%) translateY(0) rotate(0deg) }
    100% { transform: translateX(-150%) translateY(-100%) rotate(-45deg) }
  }

</style>

 <defs>
  <circle id="mask" cx="82.5" cy="82.5" r="80"/>
 </defs>
 <clipPath id="circle-mask">
  <use xlink:href="#mask" style="overflow:hidden;"/>
 </clipPath>

 <g id="clipped-leg" style="clip-path: url(#circle-mask);">
  <g id="boot-foot">
  <path id="boot" class="blue" d="M121.044,104.899c-0.449,2.592-0.486,5.321-0.522,7.96c-0.009,0.638-0.018,1.299-0.032,1.947
   c-0.052,2.315-0.397,3.589-1.189,4.397c-0.803,0.819-2.05,1.154-4.305,1.157c-5.192,0.005-10.471,0.043-15.576,0.08l-1.68,0.012
   c-0.029,0-0.059,0-0.088,0c-1.533,0-2.581-0.293-3.295-0.921c-0.747-0.657-1.139-1.682-1.235-3.224
   c-0.089-1.426-0.79-2.099-2.276-2.183c-0.664-0.037-1.142,0.085-1.464,0.373c-0.373,0.334-0.577,0.929-0.626,1.819
   c-0.138,2.547-1.8,4.129-4.338,4.13c-5.639,0.003-11.373-0.006-16.918-0.014c-7.339-0.011-14.927-0.022-22.39-0.008
   c-0.019,0-0.039,0-0.058,0c-2.465,0-3.782-0.312-4.539-1.072c-0.775-0.779-0.868-1.906-0.997-3.466
   c-0.022-0.266-0.045-0.546-0.073-0.842c-0.544-5.776-0.569-11.542-0.549-16.953c0.013-3.396,1.309-6.527,3.65-8.817
   c2.328-2.277,5.465-3.496,8.833-3.436c3.919,0.071,7.918,0.461,11.886,1.158c6.382,1.121,11.48-1.906,13.306-7.9
   c0.976-3.206,0.926-10.212-0.026-14.489l-8.354,13.338l-1.598-1.026l7.989-13.168c-0.474,0.163-0.944,0.325-1.411,0.487
   c-2.024,0.699-3.937,1.358-5.885,2.014c-1.328,0.447-2.595,0.548-3.664,0.292c-1.247-0.298-2.2-1.077-2.755-2.254
   c-0.828-1.756-0.837-4.363-0.021-5.935c1.135-2.186,3.662-2.92,6.437-1.87c2.056,0.778,4.126,1.459,6.318,2.18
   c0.685,0.225,1.387,0.456,2.097,0.693c-0.151-0.631-0.301-1.258-0.45-1.881c-0.5-2.087-0.973-4.059-1.436-6.074
   c-0.32-1.392-0.017-2.803,0.83-3.869c0.796-1.002,1.997-1.578,3.297-1.582c13.124-0.034,24.816-0.033,35.745,0.004
   c1.348,0.005,2.576,0.651,3.367,1.773c0.825,1.17,1.032,2.676,0.555,4.028c-0.494,1.4-1.03,2.811-1.548,4.175
   c-1.073,2.823-2.182,5.743-2.962,8.684c-1.66,6.26-0.923,12.937,2.32,21.013c0.333,0.829,0.967,1.551,1.639,2.315
   c0.442,0.503,0.899,1.022,1.276,1.588c1.529,2.29,2.477,4.712,2.899,7.403C121.611,99.371,121.55,101.975,121.044,104.899z
    M47.646,88.385c-2.74,0.856-4.523,2.38-5.298,4.531c-1.178,3.268-1.481,7.228-0.947,12.435h54.537
   c0.002-0.098,0.004-0.194,0.007-0.289c0.012-0.485,0.023-0.943-0.019-1.378c-0.427-4.376,0.206-7.76,1.936-10.346
   c1.61-2.407,4.176-4.115,7.844-5.222c1.819-0.549,3.606-1.113,5.335-1.659c0.6-0.189,1.187-0.375,1.755-0.553
   c-0.254-1.309-0.53-2.593-0.797-3.839c-0.656-3.058-1.275-5.946-1.537-8.906c-0.581-6.565,0.955-13.29,4.697-20.559
   c0.74-1.438,0.864-2.637,0.359-3.466c-0.497-0.816-1.643-1.265-3.225-1.266c-10.589-0.003-21.646-0.004-32.865,0
   c-1.705,0.001-2.731,0.3-3.228,0.942c-0.516,0.667-0.542,1.806-0.082,3.587c0.119,0.461,0.245,0.93,0.366,1.384
   c0.463,1.733,0.943,3.524,1.2,5.331c0.092,0.644,0.258,0.9,0.414,1.026h13.42v2.214H78.4l0.966,6.738h12.154v2.214H79.357v5.605
   h11.596v2.214H78.974l-2.859,5.698h9.71v0.021h0.255v2.214H73.82c-1.199,0.259-2.251,0.691-3.215,1.319
   c-1.192,0.777-2.952,0.822-4.219,0.724c-3.644-0.284-7.143-0.721-11.338-1.262C52.511,87.508,49.813,87.709,47.646,88.385z
    M72.938,60.559c-2.156-0.706-4.385-1.435-6.544-2.258c-0.473-0.18-0.933-0.268-1.362-0.268c-1.015,0-1.859,0.49-2.304,1.401
   c-0.51,1.042-0.489,2.842,0.045,3.931c0.737,1.502,2.419,1.511,3.748,1.018c2.132-0.791,4.323-1.521,6.442-2.227
   c0.785-0.261,1.593-0.531,2.391-0.801C74.547,61.086,73.731,60.818,72.938,60.559z M118.992,104.456L118.992,104.456
   c1.207-5.005,0.477-9.403-2.232-13.446l-0.164-0.244c-1.028-1.536-1.544-2.307-2.159-2.546c-0.601-0.234-1.465-0.04-3.361,0.419
   c-0.323,0.078-0.651,0.136-0.967,0.192c-0.534,0.094-1.039,0.184-1.502,0.36c-0.501,0.191-1.012,0.375-1.507,0.553
   c-3.035,1.092-5.902,2.124-7.714,5.03c-1.584,2.541-1.53,5.296-1.473,8.214c0.016,0.805,0.032,1.633,0.014,2.473
   c1.241,0,2.473,0.001,3.697,0.002c5.652,0.004,10.99,0.009,16.405-0.061C118.249,105.398,118.9,104.838,118.992,104.456z
    M91.136,112.153c0.084-0.003,0.168-0.005,0.25-0.005c1.086,0,1.941,0.284,2.545,0.845c0.685,0.637,1.041,1.601,1.088,2.946
   c0.057,1.637,0.898,2.442,2.57,2.459c6.534,0.067,12.433,0.108,18.451-0.064c0.88-0.025,2.312-1.057,2.352-1.462
   c0.228-2.319,0.194-4.637,0.158-7.09c-0.011-0.728-0.021-1.476-0.025-2.227H41.747c0,0.727-0.001,1.445-0.002,2.157
   c-0.002,1.994-0.005,3.878,0.005,5.793c0.012,2.32,0.61,2.92,2.907,2.921c4.289,0.002,8.649,0,12.866-0.001
   c8.678-0.004,17.652-0.007,26.478,0.021c0.008,0,0.015,0,0.023,0c1.881,0,2.681-0.744,2.854-2.648
   C87.115,113.185,88.189,112.266,91.136,112.153z"/>
  <path id="pants" class="blue" d="M119.397,28.227h-2.021v-82.528H75.215v82.528h-2.021c-1.792,0-3.25,1.458-3.25,3.25v7.526
   c0,1.792,1.458,3.25,3.25,3.25h7.892v5.244h30.419v-5.244h7.892c1.792,0,3.25-1.458,3.25-3.25v-7.526
   C122.647,29.685,121.189,28.227,119.397,28.227z M109.005,46.437H83.586v-4.141h25.419V46.437z M77.715-51.801h37.162v80.028
   H77.715V-51.801z M120.147,39.004c0,0.407-0.343,0.75-0.75,0.75H73.194c-0.407,0-0.75-0.343-0.75-0.75v-7.526
   c0-0.407,0.343-0.75,0.75-0.75h2.021l0,0h42.162l0,0h2.021c0.407,0,0.75,0.343,0.75,0.75V39.004z"/>
 </g>
</g>

<path id="outer-circle" class="white" d="M82.5,165A82.5,82.5,0,1,1,165,82.5,82.593,82.593,0,0,1,82.5,165Zm0-161.872A79.372,79.372,0,1,0,161.872,82.5,79.462,79.462,0,0,0,82.5,3.128Z"/>
</svg>
