<svg xmlns="http://www.w3.org/2000/svg" viewBox="0 0 669.632 199.839">
  <defs>
    <style>
      path {
        fill: #e3e0db;
      }
      g path:nth-of-type(3n+1) {
        fill: #fc6d35;
      }
      g path:nth-of-type(3n+2) {
        fill: #02b6f7;
      }
      g path:nth-of-type(3n+3) {
        fill: #fbca6f;
      }
    </style>
  </defs>
  <g class="web-development">
    <path d="M49.782,129.735l-6.02,35.481-5.686-32.2-.438-2.478H26.981l-.463,2.44-6.244,32.9-6.426-36.172-.44-2.475H0l.691,3.575L13.5,196.979l.47,2.43h12l.464-2.439,5.822-30.6L37.5,196.916l.428,2.492H49.985l.464-2.439L63.043,130.8l.678-3.561H50.2Zm10,.5-12.6,66.171H40.14l-7.9-46-.107-1.39h-.106l-.107,1.39-8.752,46H16.126L3.318,130.236h7.258l9.179,51.657.106,1.6h.108v-1.6l9.178-48.344H34.8L43.34,181.9l.106,1.6h.106l.107-1.6,8.752-51.657Z"/>
    <path d="M68.833,199.406h36.418V187.749H82.093v-22.5h19.812l.424-2.5.961-5.657.595-3.5H82.093v-14.7h23.16V127.236H68.835Zm2.682-69.173h30.418v5.657H78.775V156.6h21.239l-.961,5.656H78.775v28.5h23.16v5.651H71.517Z"/>
    <path d="M136.141,164.5a10.86,10.86,0,0,0-6.241-1.708h-8v27.961h9.393a12.288,12.288,0,0,0,4.162-.587,4.185,4.185,0,0,0,2.4-2.4,14.117,14.117,0,0,0,.8-5.444V170.367Q138.65,166.206,136.141,164.5Zm-.173,17.824a11.131,11.131,0,0,1-.545,4.233c-.286.648-.566.75-.686.794a9.284,9.284,0,0,1-3.133.405h-6.393V165.788h5.005a7.974,7.974,0,0,1,4.556,1.189c.294.2,1.2.815,1.2,3.39Zm8.811-23.281c-.108-.089-.219-.177-.331-.263a15.215,15.215,0,0,0,2.684-4.4,19.642,19.642,0,0,0,1.346-7.492v-5.335a19.1,19.1,0,0,0-1.542-8.488,9.4,9.4,0,0,0-5.665-4.827,26.835,26.835,0,0,0-8.066-1H111.954v72.172h21.891c4,0,7.02-.54,9.24-1.651a9.943,9.943,0,0,0,5.138-6.02,28.55,28.55,0,0,0,1.11-8.777V170.793a20.4,20.4,0,0,0-.956-6.446A11.511,11.511,0,0,0,144.779,159.039Zm1.235,23.922a25.951,25.951,0,0,1-.961,7.845,7,7,0,0,1-3.628,4.269q-2.67,1.337-7.9,1.334h-18.89V130.236h18.251a24.179,24.179,0,0,1,7.151.854,6.351,6.351,0,0,1,3.9,3.308,16.488,16.488,0,0,1,1.227,7.151v5.337a16.581,16.581,0,0,1-1.12,6.35,11.274,11.274,0,0,1-2.882,4.27,6.693,6.693,0,0,1-3.683,1.761l.108.106a9.7,9.7,0,0,1,4.963,1.976,8.513,8.513,0,0,1,2.668,3.949,17.329,17.329,0,0,1,.8,5.5Zm-11.74-26.576a6.573,6.573,0,0,0,2.668-2.935,13.263,13.263,0,0,0,1.068-5.924v-3.52a23.072,23.072,0,0,0-.427-5.016,4.011,4.011,0,0,0-1.868-2.668,9.819,9.819,0,0,0-4.749-.854h-9.073v21.771h8.965A7.157,7.157,0,0,0,134.274,156.385Zm-9.063-17.919h6.073a7.121,7.121,0,0,1,3.219.435c.127.075.343.2.478.776a19.879,19.879,0,0,1,.347,4.327v3.522a10.24,10.24,0,0,1-.738,4.555,3.715,3.715,0,0,1-1.408,1.656,4.156,4.156,0,0,1-2.006.5h-5.965Z"/>
    <path d="M200.231,135.892h-11.2v54.857h10.353q3.842,0,5.123-1.441t1.28-5.389v-41.3a7.568,7.568,0,0,0-1.44-5.07,5.164,5.164,0,0,0-4.11-1.654Zm2.869,48.03c0,2.674-.5,3.37-.525,3.4h0a5.872,5.872,0,0,1-2.878.431h-7.353v-48.86h8.206c1.3,0,1.7.454,1.848.625.261.3.7,1.1.7,3.1Zm1.4-56.686H179.193v72.17h24.88c4.906,0,8.144-1.172,9.9-3.585,1.535-2.109,2.281-5.235,2.281-9.555v-46c0-4.042-.8-7.089-2.46-9.315C211.952,128.486,208.826,127.236,204.5,127.236Zm8.433,59.033q0,5.445-1.708,7.791t-7.47,2.349h-21.88V130.236h22.306q5.016,0,6.884,2.508t1.868,7.525Z"/>
    <path d="M224.764,199.406h36.418V187.749h-23.16v-22.5h19.812l.424-2.5.961-5.657.6-3.5h-21.8v-14.7h23.16V127.236H224.765Zm2.682-69.173h30.418v5.657H234.7V156.6h21.239l-.961,5.656H234.705v28.5h23.16v5.651H227.447Z"/>
    <path d="M291.948,129.7,284.7,169.48l-7.56-39.8-.463-2.44H263.348l.758,3.616,13.875,66.173.5,2.384h12.446l.5-2.38,13.984-66.172.765-3.62H292.4Zm10.21.537-13.981,66.17H280.6l-13.876-66.17h7.151l10.46,55.07.106,1.708h.107v-1.708l10.033-55.073Z"/>
    <path d="M310.9,199.406h36.418V187.749h-23.16v-22.5H343.97l.424-2.5.961-5.657.595-3.5h-21.8v-14.7h23.16V127.236H310.9Zm2.682-69.173H344v5.657H320.84V156.6h21.239l-.961,5.656H320.835v28.5H344v5.651H313.577Z"/>
    <path d="M367.272,127.236H354.014v72.17h33.963V187.749h-20.7Zm17.387,63.513v5.657H356.7v-66.17h7.258v60.513Z"/>
    <path d="M410.485,135.249q-4.8,0-6.564,1.868a6.374,6.374,0,0,0-1.761,4.536v42.7a6.177,6.177,0,0,0,2.028,4.749q2.026,1.869,6.4,1.868,4.587,0,6.617-1.868a6.3,6.3,0,0,0,2.028-4.856V141.761a6.454,6.454,0,0,0-1.814-4.589q-1.81-1.92-6.932-1.92Zm6.07,48.99a3.313,3.313,0,0,1-1.055,2.649c-.435.4-1.61,1.075-4.584,1.075-2.1,0-3.609-.371-4.37-1.073a3.189,3.189,0,0,1-1.062-2.544V141.661a3.4,3.4,0,0,1,.944-2.479c.144-.152,1.043-.925,4.381-.925,3.644,0,4.6.819,4.758.983a3.48,3.48,0,0,1,.994,2.528Zm8.305-54.148c-2.988-2.416-7.537-3.629-13.91-3.711h-.582c-5.983,0-10.31,1.19-13.231,3.64a12.464,12.464,0,0,0-4.7,9.93v46.109a12.3,12.3,0,0,0,5.134,10.38c3.15,2.287,7.514,3.4,13.342,3.4,6.058,0,10.522-1.139,13.646-3.482a12.389,12.389,0,0,0,5.041-10.3V139.949a12.317,12.317,0,0,0-4.74-9.856Zm1.423,55.968a9.333,9.333,0,0,1-3.843,7.9q-3.841,2.88-11.846,2.882-7.686,0-11.581-2.828a9.255,9.255,0,0,1-3.895-7.954v-46.11a9.549,9.549,0,0,1,3.629-7.632q3.627-3.042,11.847-2.935,8.43.108,12.06,3.042a9.259,9.259,0,0,1,3.629,7.525Z"/>
    <path d="M458.727,135.893H448.054v30.313h9.606a7.544,7.544,0,0,0,5.657-1.975q1.92-1.974,1.921-6.564v-14.2q0-4.376-1.334-5.977T458.727,135.893Zm3.829,21.768c0,2.934-.671,4.061-1.071,4.472a4.786,4.786,0,0,1-3.507,1.067h-6.605V138.893h7.672c2.337,0,2.87.519,2.875.524.023.027.636.8.636,4.054Zm7.944-28.974c-1.906-.976-4.57-1.451-8.145-1.451h-24.24v72.17h13.258V174.861h8.633c4.787,0,8.254-.888,10.6-2.715a11.731,11.731,0,0,0,4.411-7.247,41.712,41.712,0,0,0,.693-7.767v-16.65a22.722,22.722,0,0,0-.822-6.577A8.534,8.534,0,0,0,470.5,128.687Zm1.889,28.445a38.543,38.543,0,0,1-.639,7.2,8.775,8.775,0,0,1-3.309,5.444q-2.668,2.082-8.752,2.081H448.054v24.549H440.8v-66.17h21.239a15.556,15.556,0,0,1,6.777,1.121,5.5,5.5,0,0,1,2.882,3.415,20.043,20.043,0,0,1,.693,5.71Z"/>
    <path d="M521.279,129.368l-11.91,39.381-11.911-39.381-.645-2.132h-14.4v72.17h13.258V165.522l7.913,24.55.67,2.079h10.24l.67-2.079,8.019-24.872v34.206h13.258v-72.17H521.924Zm11.839.868v66.17H525.86V145.392l-.106-.214-.107,1.6-13.661,42.371h-5.87L492.561,147.1l-.107-1.281-.107-.213v50.8H485.09v-66.17h9.178l14.622,48.349.11.423h.107l.107-.427,14.622-48.349Z"/>
    <path d="M545.8,199.406h36.418V187.749h-23.16v-22.5H578.87l.424-2.5.961-5.657.6-3.5H559.061v-14.7h23.16V127.236H545.8Zm2.682-69.173H578.9v5.657H555.74V156.6h21.239l-.961,5.656H555.743v28.5H578.9v5.651H548.485Z"/>
    <path d="M614.214,164.1l-12.2-34.849-.7-2.009H588.922v72.176h13.152V164.642l12.006,32.8.721,1.969h12.568V127.236H614.217Zm2.579,17.263.106.107V130.236h7.152v66.17h-7.472l-17.5-47.815-.214-.744h-.106v48.562H591.6V130.236h7.258l17.717,50.59Z"/>
    <path d="M633,127.236v11.657h11.634v60.513h13.258V138.893h11.74V127.236Zm33.314,8.657h-11.74v60.513h-7.258V135.893H635.682v-5.657h30.632Z"/>
  </g>
  <path class="adjectives" d="M439.606,85.112l-.284-.427-.1-.028a7,7,0,0,0,3.3-1.217,5.844,5.844,0,0,0,2.206-3.631,25.639,25.639,0,0,0,.427-4.8V66.25a13.381,13.381,0,0,0-.462-3.809,3.67,3.67,0,0,0-1.922-2.277,10.363,10.363,0,0,0-4.52-.748H423.092v44.132h6.122V84.828h4.368l7.875,19.93,5.694-2.206Zm-.57-10.179a5.68,5.68,0,0,1-1.068,3.915,4.178,4.178,0,0,1-3.2,1.139h-5.552V64.257h6.121a3.705,3.705,0,0,1,2.919.925q.783.926.782,3.772ZM.088.621H20.45V5.33H6.043V17.448H19.2l-.759,4.642H6.043V43.557H.088Zm44.867,43.29a21.2,21.2,0,0,1-5.367-.624,7.931,7.931,0,0,1-3.775-2.039,5.254,5.254,0,0,1-1.383-3.842V.621h5.958V35.454a4.493,4.493,0,0,0,.379,1.835,2.877,2.877,0,0,0,1.387,1.385,6.182,6.182,0,0,0,2.8.52,6.382,6.382,0,0,0,2.874-.52,2.7,2.7,0,0,0,1.35-1.385,4.849,4.849,0,0,0,.347-1.835V.621H55.48V37.385A5.254,5.254,0,0,1,54.1,41.228a7.924,7.924,0,0,1-3.773,2.039A21.241,21.241,0,0,1,44.955,43.911ZM71.14.621H77.1v38.3H90.188v4.64H71.14Zm32.755,0h5.955v38.3h13.089v4.64H103.9Zm33.587,24.238v-4.78h20.429v4.78Zm47.3,19.114a39.4,39.4,0,0,1-5.539-.486,8.393,8.393,0,0,1-3.983-1.631,4.167,4.167,0,0,1-1.489-3.429v-9.4l5.955-.694v7.689a2.876,2.876,0,0,0,1,2.353,6,6,0,0,0,3.7.832A7.275,7.275,0,0,0,187.2,38.8a2.326,2.326,0,0,0,1.315-1.281,5.919,5.919,0,0,0,.347-2.182v-5.35a6.183,6.183,0,0,0-1.006-3.6,5.87,5.87,0,0,0-3.289-2.148l-5.054-1.454a9.931,9.931,0,0,1-4.4-2.46,6.936,6.936,0,0,1-1.35-4.743V7.13a6.014,6.014,0,0,1,1.464-4.43A7.383,7.383,0,0,1,179.138.759a29.022,29.022,0,0,1,5.573-.491,25.2,25.2,0,0,1,5.2.485,7.471,7.471,0,0,1,3.6,1.7,4.343,4.343,0,0,1,1.316,3.359v9.424l-5.955.9V8.654a3.819,3.819,0,0,0-.9-2.978,5.764,5.764,0,0,0-3.532-.762,5.532,5.532,0,0,0-3.634.936,4.624,4.624,0,0,0-1.075,3.565v4.709a5.249,5.249,0,0,0,.936,3.118A5.03,5.03,0,0,0,183.4,19.11l5.4,1.662a9.564,9.564,0,0,1,4.642,2.6,7.264,7.264,0,0,1,1.385,4.815v8.725a6.685,6.685,0,0,1-1.281,4.466,6.391,6.391,0,0,1-3.532,2.009A26.167,26.167,0,0,1,184.781,43.973ZM215.388,5.33h-7.482V.621h20.982V5.33h-7.545V43.557h-5.955ZM235.75,43.557l9-42.936h7.138l8.866,42.936h-6.166l-1.939-9.7,1.038.971H242.678l.9-.971-1.8,9.7Zm8.038-12.812-.554-.693h10.111l-.832.693-3.738-22.23-.139-.969h-.752l-.139.969Zm40.439,13.3a12.875,12.875,0,0,1-7.929-2.009,6.765,6.765,0,0,1-2.6-5.68V8.376A7.551,7.551,0,0,1,276.159,2.1a12.554,12.554,0,0,1,7.86-1.974,13.558,13.558,0,0,1,8.034,1.94,7.388,7.388,0,0,1,2.635,6.374v9.216l-5.885.763V9.9a6.276,6.276,0,0,0-.9-3.636,4.355,4.355,0,0,0-3.738-1.281,3.955,3.955,0,0,0-3.567,1.35,6.4,6.4,0,0,0-.865,3.5v25.14a4.534,4.534,0,0,0,.969,2.975,4.284,4.284,0,0,0,3.467,1.179,4.627,4.627,0,0,0,3.6-1.179,4.336,4.336,0,0,0,1.037-2.975V26.935l5.886-.691V36.353a6.653,6.653,0,0,1-2.7,5.68A12.837,12.837,0,0,1,284.227,44.042Zm48.822-2.286L321,20.079,331.526,2.905l-4.5-2.77L315.808,18.918V.621h-6.027V43.557h6.027V22.116l11.91,22.342ZM372.314,5.33h-7.48V.621h20.983V5.33h-7.546V43.557h-5.955ZM409.3,43.911a13.227,13.227,0,0,1-7.929-1.939,6.356,6.356,0,0,1-2.6-5.4V7.269a6.5,6.5,0,0,1,2.459-5.229A12.4,12.4,0,0,1,409.3.064,13.4,13.4,0,0,1,417.433,2.1a6.371,6.371,0,0,1,2.447,5.227V36.57a6.41,6.41,0,0,1-2.562,5.365A13.186,13.186,0,0,1,409.3,43.911Zm0-4.917a5.146,5.146,0,0,0,3.671-1.074,3.821,3.821,0,0,0,1.11-2.874V8.793a3.95,3.95,0,0,0-1-2.815,5.244,5.244,0,0,0-3.844-1.073,4.9,4.9,0,0,0-3.644,1.073,3.86,3.86,0,0,0-1,2.737V35.024a3.789,3.789,0,0,0,1.108,2.908,5.163,5.163,0,0,0,3.6,1.054ZM435.333.621h14.755a10.061,10.061,0,0,1,4.389.728,3.552,3.552,0,0,1,1.87,2.214,12.984,12.984,0,0,1,.451,3.706V18.078a24.757,24.757,0,0,1-.408,4.674,5.685,5.685,0,0,1-2.146,3.533,9.361,9.361,0,0,1-5.68,1.35h-7.276V43.563h-5.955Zm11.355,22.3a4.077,4.077,0,0,0,3.116-1.108A5.525,5.525,0,0,0,450.847,18V9.9a6.082,6.082,0,0,0-.759-3.671,3.6,3.6,0,0,0-2.839-.9h-5.961V22.92Zm25.348,1.939v-4.78h20.429v4.78Zm47.291,19.114a39.382,39.382,0,0,1-5.539-.486,8.385,8.385,0,0,1-3.983-1.631,4.17,4.17,0,0,1-1.489-3.429v-9.4l5.956-.694v7.689a2.87,2.87,0,0,0,1,2.353,6.027,6.027,0,0,0,3.7.832,7.276,7.276,0,0,0,2.771-.407,2.333,2.333,0,0,0,1.316-1.281,5.939,5.939,0,0,0,.346-2.182v-5.35a6.18,6.18,0,0,0-1-3.6,5.874,5.874,0,0,0-3.29-2.148l-5.053-1.454a9.925,9.925,0,0,1-4.4-2.46,6.925,6.925,0,0,1-1.35-4.743V7.13A6.009,6.009,0,0,1,509.77,2.7,7.377,7.377,0,0,1,513.688.759,29.114,29.114,0,0,1,519.27.268a25.232,25.232,0,0,1,5.2.485,7.48,7.48,0,0,1,3.6,1.7,4.343,4.343,0,0,1,1.316,3.359v9.424l-5.955.9V8.654a3.819,3.819,0,0,0-.9-2.978,5.764,5.764,0,0,0-3.532-.762,5.532,5.532,0,0,0-3.634.936,4.624,4.624,0,0,0-1.075,3.565v4.709a5.249,5.249,0,0,0,.936,3.118,5.03,5.03,0,0,0,2.735,1.868l5.4,1.662a9.587,9.587,0,0,1,4.64,2.6,7.264,7.264,0,0,1,1.385,4.815v8.725a6.685,6.685,0,0,1-1.281,4.466,6.391,6.391,0,0,1-3.532,2.009A26.308,26.308,0,0,1,519.327,43.973ZM544.542.621H550.5V17.448h9.141V.621H565.6V43.557h-5.957V22.09H550.5V43.557h-5.955Zm36.987,0h20.359V5.33h-14.4V17.448h13.089l-.76,4.642H587.488V38.917h14.4v4.64H581.529Zm34.9,0h5.956v38.3H635.47v4.64H616.426Zm32.755,0h20.362V5.33h-14.4V17.448H668.3l-.763,4.642h-12.4V43.557h-5.957ZM11.816,103.9a21.2,21.2,0,0,1-6.086-.747,7.054,7.054,0,0,1-3.7-2.385A6.858,6.858,0,0,1,.783,96.5V66.748q0-4.485,2.776-6.086t8.186-1.6q5.195,0,7.972,1.637t2.776,6.122v6.9l-6.122.356V67.958q0-2.419-1.1-3.168a6.267,6.267,0,0,0-3.452-.747,7.268,7.268,0,0,0-3.63.747q-1.281.748-1.281,3.1v27.69a3.078,3.078,0,0,0,.6,2.1,3.13,3.13,0,0,0,1.708.925,12.239,12.239,0,0,0,2.669.249,10.894,10.894,0,0,0,2.527-.249,2.915,2.915,0,0,0,1.6-.925,3.22,3.22,0,0,0,.569-2.1V84.97H10.748l.427-5.125H22.493V96.5a6.865,6.865,0,0,1-1.246,4.271,7.041,7.041,0,0,1-3.63,2.385A19.587,19.587,0,0,1,11.816,103.9ZM53.954,85.112l-.284-.427-.1-.028a7,7,0,0,0,3.3-1.217,5.849,5.849,0,0,0,2.206-3.631,25.639,25.639,0,0,0,.427-4.8V66.25a13.381,13.381,0,0,0-.462-3.809,3.667,3.667,0,0,0-1.922-2.277,10.363,10.363,0,0,0-4.52-.748H37.441v44.132h6.121V84.828H47.93l7.875,19.93,5.7-2.206Zm-.569-10.179a5.68,5.68,0,0,1-1.068,3.915,4.183,4.183,0,0,1-3.2,1.139H43.562V64.257h6.122a3.7,3.7,0,0,1,2.918.925q.782.926.783,3.772Zm19.148,28.615,9.253-44.132h7.332l9.111,44.132H91.894L89.9,93.583l1.068,1H79.651l.925-1-1.851,9.965ZM80.79,90.38l-.57-.712H90.613l-.855.712L85.915,67.531l-.143-1h-.783l-.142,1Zm30.892-30.964h15.873q3.345,0,4.555,1.637a8.383,8.383,0,0,1,1.21,4.983V96.857q0,3.561-1.139,5.125t-4.84,1.566H111.682ZM123.64,98.708a3.64,3.64,0,0,0,2.847-.854,4.762,4.762,0,0,0,.712-2.99V68.029a4.345,4.345,0,0,0-.783-2.847,3,3,0,0,0-2.42-.925H117.8V98.708Zm24.842-39.292h20.926v4.841H154.6V76.713h13.453l-.783,4.769H154.6v17.3h14.8v4.769H148.482ZM184.5,84.329V79.418h21v4.911Zm35.091,19.219,9.254-44.132h7.331l9.112,44.132h-6.335l-1.994-9.965,1.068,1H226.709l.925-1-1.851,9.965Zm8.258-13.168-.57-.712H237.67l-.854.712-3.843-22.849-.143-1h-.783l-.142,1Zm62,13.6a40.413,40.413,0,0,1-5.694-.5,8.611,8.611,0,0,1-4.093-1.673,4.28,4.28,0,0,1-1.53-3.523V88.6l6.121-.711v7.9a2.966,2.966,0,0,0,1.032,2.42q1.032.854,3.809.854a7.5,7.5,0,0,0,2.847-.427,2.387,2.387,0,0,0,1.352-1.317,6.09,6.09,0,0,0,.356-2.242V89.6a6.371,6.371,0,0,0-1.032-3.7,6.061,6.061,0,0,0-3.381-2.206l-5.2-1.495a10.191,10.191,0,0,1-4.521-2.527q-1.388-1.53-1.387-4.876V66.107a6.2,6.2,0,0,1,1.494-4.556,7.606,7.606,0,0,1,4.022-1.992,29.794,29.794,0,0,1,5.73-.5,25.875,25.875,0,0,1,5.339.5,7.715,7.715,0,0,1,3.7,1.743,4.465,4.465,0,0,1,1.353,3.453v9.68l-6.122.926V67.673q0-2.277-.925-3.061t-3.63-.783a5.706,5.706,0,0,0-3.738.961q-1.1.961-1.1,3.666V73.3a5.382,5.382,0,0,0,.961,3.2,5.181,5.181,0,0,0,2.812,1.921l5.552,1.709a9.838,9.838,0,0,1,4.769,2.669,7.459,7.459,0,0,1,1.424,4.947v8.969a6.887,6.887,0,0,1-1.317,4.591,6.578,6.578,0,0,1-3.63,2.064A26.924,26.924,0,0,1,289.844,103.975Zm35.733-.071a21.876,21.876,0,0,1-5.517-.641,8.157,8.157,0,0,1-3.88-2.1,5.414,5.414,0,0,1-1.423-3.951v-37.8h6.121v35.8a4.628,4.628,0,0,0,.392,1.886,2.95,2.95,0,0,0,1.423,1.424,6.371,6.371,0,0,0,2.884.534,6.562,6.562,0,0,0,2.953-.534,2.783,2.783,0,0,0,1.388-1.424,5.032,5.032,0,0,0,.356-1.886v-35.8H336.4v37.8a5.414,5.414,0,0,1-1.424,3.951,8.153,8.153,0,0,1-3.879,2.1A21.885,21.885,0,0,1,325.577,103.9Zm26.192-44.488h15.162a10.363,10.363,0,0,1,4.52.748,3.67,3.67,0,0,1,1.922,2.277,13.381,13.381,0,0,1,.462,3.809v11.1a25.665,25.665,0,0,1-.427,4.805,5.838,5.838,0,0,1-2.206,3.629q-1.781,1.389-5.837,1.389h-7.474v16.371h-6.122Zm11.674,22.921a4.182,4.182,0,0,0,3.2-1.14,5.679,5.679,0,0,0,1.068-3.914V68.954q0-2.845-.783-3.772a3.7,3.7,0,0,0-2.918-.925h-6.122v18.08Zm24.486-22.921h20.928v4.841H394.051V76.713H407.5l-.782,4.769H394.051v17.3h14.806v4.769H387.929Zm73.458,24.913V79.418h21v4.911Zm37.44-24.913H514.7q3.346,0,4.556,1.637a8.39,8.39,0,0,1,1.21,4.983V96.857q0,3.561-1.139,5.125t-4.84,1.566H498.827Zm11.959,39.292a3.641,3.641,0,0,0,2.848-.854,4.769,4.769,0,0,0,.712-2.99V68.029a4.339,4.339,0,0,0-.784-2.847,3,3,0,0,0-2.42-.925H504.95V98.708Zm35.377,5.2a21.887,21.887,0,0,1-5.517-.641,8.153,8.153,0,0,1-3.879-2.1,5.41,5.41,0,0,1-1.424-3.951v-37.8h6.122v35.8a4.627,4.627,0,0,0,.391,1.886,2.956,2.956,0,0,0,1.424,1.424,6.363,6.363,0,0,0,2.883.534,6.57,6.57,0,0,0,2.954-.534,2.787,2.787,0,0,0,1.388-1.424,5.032,5.032,0,0,0,.356-1.886v-35.8h6.122v37.8a5.419,5.419,0,0,1-1.424,3.951,8.157,8.157,0,0,1-3.88,2.1A21.873,21.873,0,0,1,546.163,103.9Zm26.193-44.488h15.162a10.363,10.363,0,0,1,4.52.748,3.673,3.673,0,0,1,1.922,2.277,13.381,13.381,0,0,1,.462,3.809v11.1A25.75,25.75,0,0,1,594,82.159a5.842,5.842,0,0,1-2.206,3.629q-1.781,1.389-5.837,1.389h-7.474v16.371h-6.122ZM584.03,82.337a4.181,4.181,0,0,0,3.2-1.14,5.679,5.679,0,0,0,1.068-3.914V68.954q0-2.845-.782-3.772a3.705,3.705,0,0,0-2.919-.925h-6.121v18.08Zm24.485-22.921h20.927v4.841H614.637V76.713H628.09l-.783,4.769h-12.67v17.3h14.805v4.769H608.515Zm51.678,25.7-.285-.427-.1-.028a6.991,6.991,0,0,0,3.3-1.217,5.846,5.846,0,0,0,2.207-3.631,25.726,25.726,0,0,0,.426-4.8V66.25a13.381,13.381,0,0,0-.462-3.809,3.667,3.667,0,0,0-1.922-2.277,10.363,10.363,0,0,0-4.52-.748H643.678v44.132H649.8V84.828h4.368l7.874,19.93,5.7-2.206Zm-.57-10.179a5.68,5.68,0,0,1-1.068,3.915,4.182,4.182,0,0,1-3.2,1.139H649.8V64.257h6.121a3.7,3.7,0,0,1,2.918.925q.783.926.783,3.772Z"/>
</svg>
