<svg xmlns="http://www.w3.org/2000/svg" viewBox="0 0 669.632 107.233">
  <defs>
    <style>
      path {
        fill: #e3e0db;
      }
      g path:nth-of-type(3n+1) {
        fill: #fc6d35;
      }
      g path:nth-of-type(3n+2) {
        fill: #02b6f7;
      }
      g path:nth-of-type(3n+3) {
        fill: #fbca6f;
      }
    </style>
  </defs>

  <!-- FULL-STACK -->
  <path d="M0,.273H9.984V2.582H2.92V8.524H9.372L9,10.8H2.92V21.326H0Z"/>
  <path d="M22,21.5a10.421,10.421,0,0,1-2.632-.306,3.889,3.889,0,0,1-1.851-1,2.576,2.576,0,0,1-.678-1.884V.273h2.92v17.08a2.2,2.2,0,0,0,.186.9,1.411,1.411,0,0,0,.68.679A3.035,3.035,0,0,0,22,19.187a3.128,3.128,0,0,0,1.409-.255,1.328,1.328,0,0,0,.662-.679,2.391,2.391,0,0,0,.17-.9V.273h2.92V18.3a2.577,2.577,0,0,1-.679,1.884,3.886,3.886,0,0,1-1.85,1A10.424,10.424,0,0,1,22,21.5Z"/>
  <path d="M34.839.273h2.92V19.051h6.418v2.275H34.839Z"/>
  <path d="M50.9.273h2.92V19.051h6.418v2.275H50.9Z"/>
  <path d="M67.369,12.158V9.814H77.386v2.344Z"/>
  <path d="M90.561,21.53a19.311,19.311,0,0,1-2.716-.238,4.111,4.111,0,0,1-1.953-.8,2.043,2.043,0,0,1-.73-1.681V14.2l2.92-.34v3.77a1.41,1.41,0,0,0,.493,1.154,2.941,2.941,0,0,0,1.816.408,3.569,3.569,0,0,0,1.359-.2,1.141,1.141,0,0,0,.645-.628,2.91,2.91,0,0,0,.17-1.07V14.671a3.037,3.037,0,0,0-.493-1.766,2.881,2.881,0,0,0-1.613-1.053l-2.478-.713a4.866,4.866,0,0,1-2.157-1.206,3.4,3.4,0,0,1-.662-2.326V3.465a2.951,2.951,0,0,1,.713-2.173A3.62,3.62,0,0,1,87.794.341,14.231,14.231,0,0,1,90.527.1a12.369,12.369,0,0,1,2.547.238,3.67,3.67,0,0,1,1.766.832,2.132,2.132,0,0,1,.645,1.647V7.438l-2.92.441V4.212a1.875,1.875,0,0,0-.442-1.46,2.829,2.829,0,0,0-1.732-.374,2.714,2.714,0,0,0-1.782.459,2.267,2.267,0,0,0-.527,1.748V6.894a2.568,2.568,0,0,0,.459,1.529,2.464,2.464,0,0,0,1.341.916l2.648.815a4.691,4.691,0,0,1,2.276,1.273,3.562,3.562,0,0,1,.679,2.361v4.278a3.282,3.282,0,0,1-.628,2.19,3.134,3.134,0,0,1-1.732.985A12.857,12.857,0,0,1,90.561,21.53Z"/>
  <path d="M105.569,2.582H101.9V.273h10.289V2.582h-3.7V21.326h-2.921Z"/>
  <path d="M115.553,21.326,119.967.273h3.5l4.347,21.053h-3.022l-.951-4.754.509.476h-5.4l.442-.476-.883,4.754Zm3.939-6.282-.272-.34h4.958l-.408.34-1.833-10.9-.068-.475H121.5l-.068.475Z"/>
  <path d="M139.323,21.564a6.315,6.315,0,0,1-3.888-.985,3.315,3.315,0,0,1-1.274-2.785V4.076A3.7,3.7,0,0,1,135.367,1a6.156,6.156,0,0,1,3.854-.968,6.647,6.647,0,0,1,3.939.951,3.624,3.624,0,0,1,1.29,3.124V8.626L141.564,9V4.823a3.078,3.078,0,0,0-.442-1.783,2.136,2.136,0,0,0-1.833-.628,1.94,1.94,0,0,0-1.749.662,3.132,3.132,0,0,0-.424,1.715V17.116a2.219,2.219,0,0,0,.475,1.459,2.1,2.1,0,0,0,1.7.578,2.266,2.266,0,0,0,1.766-.578,2.125,2.125,0,0,0,.509-1.459v-3.94l2.886-.339v4.957a3.263,3.263,0,0,1-1.324,2.785A6.29,6.29,0,0,1,139.323,21.564Z"/>
  <path d="M163.262,20.443,157.353,9.814l5.162-8.421L160.308.035l-5.5,9.21V.273h-2.955V21.326h2.955V10.813l5.84,10.955Z"/>

  <!-- TOP-SHELF -->
  <path d="M182.515,2.582h-3.668V.273h10.289V2.582h-3.7V21.326h-2.92Z"/>
  <path d="M200.648,21.5a6.484,6.484,0,0,1-3.888-.951,3.117,3.117,0,0,1-1.274-2.648V3.533A3.186,3.186,0,0,1,196.692.969,6.078,6.078,0,0,1,200.648,0a6.571,6.571,0,0,1,3.99,1,3.125,3.125,0,0,1,1.2,2.563V17.9a3.145,3.145,0,0,1-1.256,2.631A6.466,6.466,0,0,1,200.648,21.5Zm0-2.411a2.526,2.526,0,0,0,1.8-.527,1.871,1.871,0,0,0,.544-1.409V4.28A1.938,1.938,0,0,0,202.5,2.9a2.572,2.572,0,0,0-1.885-.526,2.4,2.4,0,0,0-1.783.526,1.891,1.891,0,0,0-.492,1.342v12.9a1.856,1.856,0,0,0,.543,1.426,2.53,2.53,0,0,0,1.765.517Z"/>
  <path d="M213.415.273h7.233A4.936,4.936,0,0,1,222.8.63a1.746,1.746,0,0,1,.917,1.086,6.369,6.369,0,0,1,.221,1.817v5.3a12.147,12.147,0,0,1-.2,2.292,2.79,2.79,0,0,1-1.052,1.732,4.589,4.589,0,0,1-2.785.662h-3.566v7.81h-2.92Zm5.569,10.934a2,2,0,0,0,1.528-.543,2.711,2.711,0,0,0,.51-1.868V4.823a2.984,2.984,0,0,0-.374-1.8,1.765,1.765,0,0,0-1.392-.441h-2.921v8.625Z"/>
  <path d="M231.412,12.158V9.814h10.017v2.344Z"/>
  <path d="M254.6,21.53a19.311,19.311,0,0,1-2.716-.238,4.111,4.111,0,0,1-1.953-.8,2.043,2.043,0,0,1-.73-1.681V14.2l2.92-.34v3.77a1.41,1.41,0,0,0,.493,1.154,2.955,2.955,0,0,0,1.816.408,3.569,3.569,0,0,0,1.359-.2,1.141,1.141,0,0,0,.645-.628,2.91,2.91,0,0,0,.17-1.07V14.671a3.03,3.03,0,0,0-.493-1.766,2.881,2.881,0,0,0-1.613-1.053l-2.478-.713a4.866,4.866,0,0,1-2.157-1.206,3.4,3.4,0,0,1-.662-2.326V3.465a2.951,2.951,0,0,1,.713-2.173,3.62,3.62,0,0,1,1.919-.951A14.272,14.272,0,0,1,254.57.1a12.369,12.369,0,0,1,2.547.238,3.67,3.67,0,0,1,1.766.832,2.132,2.132,0,0,1,.645,1.647V7.438l-2.92.441V4.212a1.875,1.875,0,0,0-.442-1.46,2.829,2.829,0,0,0-1.732-.374,2.714,2.714,0,0,0-1.782.459,2.267,2.267,0,0,0-.527,1.748V6.894a2.568,2.568,0,0,0,.459,1.529,2.464,2.464,0,0,0,1.341.916l2.649.815a4.7,4.7,0,0,1,2.275,1.273,3.562,3.562,0,0,1,.679,2.361v4.278a3.282,3.282,0,0,1-.628,2.19,3.134,3.134,0,0,1-1.732.985A12.888,12.888,0,0,1,254.6,21.53Z"/>
  <path d="M266.964.273h2.92V8.524h4.482V.273h2.921V21.326h-2.921V10.8h-4.482V21.326h-2.92Z"/>
  <path d="M285.1.273h9.984V2.582h-7.064V8.524h6.418l-.373,2.276h-6.045v8.251h7.064v2.275H285.1Z"/>
  <path d="M302.211.273h2.92V19.051h6.418v2.275h-9.338Z"/>
  <path d="M318.272.273h9.984V2.582h-7.063V8.524h6.452l-.374,2.276h-6.078V21.326h-2.921Z"/>

  <!-- GRADE-A -->
  <path d="M350.463,21.5a10.1,10.1,0,0,1-2.9-.357A3.355,3.355,0,0,1,345.794,20a3.271,3.271,0,0,1-.595-2.038V3.77a3.057,3.057,0,0,1,1.325-2.9,7.966,7.966,0,0,1,3.9-.764,7.571,7.571,0,0,1,3.8.781,3.1,3.1,0,0,1,1.324,2.92V7.1l-2.92.17V4.348a1.733,1.733,0,0,0-.526-1.511,2.979,2.979,0,0,0-1.647-.357,3.46,3.46,0,0,0-1.732.357,1.569,1.569,0,0,0-.611,1.477V17.523a1.47,1.47,0,0,0,.289,1,1.491,1.491,0,0,0,.814.441,5.858,5.858,0,0,0,1.274.119,5.205,5.205,0,0,0,1.2-.119,1.389,1.389,0,0,0,.764-.441,1.534,1.534,0,0,0,.272-1v-5.06H349.94l.2-2.445h5.4v7.946A3.283,3.283,0,0,1,354.962,20a3.357,3.357,0,0,1-1.732,1.137A9.346,9.346,0,0,1,350.463,21.5Z"/>
  <path d="M370.9,12.531l-.136-.2-.068-.02a3.375,3.375,0,0,0,1.6-.574A2.776,2.776,0,0,0,373.349,10a12.147,12.147,0,0,0,.2-2.292V3.533a6.369,6.369,0,0,0-.221-1.817A1.747,1.747,0,0,0,372.416.63a4.956,4.956,0,0,0-2.157-.357h-7.233V21.326h2.921V12.4h2.084l3.757,9.508,2.716-1.052Zm-.271-4.856a2.716,2.716,0,0,1-.509,1.868,2,2,0,0,1-1.529.543h-2.648v-7.5h2.92a1.769,1.769,0,0,1,1.392.441,2.984,2.984,0,0,1,.374,1.8Z"/>
  <path d="M380.1,21.326,384.521.273h3.5l4.347,21.053h-3.022l-.951-4.754.51.476h-5.4l.441-.476-.882,4.754Zm3.938-6.282-.271-.34h4.957l-.406.34-1.834-10.9-.068-.475h-.374l-.068.475Z"/>
  <path d="M399.122.273H406.7a2.55,2.55,0,0,1,2.172.781,4,4,0,0,1,.577,2.377v14.7a4.244,4.244,0,0,1-.543,2.445,2.753,2.753,0,0,1-2.309.747h-7.47Zm5.7,18.744a1.737,1.737,0,0,0,1.359-.407,2.275,2.275,0,0,0,.339-1.427V4.382a2.076,2.076,0,0,0-.373-1.359A1.432,1.432,0,0,0,405,2.582h-2.954V19.017Z"/>
  <path d="M417.016.273H427V2.582h-7.062V8.524h6.418l-.374,2.276h-6.044v8.251H427v2.275h-9.983Z"/>
  <path d="M434.539,12.158V9.814h10.017v2.344Z"/>
  <path d="M451.619,21.326,456.033.273h3.5l4.347,21.053h-3.022l-.951-4.754.509.476h-5.4l.441-.476-.882,4.754Zm3.938-6.282-.271-.34h4.957l-.407.34L458,4.144l-.067-.475h-.374l-.068.475Z"/>

  <!-- SUPER-DUPER -->
  <path d="M485.811,21.53a19.311,19.311,0,0,1-2.716-.238,4.107,4.107,0,0,1-1.952-.8,2.043,2.043,0,0,1-.73-1.681V14.2l2.92-.34v3.77a1.414,1.414,0,0,0,.492,1.154,2.953,2.953,0,0,0,1.817.408,3.564,3.564,0,0,0,1.358-.2,1.138,1.138,0,0,0,.645-.628,2.91,2.91,0,0,0,.17-1.07V14.671a3.044,3.044,0,0,0-.492-1.766,2.889,2.889,0,0,0-1.613-1.053l-2.479-.713a4.853,4.853,0,0,1-2.156-1.206,3.391,3.391,0,0,1-.662-2.326V3.465a2.951,2.951,0,0,1,.713-2.173,3.617,3.617,0,0,1,1.918-.951A14.241,14.241,0,0,1,485.778.1a12.36,12.36,0,0,1,2.546.238,3.67,3.67,0,0,1,1.766.832,2.127,2.127,0,0,1,.645,1.647V7.438l-2.92.441V4.212a1.874,1.874,0,0,0-.441-1.46,2.829,2.829,0,0,0-1.732-.374,2.717,2.717,0,0,0-1.783.459,2.27,2.27,0,0,0-.526,1.748V6.894a2.559,2.559,0,0,0,.459,1.529,2.464,2.464,0,0,0,1.341.916l2.648.815a4.691,4.691,0,0,1,2.276,1.273,3.568,3.568,0,0,1,.678,2.361v4.278a3.283,3.283,0,0,1-.627,2.19,3.137,3.137,0,0,1-1.733.985,12.857,12.857,0,0,1-2.564.289Z"/>
  <path d="M503.2,21.5a10.459,10.459,0,0,1-2.631-.306,3.872,3.872,0,0,1-1.851-1,2.577,2.577,0,0,1-.679-1.884V.273h2.92v17.08a2.194,2.194,0,0,0,.187.9,1.409,1.409,0,0,0,.679.679,3.035,3.035,0,0,0,1.375.255,3.132,3.132,0,0,0,1.41-.255,1.328,1.328,0,0,0,.662-.679,2.39,2.39,0,0,0,.169-.9V.273h2.921V18.3a2.578,2.578,0,0,1-.68,1.884,3.886,3.886,0,0,1-1.85,1A10.424,10.424,0,0,1,503.2,21.5Z"/>
  <path d="M516.033.273h7.232a4.956,4.956,0,0,1,2.157.357,1.749,1.749,0,0,1,.917,1.086,6.4,6.4,0,0,1,.221,1.817v5.3a12.23,12.23,0,0,1-.2,2.292,2.786,2.786,0,0,1-1.052,1.732,4.584,4.584,0,0,1-2.784.662h-3.565v7.81h-2.921ZM521.6,11.207a2,2,0,0,0,1.529-.543,2.711,2.711,0,0,0,.509-1.868V4.823a2.984,2.984,0,0,0-.374-1.8,1.765,1.765,0,0,0-1.392-.441h-2.919v8.625Z"/>
  <path d="M533.622.273h9.983V2.582h-7.062V8.524h6.418l-.374,2.276h-6.044v8.251h7.062v2.275h-9.983Z"/>
  <path d="M558.614,12.531l-.136-.2-.069-.02a3.386,3.386,0,0,0,1.6-.574A2.778,2.778,0,0,0,561.059,10a12.147,12.147,0,0,0,.2-2.292V3.533a6.369,6.369,0,0,0-.221-1.817A1.753,1.753,0,0,0,560.126.63a4.956,4.956,0,0,0-2.157-.357h-7.233V21.326h2.921V12.4h2.084l3.759,9.5,2.716-1.052Zm-.272-4.856a2.715,2.715,0,0,1-.508,1.868,2,2,0,0,1-1.529.543h-2.648v-7.5h2.92a1.769,1.769,0,0,1,1.392.441,2.991,2.991,0,0,1,.373,1.8Z"/>
  <path d="M569.342,12.158V9.814h10.017v2.344Z"/>
  <path d="M587.544.273h7.573a2.553,2.553,0,0,1,2.173.781,4,4,0,0,1,.577,2.377v14.7a4.244,4.244,0,0,1-.543,2.445,2.754,2.754,0,0,1-2.309.747h-7.471Zm5.705,18.744a1.737,1.737,0,0,0,1.359-.407,2.275,2.275,0,0,0,.339-1.427V4.382a2.076,2.076,0,0,0-.373-1.359,1.433,1.433,0,0,0-1.155-.441h-2.954V19.017Z"/>
  <path d="M610.466,21.5a10.413,10.413,0,0,1-2.631-.306,3.872,3.872,0,0,1-1.851-1,2.572,2.572,0,0,1-.68-1.884V.273h2.921v17.08a2.194,2.194,0,0,0,.187.9,1.411,1.411,0,0,0,.678.679,3.042,3.042,0,0,0,1.376.255,3.128,3.128,0,0,0,1.409-.255,1.338,1.338,0,0,0,.663-.679,2.433,2.433,0,0,0,.169-.9V.273h2.921V18.3a2.578,2.578,0,0,1-.68,1.884,3.872,3.872,0,0,1-1.851,1A10.417,10.417,0,0,1,610.466,21.5Z"/>
  <path d="M623.3.273h7.233A4.956,4.956,0,0,1,632.69.63a1.75,1.75,0,0,1,.916,1.086,6.369,6.369,0,0,1,.221,1.817v5.3a12.147,12.147,0,0,1-.2,2.292,2.784,2.784,0,0,1-1.053,1.732,4.567,4.567,0,0,1-2.783.662h-3.566v7.81H623.3Zm5.569,10.934a2,2,0,0,0,1.529-.543,2.716,2.716,0,0,0,.509-1.868V4.823a2.984,2.984,0,0,0-.374-1.8,1.769,1.769,0,0,0-1.392-.441h-2.92v8.625Z"/>
  <path d="M640.89.273h9.983V2.582H643.81V8.524h6.418l-.373,2.276H643.81v8.251h7.063v2.275H640.89Z"/>
  <path d="M665.882,12.531l-.136-.2-.069-.02a3.386,3.386,0,0,0,1.6-.574A2.78,2.78,0,0,0,668.326,10a12.23,12.23,0,0,0,.2-2.292V3.533a6.4,6.4,0,0,0-.221-1.817A1.749,1.749,0,0,0,667.393.63a4.956,4.956,0,0,0-2.157-.357H658V21.326h2.92V12.4H663l3.757,9.508,2.716-1.052Zm-.272-4.856a2.711,2.711,0,0,1-.509,1.868,2,2,0,0,1-1.529.543h-2.648v-7.5h2.92a1.765,1.765,0,0,1,1.392.441,2.984,2.984,0,0,1,.374,1.8Z"/>

  <g class="web-development">
    <path d="M49.782,37.129l-6.02,35.484-5.686-32.2-.438-2.478H26.981l-.463,2.44-6.244,32.9L13.848,37.1l-.44-2.475H0L.691,38.2,13.5,104.373l.47,2.43h12l.464-2.439,5.822-30.6L37.5,104.311l.428,2.492H49.985l.464-2.439L63.043,38.191l.678-3.561H50.2Zm10,.5L47.182,103.8H40.14l-7.9-46-.107-1.388h-.106L31.92,57.8l-8.752,46H16.126L3.318,37.63h7.258l9.179,51.657.106,1.6h.108v-1.6l9.178-48.344H34.8l8.54,48.348.106,1.6h.106l.107-1.6,8.752-51.657Z"/>
    <path d="M68.833,106.8h36.418V95.143H82.093v-22.5h19.812l.424-2.5.961-5.657.595-3.5H82.093v-14.7h23.16V34.63H68.835Zm2.682-69.173h30.418v5.657H78.775V63.993h21.239l-.961,5.656H78.775v28.5h23.16V103.8H71.517Z"/>
    <path d="M136.141,71.89a10.853,10.853,0,0,0-6.241-1.708h-8V98.143h9.393a12.288,12.288,0,0,0,4.162-.587,4.185,4.185,0,0,0,2.4-2.4,14.12,14.12,0,0,0,.8-5.444V77.761Q138.65,73.6,136.141,71.89Zm-.173,17.824a11.133,11.133,0,0,1-.545,4.233c-.286.648-.566.75-.686.794a9.284,9.284,0,0,1-3.133.405h-6.393V73.182h5.005a7.974,7.974,0,0,1,4.556,1.189c.294.2,1.2.815,1.2,3.39Zm8.811-23.281c-.108-.089-.219-.177-.331-.263a15.215,15.215,0,0,0,2.684-4.4,19.645,19.645,0,0,0,1.346-7.492V48.943a19.1,19.1,0,0,0-1.542-8.488,9.4,9.4,0,0,0-5.665-4.827,26.8,26.8,0,0,0-8.066-1H111.954V106.8h21.891c4,0,7.02-.54,9.24-1.651a9.943,9.943,0,0,0,5.138-6.02,28.55,28.55,0,0,0,1.11-8.777V78.187a20.4,20.4,0,0,0-.956-6.446A11.5,11.5,0,0,0,144.779,66.433Zm1.235,23.922a25.955,25.955,0,0,1-.961,7.845,7,7,0,0,1-3.628,4.269q-2.67,1.337-7.9,1.334h-18.89V37.63h18.251a24.179,24.179,0,0,1,7.151.854,6.348,6.348,0,0,1,3.9,3.308,16.488,16.488,0,0,1,1.227,7.151V54.28a16.581,16.581,0,0,1-1.12,6.35,11.274,11.274,0,0,1-2.882,4.27,6.693,6.693,0,0,1-3.683,1.761l.108.106a9.7,9.7,0,0,1,4.963,1.976,8.508,8.508,0,0,1,2.668,3.949,17.325,17.325,0,0,1,.8,5.5Zm-11.74-26.576a6.573,6.573,0,0,0,2.668-2.935,13.266,13.266,0,0,0,1.068-5.924V51.4a23.062,23.062,0,0,0-.427-5.016,4.008,4.008,0,0,0-1.868-2.668,9.808,9.808,0,0,0-4.749-.854h-9.073V64.633h8.965A7.157,7.157,0,0,0,134.274,63.779ZM125.211,45.86h6.073a7.121,7.121,0,0,1,3.219.435c.127.075.343.2.478.776a19.869,19.869,0,0,1,.347,4.327V54.92a10.24,10.24,0,0,1-.738,4.555,3.715,3.715,0,0,1-1.408,1.656,4.156,4.156,0,0,1-2.006.5h-5.965Z"/>
    <path d="M200.231,43.286h-11.2V98.143h10.353q3.842,0,5.123-1.441t1.28-5.389v-41.3a7.568,7.568,0,0,0-1.44-5.07,5.161,5.161,0,0,0-4.11-1.654Zm2.869,48.03c0,2.674-.5,3.37-.525,3.4h0a5.872,5.872,0,0,1-2.878.431h-7.353V46.287h8.206c1.3,0,1.7.454,1.848.625.261.3.7,1.1.7,3.1Zm1.4-56.686H179.193V106.8h24.88c4.906,0,8.144-1.172,9.9-3.585,1.535-2.109,2.281-5.235,2.281-9.555v-46c0-4.042-.8-7.089-2.46-9.315C211.952,35.88,208.826,34.63,204.5,34.63Zm8.433,59.033q0,5.444-1.708,7.791t-7.47,2.349h-21.88V37.63h22.306q5.016,0,6.884,2.508t1.868,7.525Z"/>
    <path d="M224.764,106.8h36.418V95.143h-23.16v-22.5h19.812l.424-2.5.961-5.657.6-3.5h-21.8v-14.7h23.16V34.63H224.765Zm2.682-69.173h30.418v5.657H234.7V63.993h21.239l-.961,5.656H234.705v28.5h23.16V103.8H227.447Z"/>
    <path d="M291.948,37.093,284.7,76.874l-7.56-39.8-.463-2.44H263.348l.758,3.616,13.875,66.173.5,2.384h12.446l.5-2.38,13.984-66.172.765-3.62H292.4Zm10.21.537L288.177,103.8H280.6L266.724,37.63h7.151L284.335,92.7l.106,1.708h.107V92.7l10.033-55.073Z"/>
    <path d="M310.9,106.8h36.418V95.143h-23.16v-22.5H343.97l.424-2.5.961-5.657.595-3.5h-21.8v-14.7h23.16V34.63H310.9Zm2.682-69.173H344v5.657H320.84V63.993h21.239l-.961,5.656H320.835v28.5H344V103.8H313.577Z"/>
    <path d="M367.272,34.63H354.014V106.8h33.963V95.143h-20.7Zm17.387,63.513V103.8H356.7V37.63h7.258V98.143Z"/>
    <path d="M410.485,42.643q-4.8,0-6.564,1.868a6.374,6.374,0,0,0-1.761,4.536v42.7a6.177,6.177,0,0,0,2.028,4.749q2.026,1.869,6.4,1.868,4.587,0,6.617-1.868a6.3,6.3,0,0,0,2.028-4.856V49.155a6.452,6.452,0,0,0-1.814-4.589q-1.81-1.92-6.932-1.92Zm6.07,48.99a3.313,3.313,0,0,1-1.055,2.649c-.435.4-1.61,1.075-4.584,1.075-2.1,0-3.609-.371-4.37-1.073a3.189,3.189,0,0,1-1.062-2.544V49.055a3.4,3.4,0,0,1,.944-2.479c.144-.152,1.043-.925,4.381-.925,3.644,0,4.6.819,4.758.983a3.479,3.479,0,0,1,.994,2.528Zm8.305-54.148c-2.988-2.416-7.537-3.629-13.91-3.711h-.582c-5.983,0-10.31,1.19-13.231,3.64a12.464,12.464,0,0,0-4.7,9.93V93.453a12.3,12.3,0,0,0,5.134,10.38c3.15,2.287,7.514,3.4,13.342,3.4,6.058,0,10.522-1.139,13.646-3.482a12.389,12.389,0,0,0,5.041-10.3V47.343a12.317,12.317,0,0,0-4.74-9.856Zm1.423,55.968a9.333,9.333,0,0,1-3.843,7.9q-3.841,2.88-11.846,2.882-7.686,0-11.581-2.828a9.255,9.255,0,0,1-3.895-7.954V47.343a9.549,9.549,0,0,1,3.629-7.632q3.627-3.042,11.847-2.935,8.43.108,12.06,3.042a9.258,9.258,0,0,1,3.629,7.525Z"/>
    <path d="M458.727,43.287H448.054V73.6h9.606a7.544,7.544,0,0,0,5.657-1.975q1.92-1.974,1.921-6.564v-14.2q0-4.376-1.334-5.977T458.727,43.287Zm3.829,21.768c0,2.934-.671,4.061-1.071,4.472a4.786,4.786,0,0,1-3.507,1.067h-6.605V46.287h7.672c2.337,0,2.87.519,2.875.524.023.027.636.8.636,4.054ZM470.5,36.081c-1.906-.976-4.57-1.451-8.145-1.451h-24.24V106.8h13.258V82.255h8.633c4.787,0,8.254-.888,10.6-2.715a11.733,11.733,0,0,0,4.411-7.247,41.719,41.719,0,0,0,.693-7.767V47.876a22.718,22.718,0,0,0-.822-6.577A8.534,8.534,0,0,0,470.5,36.081Zm1.889,28.445a38.551,38.551,0,0,1-.639,7.2,8.775,8.775,0,0,1-3.309,5.444q-2.668,2.081-8.752,2.081H448.054V103.8H440.8V37.63h21.239a15.556,15.556,0,0,1,6.777,1.121,5.5,5.5,0,0,1,2.882,3.415,20.043,20.043,0,0,1,.693,5.71Z"/>
    <path d="M521.279,36.762l-11.91,39.381L497.458,36.762l-.645-2.132h-14.4V106.8h13.258V72.916l7.913,24.55.67,2.079h10.24l.67-2.079,8.019-24.872V106.8h13.258V34.63H521.924Zm11.839.868V103.8H525.86V52.786l-.106-.214-.107,1.6L511.986,96.543h-5.87L492.561,54.494l-.107-1.281L492.347,53v50.8H485.09V37.63h9.178L508.89,85.979l.11.423h.107l.107-.427,14.622-48.349Z"/>
    <path d="M545.8,106.8h36.418V95.143h-23.16v-22.5H578.87l.424-2.5.961-5.657.6-3.5H559.061v-14.7h23.16V34.63H545.8Zm2.682-69.173H578.9v5.657H555.74V63.993h21.239l-.961,5.656H555.743v28.5H578.9V103.8H548.485Z"/>
    <path d="M614.214,71.492l-12.2-34.849-.7-2.009H588.922v72.172h13.152V72.036l12.006,32.8.721,1.969h12.568V34.63H614.217Zm2.579,17.263.106.107V37.63h7.152V103.8h-7.472l-17.5-47.815-.214-.744h-.106v48.562H591.6V37.63h7.258l17.717,50.59Z"/>
    <path d="M633,34.63V46.287h11.634V106.8h13.258V46.287h11.74V34.63Zm33.314,8.657h-11.74V103.8h-7.258V43.287H635.682V37.63h30.632Z"/>
  </g>
</svg>
